<?xml version="1.0" encoding="utf-8"?>
<!-- Generator: Adobe Illustrator 24.1.2, SVG Export Plug-In . SVG Version: 6.00 Build 0)  -->
<svg version="1.1" id="图层_1" xmlns="http://www.w3.org/2000/svg" xmlns:xlink="http://www.w3.org/1999/xlink" x="0px" y="0px"
	 viewBox="0 0 439.1 5891.8" style="enable-background:new 0 0 439.1 5891.8;" xml:space="preserve">
<style type="text/css">
	.st0{fill-rule:evenodd;clip-rule:evenodd;fill:#96B7DF;}
	.st1{fill:#96B7DF;}
</style>
<g>
	<g>
		<g>
			<g>
				<g>
					<path class="st0" d="M255.4,363.8c8-1.2,10.8,1,14,6.2c2.9,5.3,4.4,10.7,7,10.8c2.3,0.1,5.8-4.8,4.6-14.3
						c-0.6-4.6-3.5-11-10.1-14.6c-6.5-3.6-14.4-2.8-19.9,0c-11.4,6.2-15.1,13.9-18.3,20.7c-2.8,7.1-4.6,14.7-4.4,25.4
						c1.4-10.7,5-17.3,9.2-22.6C241.8,370.3,247.3,365.5,255.4,363.8z"/>
				</g>
				<path class="st1" d="M323.5,96.8c-23.5,0.9-41.4,16.8-43.1,41c-1.6,23.5,22.7,49.8,42.5,31.8c11.9-10.9-10.8-26.6-15.4-9.7
					c-1.6,9.5-10.9,5.2-14.5,0c-4.1-5.9-4.8-14-3.9-20.9c4.1-31.9,47-37.5,65.5-14.4c22.3,27.7,5.2,64.8-16.3,86.3
					c-25.7,25.6-55.5,46.9-80.1,73.5c-27.9,30.1-31,71.2-31,110.6c0.7,0,1.3,0,2,0.1c2.6-26,6-53.6,17.3-77.5
					c10.2-21.5,32-36.5,50.3-50.8c39-30.4,86.8-71.6,86.5-108C383,122.4,358.5,95.5,323.5,96.8z"/>
				<path class="st1" d="M406.2,327c-5.4,10.3-15.9,16.4-27.1,18.6c-9.5,1.7-18.8-2.7-8.3-11.3c4.9-5.4-1.9-18.7-8.6-12.9
					c-6.8,6.1-4,21,2.5,26.5c20.4,17.1,51.8-12.4,55.1-31.6c11.4-64.8-79.7-60.2-116.7-43.4c-46.7,21.2-80.4,75.4-75.6,126.8
					c6.2-11.4,5.7-32.8,12.1-47c7.4-16.7,18.3-31.7,31.5-44.3c28.4-27,63.7-37.2,95.3-32.3C398,281.2,419.2,302,406.2,327z"/>
			</g>
			<g>
				<path class="st1" d="M414.5,215.8c-9.2,17.4-46.6,25.9-53.4,25.7l-0.2-1.6c13-3.8,21.7-12.6,29.8-22.6c2-2.6,3.9-5.2,5.8-8
					c1.8-2.4,3.2-4.4,4.9-6.3c3.3-3.7,8-12.9,8.6-14.5C410.7,186.8,423.7,198.4,414.5,215.8z"/>
				<path class="st1" d="M413.2,248.8l-5.4,0.8c-2.1,0.4-5.5,0.2-9.1-0.4l-9.6-2.6c-5.9-1.7-11.3-2.6-17.3-2.7
					c-6-0.3-15.6,1-18.6,0.6c-2.9-0.4,11.2-6.8,17.6-8.7c6.3-1.7,14-5.9,29.7-4.9c15.7,0.9,17.4,5,20.6,9.6c3.5,4.6,0.2,14.5-1,13.1
					C418.9,252,414.5,248.4,413.2,248.8z"/>
			</g>
			<g>
				<path class="st0" d="M397.2,81.4c4.1-4.5,20.8-9.4,16.4-16.6c-5.8-9.4-20.1-6-26.1,1c-10.4,12.2-5.5,32.5-4.1,47.1
					C385.5,100.9,389.7,91,397.2,81.4C399.2,79.3,389.4,91.5,397.2,81.4z"/>
				<path class="st0" d="M379.6,47.7c-4.5-14.1-16.8-25.3-32.5-25.4c-12.3,0-31,13.9-15.8,19.4c16,5.9,22.9,6.7,33,22.5
					c9.5,15.1,15.3,32.3,17.6,50C383.4,92.3,385.9,69.1,379.6,47.7C377.3,40.6,383.9,62.6,379.6,47.7z"/>
				<path class="st1" d="M399.6,15.8c0.1,12.5-5.1,24.2-11.6,24.2c-6.5,0-11.9-11.5-12-24.1c-0.1-12.5,5.2-16,11.7-16
					C394.2,0,399.5,3.4,399.6,15.8z"/>
			</g>
			<g>
				<g>
					<path class="st0" d="M203.6,375.6c4.3,5.3,8,11.8,9.5,22.5c0.1-10.8-1.9-18.3-4.8-25.4c-3.3-6.8-7.1-14.4-18.6-20.4
						c-5.6-2.7-13.5-3.5-20,0.3c-6.5,3.7-9.3,10.2-9.8,14.8c-1.1,9.5,2.5,14.4,4.8,14.2c2.7,0,4.1-5.5,6.9-10.9
						c3.2-5.2,5.9-7.5,13.9-6.4C193.6,366,199.2,370.7,203.6,375.6z"/>
				</g>
				<path class="st1" d="M113.4,98.4c23.5,0.6,41.7,16.2,43.7,40.4c2,23.4-21.9,50.2-42,32.4c-12.1-10.7,10.4-26.8,15.2-10
					c1.8,9.5,11,5.1,14.5-0.2c4-6,4.6-14.1,3.5-21c-4.6-31.8-47.6-36.8-65.7-13.4c-21.9,28.1-4.2,64.8,17.6,86
					c26.1,25.2,56.2,46,81.3,72.3c28.3,29.7,32.1,70.8,32.6,110.1c-0.6,0-1.3,0.1-2,0.1c-3-25.9-6.9-53.5-18.5-77.2
					c-10.5-21.3-32.6-36.1-51-50c-39.5-29.8-87.9-70.3-88.2-106.6C54.3,124.9,78.4,97.6,113.4,98.4z"/>
				<path class="st1" d="M34.2,329.9c5.5,10.3,16.1,16.2,27.4,18.2c9.5,1.5,18.8-2.9,8.1-11.4c-5-5.4,1.6-18.7,8.4-13
					c6.9,6,4.3,20.9-2.1,26.5c-20.1,17.4-51.9-11.6-55.6-30.7c-12.4-64.6,78.8-61.4,116-45.2c47,20.5,81.5,74.1,77.6,125.6
					c-6.3-11.3-6.2-32.7-12.8-46.8c-7.7-16.5-18.8-31.4-32.2-43.8c-28.8-26.6-64.3-36.3-95.8-30.8C41.7,284,20.8,305,34.2,329.9z"/>
			</g>
			<g>
				<path class="st1" d="M24.2,218.8c9.5,17.3,46.9,25.2,53.7,24.9l0.2-1.6c-13.1-3.6-21.9-12.3-30.1-22.2c-2-2.6-4-5.2-6-7.9
					c-1.9-2.4-3.3-4.4-5-6.2c-3.3-3.7-8.2-12.8-8.8-14.4C27.5,189.7,14.7,201.5,24.2,218.8z"/>
				<path class="st1" d="M26,251.8l5.4,0.7c2.1,0.4,5.5,0.2,9.1-0.5l9.5-2.8c5.9-1.8,11.2-2.8,17.3-3c6-0.4,15.6,0.8,18.6,0.3
					c2.9-0.5-11.3-6.6-17.7-8.4c-6.3-1.6-14.1-5.6-29.8-4.5c-15.7,1.1-17.3,5.3-20.5,9.9c-3.4,4.7,0,14.5,1.2,13
					C20.3,255,24.7,251.4,26,251.8z"/>
			</g>
			<g>
				<path class="st0" d="M39.5,84.1c7.6,9.5,12,19.3,14.3,31.3c1.2-14.6,5.7-35-4.8-47c-6.1-7-20.5-10.1-26.1-0.6
					C18.5,75,35.3,79.7,39.5,84.1C47.4,94.1,37.4,82,39.5,84.1z"/>
				<path class="st0" d="M56.5,50.2c-5.9,21.5-3.1,44.7-1.3,66.6c2.1-17.7,7.6-35,16.9-50.2c9.8-16,16.7-16.9,32.6-23
					c15.1-5.8-3.8-19.4-16.1-19.2C73,24.6,60.8,36,56.5,50.2C52.4,65.1,58.7,43,56.5,50.2z"/>
				<path class="st1" d="M60.5,18.4c0.1,12.5-5.1,24.2-11.6,24.2c-6.5,0.1-11.9-11.5-12-24.1c-0.1-12.5,5.2-16,11.7-16
					C55.1,2.5,60.5,5.9,60.5,18.4z"/>
			</g>
			<g>
				<path class="st0" d="M238.5,46.5c5.2-4.3,28.6-12,30-18.4c2.3-9.5-19.6-7.8-23.9-6.3c-26.8,9.1-28.5,42.3-27.5,66.1
					C219.3,72.1,226,56.8,238.5,46.5C245,41.1,231.6,52.1,238.5,46.5z"/>
				<path class="st0" d="M249.9,93.5c12.3-14.6,14.7-12.5,31.6-12.6c7.5-0.1,4.8-9.4,2.6-13.2c-6.3-10.9-20.2-14.4-31.5-9.7
					c-33.1,13.7-36,68.3-35,97.9C220.9,132.9,235.3,111.4,249.9,93.5C254,88.6,241.4,103.8,249.9,93.5z"/>
				<path class="st0" d="M195.3,46.8c12.7,10.1,19.6,25.3,22,41c0.6-23.7-1.6-56.9-28.5-65.7c-4.2-1.4-26.2-2.7-23.8,6.7
					C166.5,35.3,190,42.6,195.3,46.8C202.2,52.4,188.6,41.5,195.3,46.8z"/>
				<path class="st0" d="M184.6,94c14.9,17.7,29.4,39,33,61.9c0.5-29.7-3-84.2-36.4-97.3c-11.3-4.5-25.2-0.8-31.3,10.2
					c-2.1,3.9-4.6,13.2,2.8,13.2C169.8,81.8,172.1,79.6,184.6,94C193.2,104.2,180.4,89.2,184.6,94z"/>
			</g>
			<g>
				<path class="st0" d="M356.2,452.7c4.3,5.2,12,28.6,18.4,30c9.5,2.3,7.8-19.6,6.3-23.8c-9.1-26.8-42.4-28.5-66.1-27.5
					C330.6,433.5,345.9,440.2,356.2,452.7C361.6,459.3,350.6,445.9,356.2,452.7z"/>
				<path class="st0" d="M309.2,464.2c14.6,12.3,12.4,14.6,12.6,31.6c0.1,7.5,9.4,4.8,13.2,2.7c10.9-6.3,14.3-20.2,9.7-31.5
					c-13.7-33.1-68.2-36.1-97.9-35.1C269.8,435.2,291.3,449.6,309.2,464.2C314.1,468.2,298.9,455.7,309.2,464.2z"/>
				<path class="st0" d="M355.9,409.6c-10.2,12.6-25.3,19.6-41.1,22c23.7,0.6,57-1.5,65.7-28.5c1.4-4.2,2.7-26.2-6.7-23.8
					C367.4,380.8,360.1,404.3,355.9,409.6C350.3,416.5,361.2,402.9,355.9,409.6z"/>
				<path class="st0" d="M308.7,398.9c-17.7,14.9-38.9,29.3-61.9,33c29.6,0.5,84.1-3,97.3-36.3c4.5-11.4,0.8-25.2-10.2-31.3
					c-3.8-2.1-13.3-4.6-13.2,2.8C320.9,384,323.1,386.4,308.7,398.9C298.5,407.5,313.5,394.7,308.7,398.9z"/>
			</g>
			<g>
				<path class="st0" d="M82.4,454.8c10.2-12.7,25.3-19.6,41-22c-23.7-0.6-56.9,1.6-65.7,28.5c-1.3,4.2-2.7,26.2,6.7,23.7
					C70.8,483.6,78.2,460.1,82.4,454.8C87.9,447.9,77.1,461.5,82.4,454.8z"/>
				<path class="st0" d="M129.5,465.5c17.7-14.9,38.9-29.5,61.8-33.2c-29.6-0.5-84.2,3.2-97.3,36.6c-4.5,11.3-0.8,25.2,10.2,31.3
					c3.8,2.1,13.2,4.6,13.2-2.9C117.3,480.4,115.2,478,129.5,465.5C139.7,457,124.7,469.7,129.5,465.5z"/>
				<path class="st0" d="M82.1,411.7c-4.3-5.2-12-28.6-18.4-30c-9.5-2.3-7.8,19.7-6.4,23.9c9.2,26.8,42.4,28.5,66.1,27.5
					C107.6,430.8,92.4,424.2,82.1,411.7C76.6,405.1,87.7,418.5,82.1,411.7z"/>
				<path class="st0" d="M129,400.3c-14.6-12.3-12.4-14.6-12.6-31.6c-0.1-7.4-9.4-4.8-13.2-2.6c-10.9,6.3-14.4,20.2-9.7,31.5
					c13.7,33.1,68.3,35.9,97.9,34.9C168.4,429,146.9,414.8,129,400.3C124.2,396.1,139.4,408.7,129,400.3z"/>
			</g>
			<g>
				<path class="st1" d="M271.5,253.7c-7.6,6.1-15.3,10.7-24.9,12.7c-1.8,0.4-23.8,3.1-23.9,2.8c-3.9-9.5,26.5-27.7,37.8-39.2
					c11.3-11.5,26.3-47.2,30.3-44.7C294.6,187.7,290.4,238.5,271.5,253.7z"/>
				<path class="st1" d="M163.4,254.5c7.7,6,15.4,10.5,25.1,12.3c1.9,0.4,23.9,2.7,24,2.5c3.7-9.5-26.9-27.3-38.4-38.7
					c-11.5-11.4-27.1-46.8-31-44.3C139.2,188.9,144.2,239.6,163.4,254.5z"/>
				<path class="st1" d="M217.7,307.1c-1.3-10.6-2-21.2-2.8-31.9c-0.5-5.3-0.3-8.3-3.1-13.4c-8.6-7.7-13.7-15.5-17.1-23.3
					c-4.1-8.6-5.6-17.2-5.8-25.9c0-8.6,1.4-17.2,5.3-25.9c3.6-8.7,13.7-21.3,17.5-24.4c3.1-2.5,6.9-2.5,10-0.1
					c3.9,3.1,14.1,15.5,17.9,24.1c4.1,8.6,5.6,17.2,5.7,25.8c0,8.6-1.5,17.3-5.4,25.9c-3.3,7.9-8.2,15.7-16.7,23.6
					c-2.8,5.1-2.5,8.2-2.9,13.4C219.6,285.9,218.8,296.5,217.7,307.1z"/>
			</g>
			<path class="st0" d="M239.5,428.6c0.1,11.4-9,20.6-20.4,20.7c-11.4,0.1-20.6-9-20.7-20.4c-0.1-11.4,9-20.6,20.4-20.7
				C230.1,408.1,239.4,417.2,239.5,428.6z"/>
			<path class="st1" d="M299.4,324.8c-6.9,7.1-16.4,10.7-20.1,7.1c-3.7-3.6-0.2-13.1,6.7-20.2c7-7.1,11.9-6.1,15.5-2.4
				C305.2,312.9,306.3,317.7,299.4,324.8z"/>
			<path class="st1" d="M157.1,314.2c7,7,10.7,16.4,7.1,20.1c-3.6,3.7-13.1,0.2-20.2-6.7c-7.1-6.9-6.1-11.9-2.4-15.5
				C145.1,308.3,150,307.2,157.1,314.2z"/>
		</g>
		<g>
			<g>
				<g>
					<path class="st0" d="M237.4,482.4c-4.2-5.3-7.8-11.9-9.2-22.6c-0.2,10.8,1.6,18.3,4.4,25.4c3.2,6.8,6.9,14.5,18.3,20.7
						c5.5,2.8,13.5,3.6,20,0c6.5-3.6,9.4-10,10.1-14.6c1.3-9.5-2.3-14.4-4.6-14.3c-2.7,0-4.2,5.5-7,10.8c-3.3,5.2-6,7.4-14.1,6.2
						C247.3,492.1,241.8,487.4,237.4,482.4z"/>
				</g>
				<path class="st1" d="M323.5,760.8c-23.5-0.9-41.4-16.8-43.1-41c-1.6-23.5,22.7-49.8,42.5-31.8c11.9,10.8-10.8,26.6-15.4,9.7
					c-1.6-9.5-10.9-5.2-14.5,0c-4.1,6-4.8,14-3.9,21c4.1,31.9,47,37.5,65.5,14.4c22.3-27.8,5.2-64.8-16.3-86.3
					c-25.7-25.6-55.5-46.9-80.1-73.5c-27.9-30.1-31-71.2-31-110.6c0.7,0,1.3,0,2-0.1c2.6,26,6,53.6,17.3,77.5
					c10.2,21.5,32,36.5,50.3,50.8c39,30.4,86.8,71.6,86.5,108C383,735.3,358.5,762.2,323.5,760.8z"/>
				<path class="st1" d="M406.2,530.6c-5.4-10.3-15.9-16.4-27.1-18.6c-9.5-1.7-18.8,2.7-8.3,11.2c4.9,5.4-1.9,18.7-8.6,12.9
					c-6.8-6.1-4-21,2.5-26.5c20.4-17.1,51.8,12.4,55.1,31.6c11.4,64.8-79.7,60.2-116.7,43.4c-46.7-21.2-80.4-75.4-75.6-126.8
					c6.2,11.4,5.7,32.8,12.1,47c7.4,16.7,18.3,31.7,31.5,44.3c28.4,27,63.7,37.2,95.3,32.3C398,576.5,419.2,555.7,406.2,530.6z"/>
			</g>
			<g>
				<path class="st1" d="M414.5,641.9c-9.2-17.4-46.6-26-53.4-25.7l-0.2,1.6c13,3.8,21.7,12.6,29.8,22.6c2,2.6,3.9,5.2,5.8,8
					c1.8,2.5,3.2,4.4,4.9,6.3c3.3,3.7,8,12.9,8.6,14.5C410.7,670.9,423.7,659.3,414.5,641.9z"/>
				<path class="st1" d="M413.2,608.9l-5.4-0.8c-2.1-0.4-5.5-0.2-9.1,0.4l-9.6,2.6c-5.9,1.7-11.3,2.6-17.3,2.7
					c-6,0.3-15.6-1-18.6-0.6c-2.9,0.4,11.2,6.8,17.6,8.7c6.3,1.7,14,5.9,29.7,5c15.7-0.9,17.4-5,20.6-9.6c3.5-4.6,0.2-14.5-1-13.1
					C418.9,605.7,414.5,609.3,413.2,608.9z"/>
			</g>
			<g>
				<path class="st0" d="M397.2,776.3c4.1,4.5,20.8,9.4,16.4,16.6c-5.8,9.4-20.1,6-26.1-1c-10.4-12.2-5.5-32.5-4.1-47.1
					C385.5,756.8,389.7,766.7,397.2,776.3C399.2,778.4,389.4,766.2,397.2,776.3z"/>
				<path class="st0" d="M379.6,809.9c-4.5,14.1-16.8,25.3-32.5,25.4c-12.3,0-31-13.9-15.8-19.4c16-5.9,22.9-6.7,33-22.5
					c9.5-15,15.3-32.3,17.6-50C383.4,765.3,385.9,788.6,379.6,809.9C377.3,817.1,383.9,795.1,379.6,809.9z"/>
				<path class="st1" d="M399.6,841.8c0.1-12.5-5.1-24.2-11.6-24.2c-6.5,0-11.9,11.5-12,24.1c-0.1,12.5,5.2,16,11.7,16
					C394.2,857.7,399.5,854.3,399.6,841.8z"/>
			</g>
			<g>
				<g>
					<path class="st0" d="M185.6,493.3c-8.1,1.1-10.8-1.1-13.9-6.4c-2.8-5.3-4.2-10.8-6.9-10.9c-2.3-0.2-5.9,4.7-4.8,14.2
						c0.6,4.6,3.3,11.1,9.8,14.8c6.4,3.7,14.4,3,20,0.3c11.5-6,15.3-13.6,18.6-20.4c2.9-7.1,4.9-14.6,4.8-25.4
						c-1.5,10.7-5.3,17.2-9.5,22.5C199.2,487,193.6,491.7,185.6,493.3z"/>
				</g>
				<path class="st1" d="M113.4,759.2c23.5-0.6,41.7-16.2,43.7-40.4c2-23.4-21.9-50.2-42-32.4c-12.1,10.7,10.4,26.8,15.2,10
					c1.8-9.5,11-5.1,14.5,0.2c4,6,4.6,14.1,3.5,21c-4.6,31.8-47.6,36.8-65.7,13.4c-21.9-28.1-4.2-64.8,17.6-86
					c26.1-25.2,56.2-46,81.3-72.3c28.3-29.7,32.1-70.8,32.6-110.1c-0.6,0-1.3-0.1-2-0.1c-3,25.9-6.9,53.5-18.5,77.2
					c-10.5,21.3-32.6,36.1-51,50c-39.5,29.8-87.9,70.3-88.2,106.6C54.3,732.8,78.4,760.1,113.4,759.2z"/>
				<path class="st1" d="M34.2,527.8c5.5-10.3,16.1-16.2,27.4-18.2c9.5-1.5,18.8,2.9,8.1,11.4c-5,5.3,1.6,18.7,8.4,13
					c6.9-6,4.3-20.9-2.1-26.5c-20.1-17.4-51.9,11.6-55.6,30.7c-12.4,64.6,78.8,61.4,116,45.2c47-20.5,81.5-74.1,77.6-125.6
					c-6.3,11.3-6.2,32.7-12.8,46.8c-7.7,16.5-18.8,31.4-32.2,43.8c-28.8,26.6-64.3,36.3-95.8,30.8C41.7,573.7,20.8,552.7,34.2,527.8
					z"/>
			</g>
			<g>
				<path class="st1" d="M24.2,638.9c9.5-17.3,46.9-25.2,53.7-24.8l0.2,1.6C65,619.3,56.2,628,47.9,637.9c-2,2.6-4,5.2-6,8
					c-1.9,2.4-3.3,4.3-5,6.2c-3.3,3.7-8.2,12.8-8.8,14.4C27.5,668,14.7,656.2,24.2,638.9z"/>
				<path class="st1" d="M26,605.9l5.4-0.7c2.1-0.4,5.5-0.2,9.1,0.5l9.5,2.8c5.9,1.8,11.2,2.8,17.3,3c6,0.4,15.6-0.8,18.6-0.3
					c2.9,0.5-11.3,6.6-17.7,8.4c-6.3,1.6-14.1,5.6-29.8,4.5c-15.7-1.1-17.3-5.3-20.5-9.9c-3.4-4.7,0-14.5,1.2-13
					C20.3,602.7,24.7,606.3,26,605.9z"/>
			</g>
			<g>
				<path class="st0" d="M39.5,773.6c7.6-9.5,12-19.3,14.3-31.3c1.2,14.6,5.7,35-4.8,47c-6.1,7-20.5,10.1-26.1,0.6
					C18.5,782.7,35.3,778,39.5,773.6C47.4,763.5,37.4,775.7,39.5,773.6z"/>
				<path class="st0" d="M56.5,807.5c-5.9-21.5-3.1-44.7-1.3-66.6c2.1,17.7,7.6,35,16.9,50.2c9.8,16,16.7,16.9,32.6,23
					c15.1,5.8-3.8,19.4-16.1,19.2C73,833,60.8,821.7,56.5,807.5C52.4,792.6,58.7,814.6,56.5,807.5z"/>
				<path class="st1" d="M60.5,839.3c0.1-12.5-5.1-24.2-11.6-24.2c-6.5-0.1-11.9,11.5-12,24.1c-0.1,12.5,5.2,16,11.7,16
					C55.1,855.2,60.5,851.7,60.5,839.3z"/>
			</g>
			<g>
				<path class="st0" d="M238.5,811.2c5.2,4.3,28.6,12,30,18.4c2.3,9.5-19.6,7.8-23.9,6.3c-26.8-9.1-28.5-42.3-27.5-66.1
					C219.3,785.6,226,800.8,238.5,811.2C245,816.6,231.6,805.5,238.5,811.2z"/>
				<path class="st0" d="M249.9,764.2c12.3,14.6,14.7,12.5,31.6,12.6c7.5,0.1,4.8,9.4,2.6,13.2c-6.3,10.9-20.2,14.4-31.5,9.7
					c-33.1-13.7-36-68.3-35-97.9C220.9,724.8,235.3,746.3,249.9,764.2C254,769,241.4,753.8,249.9,764.2z"/>
				<path class="st0" d="M195.3,810.8c12.7-10.1,19.6-25.3,22-41c0.6,23.7-1.6,56.9-28.5,65.7c-4.2,1.4-26.2,2.7-23.8-6.7
					C166.5,822.4,190,815.1,195.3,810.8C202.2,805.3,188.6,816.1,195.3,810.8z"/>
				<path class="st0" d="M184.6,763.7c14.9-17.7,29.4-39,33-61.8c0.5,29.7-3,84.2-36.4,97.3c-11.3,4.5-25.2,0.8-31.3-10.2
					c-2.1-3.9-4.6-13.2,2.8-13.2C169.8,775.9,172.1,778.1,184.6,763.7C193.2,753.5,180.4,768.5,184.6,763.7z"/>
			</g>
			<g>
				<path class="st1" d="M271.5,604c-7.6-6.1-15.3-10.7-24.9-12.7c-1.8-0.4-23.8-3.1-23.9-2.8c-3.9,9.5,26.5,27.7,37.8,39.2
					c11.3,11.5,26.3,47.2,30.3,44.7C294.6,670,290.4,619.2,271.5,604z"/>
				<path class="st1" d="M163.4,603.2c7.7-6,15.4-10.5,25.1-12.3c1.9-0.4,23.9-2.7,24-2.5c3.7,9.5-26.9,27.3-38.4,38.7
					c-11.5,11.4-27.1,46.8-31,44.3C139.2,668.8,144.2,618,163.4,603.2z"/>
				<path class="st1" d="M217.7,550.5c-1.3,10.6-2,21.2-2.8,31.9c-0.5,5.3-0.3,8.3-3.1,13.4c-8.6,7.7-13.7,15.5-17.1,23.3
					c-4.1,8.6-5.6,17.2-5.8,25.9c0,8.6,1.4,17.2,5.3,25.9c3.6,8.7,13.7,21.3,17.5,24.4c3.1,2.5,6.9,2.5,10,0.1
					c3.9-3.1,14.1-15.5,17.9-24.2c4.1-8.6,5.6-17.2,5.7-25.8c0-8.6-1.5-17.3-5.4-26c-3.3-7.8-8.2-15.7-16.7-23.5
					c-2.8-5.1-2.5-8.2-2.9-13.4C219.6,571.8,218.8,561.2,217.7,550.5z"/>
			</g>
			<path class="st1" d="M157.1,543.5c7-7,10.7-16.4,7.1-20.1c-3.6-3.7-13.1-0.2-20.2,6.7c-7.1,6.9-6.1,11.9-2.4,15.5
				C145.1,549.4,150,550.5,157.1,543.5z"/>
		</g>
		<g>
			<g>
				<path class="st0" d="M27.6,1000.7c-10.6-2.6-8.8,22-7.2,26.6c10.1,30,47.3,32.1,73.8,31.1c-17.6-2.5-34.7-10.1-46.2-24.1
					C42,1026.9,34.8,1002.2,27.6,1000.7z"/>
				<path class="st0" d="M86.7,986.4c0-8.3-10.5-5.4-14.8-3c-12.2,7-16.1,22.5-11,35.1c15.1,37.1,76.1,40.7,109.2,39.7
					c-25.6-3.8-49.6-20-69.5-36.4C95.2,1017.2,86.8,1005.3,86.7,986.4z"/>
				<path class="st0" d="M94.2,1058.2c-26.5-0.8-63.7,1.5-73.6,31.5c-1.5,4.7-3.1,29.3,7.4,26.6c7.2-1.6,15.5-27.9,20.2-33.7
					C54.4,1074.8,76.6,1060.8,94.2,1058.2z"/>
			</g>
			<g>
				<path class="st0" d="M344.9,1056.1c26.5,0.8,63.7-1.4,73.6-31.5c1.5-4.7,3.2-29.3-7.4-26.6c-7.1,1.5-15.5,27.9-20.2,33.7
					C384.7,1039.5,362.5,1053.5,344.9,1056.1z"/>
				<path class="st0" d="M411.5,1113.7c10.6,2.6,8.8-22,7.2-26.7c-10.1-30-47.2-32.1-73.8-31.1c17.6,2.5,34.6,10.1,46.1,24.1
					C397.1,1087.4,404.3,1112.1,411.5,1113.7z"/>
				<path class="st0" d="M352.4,1127.9c0,8.3,10.5,5.4,14.8,3c12.3-7,16.1-22.5,11-35.1c-15.1-37.1-76.1-40.4-109.3-39.5
					c25.6,3.8,49.6,19.8,69.6,36.2C343.9,1097.1,352.3,1109,352.4,1127.9z"/>
			</g>
			<g>
				<path class="st0" d="M75.6,1196.1c-7.5,7.9,14.8,18.5,19.6,19.4c31.1,6.1,51.3-25.3,63.5-48.8c-10.9,14.1-25.9,25.2-43.8,28.2
					C105.6,1196.6,80.5,1190.7,75.6,1196.1z"/>
				<path class="st0" d="M92.4,1137.7c-7.2-4.1-9.9,6.4-9.9,11.3c0,14.1,11.6,25.2,25.1,26.9c39.7,5.2,72.9-46.1,88.5-75.3
					c-16,20.4-41.9,33.2-66,42.4C123.4,1145.5,108.9,1147,92.4,1137.7z"/>
				<path class="st0" d="M158.6,1166.7c-13.9,22.7-30.2,56.1-9,79.6c3.3,3.7,23.9,17.2,26.7,6.7c2.1-7-16.6-27.2-19.3-34.2
					C153.3,1209.5,152.1,1183.3,158.6,1166.7z"/>
			</g>
			<g>
				<path class="st0" d="M280.6,947.7c13.8-22.7,30.2-56.1,9-79.6c-3.3-3.7-23.9-17.2-26.8-6.7c-2.1,7,16.6,27.2,19.3,34.3
					C285.8,904.9,287.1,931.1,280.6,947.7z"/>
				<path class="st0" d="M363.5,918.3c7.5-7.9-14.7-18.5-19.6-19.5c-31.1-6-51.3,25.2-63.5,48.8c10.9-14.1,25.9-25.2,43.7-28.3
					C333.6,917.8,358.6,923.7,363.5,918.3z"/>
				<path class="st0" d="M346.8,976.7c7.3,4.1,10-6.5,9.9-11.4c0-14.1-11.6-25.2-25.1-26.9c-39.7-5.2-72.8,46.2-88.3,75.4
					c16-20.4,41.7-33.3,65.8-42.5C315.8,968.8,330.3,967.4,346.8,976.7z"/>
			</g>
			<g>
				<path class="st0" d="M267.3,1251.4c3,10.5,23.4-3.4,26.6-7.2c20.9-23.8,4-57-10.2-79.4c6.7,16.5,8.7,35,2.4,52
					C282.8,1225.8,265,1244.5,267.3,1251.4z"/>
				<path class="st0" d="M225.2,1207.6c-7.2,4.2,0.6,11.8,4.8,14.3c12.2,7.1,27.6,2.6,35.9-8.1c24.5-31.8-3.1-86.3-20.6-114.4
					c9.6,24.1,7.7,52.9,3.5,78.4C247.6,1184.7,241.6,1198,225.2,1207.6z"/>
				<path class="st0" d="M283.5,1165c12.6,23.4,33.3,54.3,64.3,47.8c4.9-1,26.9-12,19.3-19.8c-5-5.4-31.9,0.7-39.3-0.5
					C317.9,1191,294.7,1178.9,283.5,1165z"/>
			</g>
			<g>
				<path class="st0" d="M155.6,949.3C143,926,122.3,895,91.4,901.6c-4.8,1-27,12-19.3,19.8c5,5.4,31.9-0.6,39.3,0.5
					C121.2,923.3,144.5,935.4,155.6,949.3z"/>
				<path class="st0" d="M171.9,862.9c-3.1-10.5-23.4,3.4-26.6,7.2c-20.9,23.8-4,57,10.2,79.4c-6.7-16.5-8.7-35-2.4-52
					C156.4,888.5,174.1,869.8,171.9,862.9z"/>
				<path class="st0" d="M214,906.7c7.2-4.2-0.6-11.8-4.8-14.3c-12.2-7.1-27.6-2.7-35.9,8.2c-24.5,31.7,3.4,86.1,20.8,114.3
					c-9.6-24.1-7.9-52.8-3.7-78.3C191.5,929.6,197.6,916.4,214,906.7z"/>
			</g>
			<path class="st0" d="M219.2,1079.1c-12.7,0-23-10.2-23-22.9c0-12.7,10.2-23,22.9-23c12.7,0,23,10.2,23.1,22.9
				C242.1,1068.8,231.8,1079.1,219.2,1079.1z"/>
			<path class="st1" d="M403.2,962.3c-6.7,0-12.1-5.4-12.1-12c0-6.7,5.3-12.1,12-12.1c6.6,0,12,5.3,12.1,12
				C415.2,956.8,409.9,962.2,403.2,962.3z"/>
			<path class="st1" d="M403.8,1169.4c-6.7,0-12.1-5.4-12.1-12c0-6.6,5.4-12,12-12.1c6.6,0,12,5.3,12.1,12
				C415.8,1164,410.5,1169.4,403.8,1169.4z"/>
			<path class="st1" d="M49.9,963.3c-6.7,0-12.1-5.3-12.1-12c0-6.7,5.3-12.1,12-12.1c6.6,0,12.1,5.3,12.1,12
				C62,957.8,56.5,963.3,49.9,963.3z"/>
			<path class="st1" d="M50.5,1170.4c-6.7,0-12.1-5.3-12.1-12c0-6.7,5.4-12,12-12.1c6.6,0,12.1,5.3,12.1,12
				C62.6,1165,57.2,1170.4,50.5,1170.4z"/>
			<path class="st1" d="M321.4,888.6c-4.3,0-7.7-3.4-7.8-7.7c0-4.3,3.4-7.8,7.7-7.8c4.3,0,7.7,3.4,7.8,7.7
				C329.1,885.1,325.6,888.5,321.4,888.6z"/>
			<path class="st1" d="M322.4,1241c-4.3,0-7.7-3.4-7.8-7.7c0-4.3,3.4-7.7,7.7-7.8c4.3,0,7.7,3.4,7.8,7.7
				C330.1,1237.5,326.7,1241,322.4,1241z"/>
			<path class="st1" d="M117.7,889.2c-4.3,0-7.8-3.4-7.8-7.7c0-4.3,3.4-7.8,7.7-7.8c4.3,0,7.7,3.4,7.8,7.7
				C125.4,885.7,121.9,889.1,117.7,889.2z"/>
			<path class="st1" d="M118.7,1241.6c-4.3,0-7.8-3.4-7.8-7.7c0-4.3,3.4-7.7,7.7-7.8c4.3,0,7.8,3.4,7.8,7.7
				C126.4,1238.1,122.9,1241.6,118.7,1241.6z"/>
			<path class="st0" d="M86.1,1129.7c0,8.3-10.5,5.5-14.8,3.1c-12.3-6.9-16.3-22.4-11.2-35c14.9-37.2,75.9-41.1,109-40.3
				c-25.6,4-49.4,20.3-69.3,36.8C94.5,1098.8,86.1,1110.7,86.1,1129.7z"/>
			<path class="st0" d="M352.8,983.9c0-8.3,10.5-5.5,14.8-3.1c12.3,6.9,16.3,22.4,11.2,35.1c-14.9,37.2-75.8,40.9-109,40.1
				c25.6-4,49.5-20.1,69.3-36.6C344.5,1014.8,352.8,1002.9,352.8,983.9z"/>
			<path class="st0" d="M90,978.4c-7.3,4.1-10-6.4-10-11.3c-0.1-14.1,11.4-25.2,24.9-27.1c39.7-5.5,73.3,45.6,88.9,74.8
				c-16.1-20.3-42-33-66.2-42.1C120.9,970.4,106.5,969,90,978.4z"/>
			<path class="st0" d="M348,1135.2c7.2-4.1,10,6.4,10,11.3c0.1,14.1-11.4,25.2-24.9,27.1c-39.7,5.4-73-45.7-88.8-74.9
				c16.1,20.3,41.9,33.1,66.1,42.2C317.1,1143.2,331.5,1144.6,348,1135.2z"/>
			<path class="st0" d="M222.9,905.9c-7.2-4.2,0.5-11.8,4.7-14.3c12.1-7.2,27.6-2.8,35.9,7.9c24.7,31.6-2.6,86.3-19.9,114.5
				c9.4-24.2,7.4-52.9,3.1-78.4C245.4,928.6,239.3,915.4,222.9,905.9z"/>
			<path class="st0" d="M216.5,1209.5c7.2,4.2-0.5,11.8-4.8,14.3c-12.1,7.2-27.5,2.8-35.9-7.9c-24.7-31.6,2.8-86.2,20.1-114.4
				c-9.4,24.1-7.5,52.8-3.2,78.3C194,1186.8,200.1,1200,216.5,1209.5z"/>
		</g>
	</g>
	<g>
		<g>
			<g>
				<g>
					<path class="st0" d="M255.4,1621.7c8-1.2,10.8,1,14,6.2c2.9,5.3,4.4,10.7,7,10.8c2.3,0.2,5.8-4.8,4.6-14.3
						c-0.6-4.6-3.5-11-10.1-14.6c-6.5-3.6-14.4-2.8-19.9,0c-11.4,6.2-15.1,13.9-18.3,20.7c-2.8,7.2-4.6,14.7-4.4,25.4
						c1.4-10.7,5-17.3,9.2-22.6C241.8,1628.2,247.3,1623.4,255.4,1621.7z"/>
				</g>
				<path class="st1" d="M323.5,1354.7c-23.5,0.9-41.4,16.8-43.1,41c-1.6,23.5,22.7,49.8,42.5,31.8c11.9-10.8-10.8-26.6-15.4-9.7
					c-1.6,9.5-10.9,5.2-14.5,0c-4.1-5.9-4.8-14-3.9-20.9c4.1-31.9,47-37.5,65.5-14.4c22.3,27.8,5.2,64.8-16.3,86.3
					c-25.7,25.6-55.5,46.9-80.1,73.5c-27.9,30.1-31,71.2-31,110.6c0.7,0,1.3,0.1,2,0.1c2.6-26,6-53.6,17.3-77.5
					c10.2-21.5,32-36.6,50.3-50.8c39-30.4,86.8-71.6,86.5-108C383,1380.3,358.5,1353.4,323.5,1354.7z"/>
				<path class="st1" d="M406.2,1584.9c-5.4,10.3-15.9,16.4-27.1,18.7c-9.5,1.7-18.8-2.7-8.3-11.3c4.9-5.4-1.9-18.7-8.6-12.9
					c-6.8,6.1-4,20.9,2.5,26.4c20.4,17.1,51.8-12.4,55.1-31.6c11.4-64.8-79.7-60.2-116.7-43.4c-46.7,21.2-80.4,75.4-75.6,126.8
					c6.2-11.4,5.7-32.8,12.1-47c7.4-16.7,18.3-31.7,31.5-44.3c28.4-27,63.7-37.2,95.3-32.3C398,1539.1,419.2,1559.8,406.2,1584.9z"
					/>
			</g>
			<g>
				<path class="st1" d="M414.5,1473.7c-9.2,17.4-46.6,25.9-53.4,25.7l-0.2-1.6c13-3.8,21.7-12.6,29.8-22.6c2-2.6,3.9-5.2,5.8-8
					c1.8-2.4,3.2-4.4,4.9-6.3c3.3-3.7,8-12.9,8.6-14.5C410.7,1444.7,423.7,1456.3,414.5,1473.7z"/>
				<path class="st1" d="M413.2,1506.7l-5.4,0.8c-2.1,0.4-5.5,0.2-9.1-0.4l-9.6-2.6c-5.9-1.7-11.3-2.6-17.3-2.7
					c-6-0.3-15.6,1-18.6,0.6c-2.9-0.4,11.2-6.8,17.6-8.7c6.3-1.7,14-5.9,29.7-4.9c15.7,0.9,17.4,5,20.6,9.6c3.5,4.6,0.2,14.5-1,13.1
					C418.9,1509.9,414.5,1506.3,413.2,1506.7z"/>
			</g>
			<g>
				<path class="st0" d="M397.2,1339.3c4.1-4.5,20.8-9.4,16.4-16.6c-5.8-9.4-20.1-6-26.1,1c-10.4,12.2-5.5,32.5-4.1,47.1
					C385.5,1358.8,389.7,1348.9,397.2,1339.3C399.2,1337.2,389.4,1349.4,397.2,1339.3z"/>
				<path class="st0" d="M379.6,1305.6c-4.5-14.1-16.8-25.3-32.5-25.4c-12.3,0-31,13.9-15.8,19.4c16,5.9,22.9,6.7,33,22.5
					c9.5,15.1,15.3,32.3,17.6,50C383.4,1350.2,385.9,1327,379.6,1305.6C377.3,1298.5,383.9,1320.5,379.6,1305.6z"/>
				<path class="st1" d="M399.6,1273.7c0.1,12.5-5.1,24.2-11.6,24.2c-6.5,0.1-11.9-11.6-12-24.1c-0.1-12.5,5.2-16,11.7-16
					C394.2,1257.8,399.5,1261.3,399.6,1273.7z"/>
			</g>
			<g>
				<g>
					<path class="st0" d="M203.6,1633.5c4.3,5.3,8,11.8,9.5,22.5c0.1-10.8-1.9-18.3-4.8-25.4c-3.3-6.8-7.1-14.3-18.6-20.4
						c-5.6-2.7-13.5-3.4-20,0.3c-6.5,3.7-9.3,10.2-9.8,14.8c-1.1,9.5,2.5,14.4,4.8,14.2c2.7-0.1,4.1-5.6,6.9-10.9
						c3.2-5.2,5.9-7.5,13.9-6.4C193.6,1623.8,199.2,1628.5,203.6,1633.5z"/>
				</g>
				<path class="st1" d="M113.4,1356.3c23.5,0.6,41.7,16.2,43.7,40.4c2,23.4-21.9,50.2-42,32.4c-12.1-10.7,10.4-26.8,15.2-10
					c1.8,9.5,11,5.1,14.5-0.2c4-6,4.6-14.1,3.5-21c-4.6-31.8-47.6-36.8-65.7-13.4c-21.9,28.1-4.2,64.8,17.6,86
					c26.1,25.2,56.2,46,81.3,72.3c28.3,29.7,32.1,70.8,32.6,110.1c-0.6,0-1.3,0.1-2,0.1c-3-25.9-6.9-53.5-18.5-77.2
					c-10.5-21.3-32.6-36.1-51-50c-39.5-29.8-87.9-70.3-88.2-106.6C54.3,1382.8,78.4,1355.5,113.4,1356.3z"/>
				<path class="st1" d="M34.2,1587.8c5.5,10.3,16.1,16.2,27.4,18.2c9.5,1.5,18.8-2.9,8.1-11.4c-5-5.3,1.6-18.7,8.4-13
					c6.9,6,4.3,20.9-2.1,26.5c-20.1,17.4-51.9-11.6-55.6-30.7c-12.4-64.6,78.8-61.4,116-45.2c47,20.5,81.5,74.1,77.6,125.6
					c-6.3-11.3-6.2-32.7-12.8-46.8c-7.7-16.5-18.8-31.4-32.2-43.8c-28.8-26.6-64.3-36.3-95.8-30.8
					C41.7,1541.8,20.8,1562.9,34.2,1587.8z"/>
			</g>
			<g>
				<path class="st1" d="M24.2,1476.7c9.5,17.3,46.9,25.2,53.7,24.8l0.2-1.6c-13.1-3.6-21.9-12.3-30.1-22.2c-2-2.6-4-5.2-6-7.9
					c-1.9-2.4-3.3-4.3-5-6.2c-3.3-3.7-8.2-12.8-8.8-14.4C27.5,1447.6,14.7,1459.4,24.2,1476.7z"/>
				<path class="st1" d="M26,1509.6l5.4,0.7c2.1,0.4,5.5,0.2,9.1-0.5l9.5-2.8c5.9-1.8,11.2-2.8,17.3-3c6-0.4,15.6,0.8,18.6,0.3
					c2.9-0.5-11.3-6.6-17.7-8.4c-6.3-1.6-14.1-5.6-29.8-4.5c-15.7,1.1-17.3,5.3-20.5,9.9c-3.4,4.7,0,14.5,1.2,13.1
					C20.3,1512.9,24.7,1509.3,26,1509.6z"/>
			</g>
			<g>
				<path class="st0" d="M39.5,1342c7.6,9.5,12,19.3,14.3,31.3c1.2-14.6,5.7-35-4.8-47c-6.1-6.9-20.5-10.1-26.1-0.6
					C18.5,1332.9,35.3,1337.6,39.5,1342C47.4,1352,37.4,1339.9,39.5,1342z"/>
				<path class="st0" d="M56.5,1308.1c-5.9,21.5-3.1,44.7-1.3,66.6c2.1-17.7,7.6-35,16.9-50.2c9.8-16,16.7-16.9,32.6-23
					c15.1-5.8-3.8-19.4-16.1-19.2C73,1282.5,60.8,1293.9,56.5,1308.1C52.4,1323,58.7,1300.9,56.5,1308.1z"/>
				<path class="st1" d="M60.5,1276.3c0.1,12.5-5.1,24.2-11.6,24.2c-6.5,0.1-11.9-11.5-12-24.1c-0.1-12.5,5.2-16,11.7-16
					C55.1,1260.4,60.5,1263.8,60.5,1276.3z"/>
			</g>
			<g>
				<path class="st0" d="M238.5,1304.4c5.2-4.3,28.6-12,30-18.4c2.3-9.5-19.6-7.8-23.9-6.3c-26.8,9.1-28.5,42.3-27.5,66.1
					C219.3,1330,226,1314.7,238.5,1304.4C245,1299,231.6,1310,238.5,1304.4z"/>
				<path class="st0" d="M249.9,1351.4c12.3-14.6,14.7-12.5,31.6-12.6c7.5-0.1,4.8-9.4,2.6-13.2c-6.3-10.9-20.2-14.4-31.5-9.7
					c-33.1,13.7-36,68.3-35,97.9C220.9,1390.8,235.3,1369.3,249.9,1351.4C254,1346.5,241.4,1361.7,249.9,1351.4z"/>
				<path class="st0" d="M195.3,1304.7c12.7,10.1,19.6,25.3,22,41.1c0.6-23.7-1.6-56.9-28.5-65.7c-4.2-1.4-26.2-2.7-23.8,6.7
					C166.5,1293.2,190,1300.5,195.3,1304.7C202.2,1310.3,188.6,1299.4,195.3,1304.7z"/>
				<path class="st0" d="M184.6,1351.9c14.9,17.7,29.4,39,33,61.8c0.5-29.7-3-84.2-36.4-97.3c-11.3-4.5-25.2-0.8-31.3,10.2
					c-2.1,3.9-4.6,13.2,2.8,13.2C169.8,1339.7,172.1,1337.5,184.6,1351.9C193.2,1362.1,180.4,1347.1,184.6,1351.9z"/>
			</g>
			<g>
				<path class="st0" d="M356.2,1710.6c4.3,5.2,12,28.7,18.4,30c9.5,2.3,7.8-19.6,6.3-23.8c-9.1-26.8-42.4-28.5-66.1-27.5
					C330.6,1691.4,345.9,1698.1,356.2,1710.6C361.6,1717.2,350.6,1703.8,356.2,1710.6z"/>
				<path class="st0" d="M309.2,1722.1c14.6,12.3,12.4,14.6,12.6,31.6c0.1,7.5,9.4,4.8,13.2,2.7c10.9-6.3,14.3-20.2,9.7-31.5
					c-13.7-33.2-68.2-36.1-97.9-35.1C269.8,1693.1,291.3,1707.5,309.2,1722.1C314.1,1726.1,298.9,1713.6,309.2,1722.1z"/>
				<path class="st0" d="M355.9,1667.5c-10.2,12.7-25.3,19.6-41.1,22c23.7,0.7,57-1.6,65.7-28.5c1.4-4.2,2.7-26.2-6.7-23.8
					C367.4,1638.7,360.1,1662.2,355.9,1667.5C350.3,1674.4,361.2,1660.8,355.9,1667.5z"/>
				<path class="st0" d="M308.7,1656.8c-17.7,14.9-38.9,29.3-61.9,33c29.6,0.6,84.1-3,97.3-36.3c4.5-11.3,0.8-25.2-10.2-31.3
					c-3.8-2.2-13.3-4.6-13.2,2.8C320.9,1641.9,323.1,1644.3,308.7,1656.8C298.5,1665.4,313.5,1652.6,308.7,1656.8z"/>
			</g>
			<g>
				<path class="st0" d="M82.4,1712.7c10.2-12.7,25.3-19.6,41-22c-23.7-0.6-56.9,1.6-65.7,28.5c-1.3,4.2-2.7,26.2,6.7,23.7
					C70.8,1741.5,78.2,1718,82.4,1712.7C87.9,1705.8,77.1,1719.4,82.4,1712.7z"/>
				<path class="st0" d="M129.5,1723.4c17.7-14.9,38.9-29.6,61.8-33.2c-29.6-0.6-84.2,3.2-97.3,36.6c-4.5,11.3-0.8,25.2,10.2,31.3
					c3.8,2.1,13.2,4.6,13.2-2.9C117.3,1738.3,115.2,1735.9,129.5,1723.4C139.7,1714.8,124.7,1727.6,129.5,1723.4z"/>
				<path class="st0" d="M82.1,1669.6c-4.3-5.2-12-28.6-18.4-30c-9.5-2.3-7.8,19.7-6.4,23.9c9.2,26.8,42.4,28.5,66.1,27.5
					C107.6,1688.7,92.4,1682.1,82.1,1669.6C76.6,1663,87.7,1676.4,82.1,1669.6z"/>
				<path class="st0" d="M129,1658.1c-14.6-12.3-12.4-14.7-12.6-31.7c-0.1-7.4-9.4-4.8-13.2-2.6c-10.9,6.3-14.4,20.2-9.7,31.5
					c13.7,33.2,68.3,35.8,97.9,34.9C168.4,1686.9,146.9,1672.7,129,1658.1C124.2,1654,139.4,1666.6,129,1658.1z"/>
			</g>
			<g>
				<path class="st1" d="M271.5,1511.6c-7.6,6.1-15.3,10.7-24.9,12.7c-1.8,0.4-23.8,3.1-23.9,2.8c-3.9-9.5,26.5-27.7,37.8-39.2
					c11.3-11.5,26.3-47.2,30.3-44.7C294.6,1445.6,290.4,1496.4,271.5,1511.6z"/>
				<path class="st1" d="M163.4,1512.4c7.7,6,15.4,10.5,25.1,12.3c1.9,0.4,23.9,2.7,24,2.5c3.7-9.5-26.9-27.3-38.4-38.7
					c-11.5-11.4-27.1-46.8-31-44.3C139.2,1446.8,144.2,1497.5,163.4,1512.4z"/>
				<path class="st1" d="M217.7,1565c-1.3-10.6-2-21.2-2.8-31.9c-0.5-5.3-0.3-8.3-3.1-13.4c-8.6-7.7-13.7-15.5-17.1-23.3
					c-4.1-8.6-5.6-17.2-5.8-25.9c0-8.6,1.4-17.2,5.3-25.9c3.6-8.7,13.7-21.3,17.5-24.4c3.1-2.5,6.9-2.5,10-0.1
					c3.9,3.1,14.1,15.5,17.9,24.2c4.1,8.6,5.6,17.2,5.7,25.8c0,8.6-1.5,17.3-5.4,25.9c-3.3,7.8-8.2,15.7-16.7,23.6
					c-2.8,5.1-2.5,8.2-2.9,13.4C219.6,1543.8,218.8,1554.4,217.7,1565z"/>
			</g>
			<path class="st0" d="M239.5,1686.5c0.1,11.3-9,20.6-20.4,20.7c-11.4,0.1-20.6-9-20.7-20.4c-0.1-11.4,9-20.6,20.4-20.7
				C230.1,1666,239.4,1675.1,239.5,1686.5z"/>
			<path class="st1" d="M299.4,1582.7c-6.9,7.1-16.4,10.7-20.1,7.1c-3.7-3.6-0.2-13.1,6.7-20.2c7-7.1,11.9-6.1,15.5-2.4
				C305.2,1570.8,306.3,1575.6,299.4,1582.7z"/>
			<path class="st1" d="M157.1,1572.1c7,6.9,10.7,16.4,7.1,20.1c-3.6,3.7-13.1,0.2-20.2-6.7c-7.1-6.9-6.1-11.9-2.4-15.6
				C145.1,1566.2,150,1565.1,157.1,1572.1z"/>
		</g>
		<g>
			<g>
				<g>
					<path class="st0" d="M237.4,1740.2c-4.2-5.3-7.8-11.9-9.2-22.6c-0.2,10.8,1.6,18.3,4.4,25.4c3.2,6.8,6.9,14.5,18.3,20.7
						c5.5,2.8,13.5,3.6,20,0c6.5-3.6,9.4-10.1,10.1-14.6c1.3-9.5-2.3-14.4-4.6-14.3c-2.7,0-4.2,5.5-7,10.8c-3.3,5.2-6,7.4-14.1,6.2
						C247.3,1750,241.8,1745.3,237.4,1740.2z"/>
				</g>
				<path class="st1" d="M323.5,2018.7c-23.5-0.9-41.4-16.8-43.1-41c-1.6-23.5,22.7-49.8,42.5-31.8c11.9,10.8-10.8,26.6-15.4,9.7
					c-1.6-9.5-10.9-5.2-14.5,0c-4.1,5.9-4.8,14-3.9,20.9c4.1,31.9,47,37.5,65.5,14.4c22.3-27.8,5.2-64.8-16.3-86.3
					c-25.7-25.6-55.5-46.9-80.1-73.5c-27.9-30.1-31-71.2-31-110.6c0.7,0,1.3-0.1,2-0.1c2.6,26,6,53.6,17.3,77.5
					c10.2,21.5,32,36.6,50.3,50.8c39,30.4,86.8,71.6,86.5,108C383,1993.2,358.5,2020.1,323.5,2018.7z"/>
				<path class="st1" d="M406.2,1788.5c-5.4-10.3-15.9-16.4-27.1-18.7c-9.5-1.7-18.8,2.7-8.3,11.3c4.9,5.4-1.9,18.7-8.6,12.9
					c-6.8-6.1-4-20.9,2.5-26.4c20.4-17.1,51.8,12.4,55.1,31.6c11.4,64.8-79.7,60.2-116.7,43.4c-46.7-21.2-80.4-75.4-75.6-126.8
					c6.2,11.4,5.7,32.8,12.1,47c7.4,16.7,18.3,31.7,31.5,44.3c28.4,27,63.7,37.2,95.3,32.3C398,1834.3,419.2,1813.6,406.2,1788.5z"
					/>
			</g>
			<g>
				<path class="st1" d="M414.5,1899.8c-9.2-17.4-46.6-25.9-53.4-25.7l-0.2,1.6c13,3.8,21.7,12.6,29.8,22.6c2,2.6,3.9,5.2,5.8,8
					c1.8,2.4,3.2,4.4,4.9,6.3c3.3,3.7,8,12.9,8.6,14.5C410.7,1928.8,423.7,1917.2,414.5,1899.8z"/>
				<path class="st1" d="M413.2,1866.8l-5.4-0.8c-2.1-0.4-5.5-0.2-9.1,0.4l-9.6,2.6c-5.9,1.7-11.3,2.6-17.3,2.7
					c-6,0.3-15.6-1-18.6-0.6c-2.9,0.4,11.2,6.8,17.6,8.7c6.3,1.7,14,5.9,29.7,4.9c15.7-0.9,17.4-5,20.6-9.6c3.5-4.6,0.2-14.5-1-13.1
					C418.9,1863.6,414.5,1867.2,413.2,1866.8z"/>
			</g>
			<g>
				<path class="st0" d="M397.2,2034.2c4.1,4.5,20.8,9.4,16.4,16.6c-5.8,9.4-20.1,6-26.1-1c-10.4-12.2-5.5-32.5-4.1-47.1
					C385.5,2014.7,389.7,2024.5,397.2,2034.2C399.2,2036.3,389.4,2024.1,397.2,2034.2z"/>
				<path class="st0" d="M379.6,2067.8c-4.5,14.1-16.8,25.3-32.5,25.4c-12.3,0-31-13.9-15.8-19.4c16-5.9,22.9-6.7,33-22.5
					c9.5-15.1,15.3-32.3,17.6-50C383.4,2023.2,385.9,2046.5,379.6,2067.8C377.3,2074.9,383.9,2053,379.6,2067.8z"/>
				<path class="st1" d="M399.6,2099.7c0.1-12.5-5.1-24.2-11.6-24.2c-6.5-0.1-11.9,11.6-12,24.1c-0.1,12.5,5.2,16,11.7,16
					C394.2,2115.6,399.5,2112.2,399.6,2099.7z"/>
			</g>
			<g>
				<g>
					<path class="st0" d="M185.6,1751.2c-8.1,1.1-10.8-1.1-13.9-6.4c-2.8-5.3-4.2-10.8-6.9-10.9c-2.3-0.2-5.9,4.7-4.8,14.2
						c0.6,4.6,3.3,11.1,9.8,14.8c6.4,3.7,14.4,3,20,0.3c11.5-6,15.3-13.6,18.6-20.4c2.9-7.1,4.9-14.6,4.8-25.4
						c-1.5,10.7-5.3,17.2-9.5,22.5C199.2,1744.9,193.6,1749.6,185.6,1751.2z"/>
				</g>
				<path class="st1" d="M113.4,2017.1c23.5-0.6,41.7-16.2,43.7-40.4c2-23.4-21.9-50.2-42-32.4c-12.1,10.7,10.4,26.8,15.2,10
					c1.8-9.5,11-5.1,14.5,0.2c4,6,4.6,14.1,3.5,21c-4.6,31.8-47.6,36.8-65.7,13.4c-21.9-28.1-4.2-64.8,17.6-86
					c26.1-25.2,56.2-46,81.3-72.3c28.3-29.7,32.1-70.8,32.6-110.1c-0.6,0-1.3-0.1-2-0.1c-3,25.9-6.9,53.5-18.5,77.2
					c-10.5,21.3-32.6,36.1-51,50c-39.5,29.8-87.9,70.3-88.2,106.6C54.3,1990.7,78.4,2018,113.4,2017.1z"/>
				<path class="st1" d="M34.2,1785.7c5.5-10.3,16.1-16.2,27.4-18.2c9.5-1.5,18.8,2.9,8.1,11.4c-5,5.3,1.6,18.7,8.4,13
					c6.9-6,4.3-20.9-2.1-26.5c-20.1-17.4-51.9,11.6-55.6,30.7c-12.4,64.6,78.8,61.4,116,45.2c47-20.5,81.5-74.1,77.6-125.6
					c-6.3,11.3-6.2,32.7-12.8,46.8c-7.7,16.5-18.8,31.4-32.2,43.8c-28.8,26.6-64.3,36.3-95.8,30.8
					C41.7,1831.6,20.8,1810.6,34.2,1785.7z"/>
			</g>
			<g>
				<path class="st1" d="M24.2,1896.8c9.5-17.3,46.9-25.2,53.7-24.8l0.2,1.6c-13.1,3.6-21.9,12.3-30.1,22.2c-2,2.6-4,5.2-6,7.9
					c-1.9,2.4-3.3,4.3-5,6.2c-3.3,3.7-8.2,12.8-8.8,14.4C27.5,1925.8,14.7,1914.1,24.2,1896.8z"/>
				<path class="st1" d="M26,1863.8l5.4-0.7c2.1-0.4,5.5-0.2,9.1,0.5l9.5,2.8c5.9,1.8,11.2,2.8,17.3,3c6,0.4,15.6-0.8,18.6-0.3
					c2.9,0.5-11.3,6.6-17.7,8.4c-6.3,1.6-14.1,5.6-29.8,4.5c-15.7-1.1-17.3-5.3-20.5-9.9c-3.4-4.7,0-14.5,1.2-13.1
					C20.3,1860.6,24.7,1864.2,26,1863.8z"/>
			</g>
			<g>
				<path class="st0" d="M39.5,2031.5c7.6-9.5,12-19.3,14.3-31.3c1.2,14.6,5.7,35-4.8,47c-6.1,6.9-20.5,10.1-26.1,0.6
					C18.5,2040.6,35.3,2035.9,39.5,2031.5C47.4,2021.4,37.4,2033.6,39.5,2031.5z"/>
				<path class="st0" d="M56.5,2065.4c-5.9-21.5-3.1-44.7-1.3-66.6c2.1,17.7,7.6,35,16.9,50.2c9.8,16,16.7,16.9,32.6,23
					c15.1,5.8-3.8,19.4-16.1,19.2C73,2090.9,60.8,2079.6,56.5,2065.4C52.4,2050.5,58.7,2072.5,56.5,2065.4z"/>
				<path class="st1" d="M60.5,2097.2c0.1-12.5-5.1-24.2-11.6-24.2c-6.5-0.1-11.9,11.5-12,24.1c-0.1,12.5,5.2,16,11.7,16
					C55.1,2113.1,60.5,2109.6,60.5,2097.2z"/>
			</g>
			<g>
				<path class="st0" d="M238.5,2069.1c5.2,4.3,28.6,12,30,18.4c2.3,9.5-19.6,7.8-23.9,6.3c-26.8-9.1-28.5-42.4-27.5-66.1
					C219.3,2043.5,226,2058.7,238.5,2069.1C245,2074.5,231.6,2063.4,238.5,2069.1z"/>
				<path class="st0" d="M249.9,2022.1c12.3,14.6,14.7,12.5,31.6,12.6c7.5,0.1,4.8,9.4,2.6,13.2c-6.3,10.9-20.2,14.4-31.5,9.7
					c-33.1-13.7-36-68.3-35-97.9C220.9,1982.7,235.3,2004.2,249.9,2022.1C254,2026.9,241.4,2011.7,249.9,2022.1z"/>
				<path class="st0" d="M195.3,2068.7c12.7-10.1,19.6-25.3,22-41.1c0.6,23.7-1.6,56.9-28.5,65.7c-4.2,1.4-26.2,2.7-23.8-6.7
					C166.5,2080.3,190,2072.9,195.3,2068.7C202.2,2063.2,188.6,2074,195.3,2068.7z"/>
				<path class="st0" d="M184.6,2021.6c14.9-17.7,29.4-39,33-61.8c0.5,29.7-3,84.2-36.4,97.4c-11.3,4.5-25.2,0.8-31.3-10.2
					c-2.1-3.9-4.6-13.2,2.8-13.2C169.8,2033.8,172.1,2036,184.6,2021.6C193.2,2011.4,180.4,2026.4,184.6,2021.6z"/>
			</g>
			<g>
				<path class="st1" d="M271.5,1861.9c-7.6-6.1-15.3-10.7-24.9-12.7c-1.8-0.4-23.8-3.1-23.9-2.8c-3.9,9.5,26.5,27.7,37.8,39.2
					c11.3,11.5,26.3,47.2,30.3,44.7C294.6,1927.9,290.4,1877,271.5,1861.9z"/>
				<path class="st1" d="M163.4,1861.1c7.7-6,15.4-10.5,25.1-12.3c1.9-0.4,23.9-2.7,24-2.5c3.7,9.5-26.9,27.3-38.4,38.7
					c-11.5,11.4-27.1,46.8-31,44.3C139.2,1926.7,144.2,1875.9,163.4,1861.1z"/>
				<path class="st1" d="M217.7,1808.4c-1.3,10.6-2,21.2-2.8,31.9c-0.5,5.3-0.3,8.3-3.1,13.4c-8.6,7.7-13.7,15.5-17.1,23.3
					c-4.1,8.6-5.6,17.2-5.8,25.9c0,8.6,1.4,17.2,5.3,25.9c3.6,8.7,13.7,21.3,17.5,24.4c3.1,2.5,6.9,2.5,10,0.1
					c3.9-3.1,14.1-15.5,17.9-24.2c4.1-8.6,5.6-17.2,5.7-25.8c0-8.6-1.5-17.3-5.4-25.9c-3.3-7.8-8.2-15.7-16.7-23.6
					c-2.8-5.1-2.5-8.2-2.9-13.4C219.6,1829.7,218.8,1819.1,217.7,1808.4z"/>
			</g>
			<path class="st1" d="M157.1,1801.4c7-6.9,10.7-16.4,7.1-20.1c-3.6-3.7-13.1-0.2-20.2,6.7c-7.1,6.9-6.1,11.9-2.4,15.6
				C145.1,1807.3,150,1808.4,157.1,1801.4z"/>
		</g>
		<g>
			<g>
				<path class="st0" d="M27.6,2258.6c-10.6-2.6-8.8,22-7.2,26.6c10.1,30,47.3,32.1,73.8,31.1c-17.6-2.5-34.7-10.1-46.2-24.1
					C42,2284.8,34.8,2260.1,27.6,2258.6z"/>
				<path class="st0" d="M86.7,2244.3c0-8.3-10.5-5.4-14.8-3c-12.2,6.9-16.1,22.5-11,35.1c15.1,37.1,76.1,40.7,109.2,39.7
					c-25.6-3.8-49.6-20-69.5-36.4C95.2,2275.1,86.8,2263.2,86.7,2244.3z"/>
				<path class="st0" d="M94.2,2316.1c-26.5-0.8-63.7,1.5-73.6,31.5c-1.5,4.7-3.1,29.3,7.4,26.6c7.2-1.6,15.5-27.9,20.2-33.7
					C54.4,2332.7,76.6,2318.7,94.2,2316.1z"/>
			</g>
			<g>
				<path class="st0" d="M344.9,2314c26.5,0.8,63.7-1.4,73.6-31.5c1.5-4.7,3.2-29.3-7.4-26.6c-7.1,1.6-15.5,27.9-20.2,33.7
					C384.7,2297.4,362.5,2311.4,344.9,2314z"/>
				<path class="st0" d="M411.5,2371.6c10.6,2.6,8.8-22,7.2-26.7c-10.1-30-47.2-32.1-73.8-31.1c17.6,2.5,34.6,10.1,46.1,24.1
					C397.1,2345.3,404.3,2370,411.5,2371.6z"/>
				<path class="st0" d="M352.4,2385.8c0,8.3,10.5,5.4,14.8,3c12.3-7,16.1-22.5,11-35.1c-15.1-37.1-76.1-40.4-109.3-39.5
					c25.6,3.8,49.6,19.8,69.6,36.2C343.9,2355,352.3,2366.9,352.4,2385.8z"/>
			</g>
			<g>
				<path class="st0" d="M75.6,2454c-7.5,7.9,14.8,18.5,19.6,19.4c31.1,6.1,51.3-25.3,63.5-48.8c-10.9,14.1-25.9,25.2-43.8,28.2
					C105.6,2454.5,80.5,2448.5,75.6,2454z"/>
				<path class="st0" d="M92.4,2395.6c-7.2-4.1-9.9,6.4-9.9,11.3c0,14.1,11.6,25.2,25.1,26.9c39.7,5.2,72.9-46.1,88.5-75.3
					c-16,20.4-41.9,33.2-66,42.4C123.4,2403.4,108.9,2404.9,92.4,2395.6z"/>
				<path class="st0" d="M158.6,2424.5c-13.9,22.7-30.2,56.1-9,79.6c3.3,3.7,23.9,17.2,26.7,6.7c2.1-7-16.6-27.2-19.3-34.2
					C153.3,2467.4,152.1,2441.1,158.6,2424.5z"/>
			</g>
			<g>
				<path class="st0" d="M280.6,2205.6c13.8-22.7,30.2-56.1,9-79.6c-3.3-3.7-23.9-17.2-26.8-6.7c-2.1,7,16.6,27.2,19.3,34.3
					C285.8,2162.8,287.1,2189,280.6,2205.6z"/>
				<path class="st0" d="M363.5,2176.1c7.5-7.9-14.7-18.5-19.6-19.5c-31.1-6.1-51.3,25.2-63.5,48.8c10.9-14.1,25.9-25.2,43.7-28.3
					C333.6,2175.7,358.6,2181.6,363.5,2176.1z"/>
				<path class="st0" d="M346.8,2234.6c7.3,4.1,10-6.4,9.9-11.4c0-14.1-11.6-25.2-25.1-26.9c-39.7-5.2-72.8,46.2-88.3,75.4
					c16-20.4,41.7-33.3,65.8-42.6C315.8,2226.7,330.3,2225.3,346.8,2234.6z"/>
			</g>
			<g>
				<path class="st0" d="M267.3,2509.3c3,10.5,23.4-3.4,26.6-7.1c20.9-23.8,4-57-10.2-79.4c6.7,16.5,8.7,35,2.4,52
					C282.8,2483.7,265,2502.4,267.3,2509.3z"/>
				<path class="st0" d="M225.2,2465.5c-7.2,4.2,0.6,11.8,4.8,14.3c12.2,7.1,27.6,2.6,35.9-8.1c24.5-31.8-3.1-86.3-20.6-114.4
					c9.6,24.1,7.7,52.9,3.5,78.4C247.6,2442.6,241.6,2455.9,225.2,2465.5z"/>
				<path class="st0" d="M283.5,2422.9c12.6,23.4,33.3,54.3,64.3,47.8c4.9-1,26.9-12,19.3-19.8c-5-5.4-31.9,0.7-39.3-0.5
					C317.9,2448.9,294.7,2436.8,283.5,2422.9z"/>
			</g>
			<g>
				<path class="st0" d="M155.6,2207.2c-12.6-23.3-33.3-54.3-64.2-47.8c-4.8,1-27,12-19.3,19.8c5,5.4,31.9-0.6,39.3,0.5
					C121.2,2181.2,144.5,2193.3,155.6,2207.2z"/>
				<path class="st0" d="M171.9,2120.8c-3.1-10.5-23.4,3.4-26.6,7.2c-20.9,23.8-4,57,10.2,79.4c-6.7-16.5-8.7-35-2.4-52
					C156.4,2146.4,174.1,2127.7,171.9,2120.8z"/>
				<path class="st0" d="M214,2164.6c7.2-4.2-0.6-11.9-4.8-14.3c-12.2-7.1-27.6-2.6-35.9,8.1c-24.5,31.7,3.4,86.1,20.8,114.3
					c-9.6-24.1-7.9-52.8-3.7-78.3C191.5,2187.5,197.6,2174.2,214,2164.6z"/>
			</g>
			<path class="st0" d="M219.2,2337c-12.7,0-23-10.2-23-22.9c0-12.7,10.2-23,22.9-23c12.7,0,23,10.2,23.1,22.9
				C242.1,2326.6,231.8,2337,219.2,2337z"/>
			<path class="st1" d="M403.2,2220.1c-6.7,0-12.1-5.4-12.1-12c0-6.7,5.3-12.1,12-12.1c6.6,0,12,5.4,12.1,12
				C415.2,2214.7,409.9,2220.1,403.2,2220.1z"/>
			<path class="st1" d="M403.8,2427.3c-6.7,0-12.1-5.4-12.1-12c0-6.6,5.4-12,12-12.1c6.6,0,12,5.3,12.1,12
				C415.8,2421.9,410.5,2427.3,403.8,2427.3z"/>
			<path class="st1" d="M49.9,2221.2c-6.7,0-12.1-5.4-12.1-12c0-6.7,5.3-12.1,12-12.1c6.6,0,12.1,5.4,12.1,12
				C62,2215.7,56.5,2221.1,49.9,2221.2z"/>
			<path class="st1" d="M50.5,2428.3c-6.7,0-12.1-5.3-12.1-12c0-6.6,5.4-12,12-12.1c6.6,0,12.1,5.3,12.1,12
				C62.6,2422.9,57.2,2428.3,50.5,2428.3z"/>
			<path class="st1" d="M321.4,2146.4c-4.3,0-7.7-3.4-7.8-7.7c0-4.3,3.4-7.8,7.7-7.8c4.3,0,7.7,3.4,7.8,7.7
				C329.1,2143,325.6,2146.4,321.4,2146.4z"/>
			<path class="st1" d="M322.4,2498.9c-4.3,0-7.7-3.4-7.8-7.7c0-4.3,3.4-7.7,7.7-7.8c4.3,0,7.7,3.4,7.8,7.7
				C330.1,2495.4,326.7,2498.9,322.4,2498.9z"/>
			<path class="st1" d="M117.7,2147c-4.3,0-7.8-3.4-7.8-7.7c0-4.3,3.4-7.8,7.7-7.8c4.3,0,7.7,3.4,7.8,7.7
				C125.4,2143.6,121.9,2147,117.7,2147z"/>
			<path class="st1" d="M118.7,2499.5c-4.3,0-7.8-3.4-7.8-7.7c0-4.3,3.4-7.7,7.7-7.8c4.3,0,7.8,3.4,7.8,7.7
				C126.4,2496,122.9,2499.5,118.7,2499.5z"/>
			<path class="st0" d="M86.1,2387.6c0,8.3-10.5,5.5-14.8,3.1c-12.3-6.9-16.3-22.4-11.2-35c14.9-37.2,75.9-41.1,109-40.4
				c-25.6,4-49.4,20.3-69.3,36.8C94.5,2356.7,86.1,2368.6,86.1,2387.6z"/>
			<path class="st0" d="M352.8,2241.8c0-8.3,10.5-5.5,14.8-3.1c12.3,6.9,16.3,22.4,11.2,35.1c-14.9,37.2-75.8,40.9-109,40.1
				c25.6-4,49.5-20.1,69.3-36.6C344.5,2272.6,352.8,2260.8,352.8,2241.8z"/>
			<path class="st0" d="M90,2236.3c-7.3,4.1-10-6.4-10-11.3c-0.1-14.1,11.4-25.2,24.9-27.1c39.7-5.4,73.3,45.6,88.9,74.8
				c-16.1-20.3-42-33-66.2-42.1C120.9,2228.3,106.5,2226.9,90,2236.3z"/>
			<path class="st0" d="M348,2393.1c7.2-4.1,10,6.4,10,11.3c0.1,14.1-11.4,25.2-24.9,27.1c-39.7,5.4-73-45.7-88.8-74.9
				c16.1,20.3,41.9,33.1,66.1,42.2C317.1,2401.1,331.5,2402.5,348,2393.1z"/>
			<path class="st0" d="M222.9,2163.8c-7.2-4.2,0.5-11.8,4.7-14.3c12.1-7.2,27.6-2.8,35.9,7.9c24.7,31.6-2.6,86.3-19.9,114.5
				c9.4-24.1,7.4-52.9,3.1-78.4C245.4,2186.5,239.3,2173.3,222.9,2163.8z"/>
			<path class="st0" d="M216.5,2467.4c7.2,4.2-0.5,11.9-4.8,14.3c-12.1,7.2-27.5,2.8-35.9-7.9c-24.7-31.6,2.8-86.2,20.1-114.4
				c-9.4,24.1-7.5,52.9-3.2,78.3C194,2444.7,200.1,2457.9,216.5,2467.4z"/>
		</g>
	</g>
	<g>
		<g>
			<g>
				<g>
					<path class="st0" d="M255.4,2877.6c8-1.2,10.8,1,14,6.2c2.9,5.3,4.4,10.7,7,10.8c2.3,0.1,5.8-4.8,4.6-14.3
						c-0.6-4.6-3.5-11-10.1-14.6c-6.5-3.6-14.4-2.8-19.9,0c-11.4,6.2-15.1,13.9-18.3,20.7c-2.8,7.1-4.6,14.7-4.4,25.4
						c1.4-10.7,5-17.3,9.2-22.6C241.8,2884.1,247.3,2879.4,255.4,2877.6z"/>
				</g>
				<path class="st1" d="M323.5,2610.7c-23.5,0.9-41.4,16.8-43.1,41c-1.6,23.5,22.7,49.8,42.5,31.8c11.9-10.9-10.8-26.6-15.4-9.7
					c-1.6,9.5-10.9,5.2-14.5,0c-4.1-5.9-4.8-14-3.9-20.9c4.1-31.9,47-37.5,65.5-14.4c22.3,27.8,5.2,64.8-16.3,86.3
					c-25.7,25.6-55.5,46.9-80.1,73.5c-27.9,30.1-31,71.2-31,110.6c0.7,0,1.3,0.1,2,0.1c2.6-26,6-53.6,17.3-77.5
					c10.2-21.5,32-36.6,50.3-50.8c39-30.4,86.8-71.6,86.5-108C383,2636.2,358.5,2609.3,323.5,2610.7z"/>
				<path class="st1" d="M406.2,2840.9c-5.4,10.3-15.9,16.4-27.1,18.6c-9.5,1.7-18.8-2.7-8.3-11.3c4.9-5.4-1.9-18.7-8.6-12.9
					c-6.8,6.1-4,20.9,2.5,26.4c20.4,17.1,51.8-12.4,55.1-31.6c11.4-64.8-79.7-60.2-116.7-43.4c-46.7,21.2-80.4,75.4-75.6,126.8
					c6.2-11.4,5.7-32.8,12.1-47c7.4-16.7,18.3-31.7,31.5-44.3c28.4-27,63.7-37.2,95.3-32.3C398,2795.1,419.2,2815.8,406.2,2840.9z"
					/>
			</g>
			<g>
				<path class="st1" d="M414.5,2729.6c-9.2,17.4-46.6,25.9-53.4,25.7l-0.2-1.6c13-3.8,21.7-12.6,29.8-22.6c2-2.6,3.9-5.2,5.8-8
					c1.8-2.4,3.2-4.4,4.9-6.3c3.3-3.7,8-12.9,8.6-14.5C410.7,2700.6,423.7,2712.2,414.5,2729.6z"/>
				<path class="st1" d="M413.2,2762.6l-5.4,0.8c-2.1,0.4-5.5,0.2-9.1-0.4l-9.6-2.6c-5.9-1.7-11.3-2.6-17.3-2.7
					c-6-0.3-15.6,1-18.6,0.6c-2.9-0.4,11.2-6.8,17.6-8.7c6.3-1.7,14-5.9,29.7-4.9c15.7,0.9,17.4,5,20.6,9.6c3.5,4.6,0.2,14.5-1,13.1
					C418.9,2765.8,414.5,2762.2,413.2,2762.6z"/>
			</g>
			<g>
				<path class="st0" d="M397.2,2595.2c4.1-4.5,20.8-9.4,16.4-16.6c-5.8-9.4-20.1-6-26.1,1c-10.4,12.2-5.5,32.5-4.1,47.1
					C385.5,2614.7,389.7,2604.8,397.2,2595.2C399.2,2593.1,389.4,2605.3,397.2,2595.2z"/>
				<path class="st0" d="M379.6,2561.6c-4.5-14.1-16.8-25.3-32.5-25.4c-12.3,0-31,13.9-15.8,19.4c16,5.9,22.9,6.7,33,22.5
					c9.5,15.1,15.3,32.3,17.6,50C383.4,2606.1,385.9,2582.9,379.6,2561.6C377.3,2554.4,383.9,2576.4,379.6,2561.6z"/>
				<path class="st1" d="M399.6,2529.6c0.1,12.5-5.1,24.2-11.6,24.2c-6.5,0.1-11.9-11.6-12-24.1c-0.1-12.5,5.2-16,11.7-16
					C394.2,2513.8,399.5,2517.2,399.6,2529.6z"/>
			</g>
			<g>
				<g>
					<path class="st0" d="M203.6,2889.4c4.3,5.3,8,11.8,9.5,22.5c0.1-10.8-1.9-18.3-4.8-25.4c-3.3-6.8-7.1-14.4-18.6-20.4
						c-5.6-2.7-13.5-3.4-20,0.3c-6.5,3.7-9.3,10.2-9.8,14.8c-1.1,9.5,2.5,14.4,4.8,14.2c2.7-0.1,4.1-5.6,6.9-10.9
						c3.2-5.2,5.9-7.5,13.9-6.4C193.6,2879.8,199.2,2884.5,203.6,2889.4z"/>
				</g>
				<path class="st1" d="M113.4,2612.3c23.5,0.6,41.7,16.2,43.7,40.4c2,23.4-21.9,50.2-42,32.4c-12.1-10.7,10.4-26.8,15.2-10
					c1.8,9.5,11,5.1,14.5-0.2c4-6,4.6-14.1,3.5-21c-4.6-31.8-47.6-36.8-65.7-13.4c-21.9,28.1-4.2,64.8,17.6,86
					c26.1,25.2,56.2,46,81.3,72.3c28.3,29.7,32.1,70.8,32.6,110.1c-0.6,0-1.3,0.1-2,0.1c-3-25.9-6.9-53.5-18.5-77.2
					c-10.5-21.3-32.6-36.1-51-50c-39.5-29.8-87.9-70.3-88.2-106.6C54.3,2638.7,78.4,2611.4,113.4,2612.3z"/>
				<path class="st1" d="M34.2,2843.7c5.5,10.3,16.1,16.2,27.4,18.2c9.5,1.5,18.8-2.9,8.1-11.4c-5-5.4,1.6-18.7,8.4-13
					c6.9,6,4.3,20.9-2.1,26.5c-20.1,17.4-51.9-11.6-55.6-30.7c-12.4-64.6,78.8-61.4,116-45.2c47,20.5,81.5,74.1,77.6,125.6
					c-6.3-11.3-6.2-32.7-12.8-46.8c-7.7-16.5-18.8-31.4-32.2-43.8c-28.8-26.6-64.3-36.3-95.8-30.8
					C41.7,2797.8,20.8,2818.8,34.2,2843.7z"/>
			</g>
			<g>
				<path class="st1" d="M24.2,2732.6c9.5,17.3,46.9,25.2,53.7,24.9l0.2-1.6c-13.1-3.6-21.9-12.3-30.1-22.2c-2-2.6-4-5.2-6-7.9
					c-1.9-2.4-3.3-4.4-5-6.2c-3.3-3.7-8.2-12.8-8.8-14.4C27.5,2703.5,14.7,2715.3,24.2,2732.6z"/>
				<path class="st1" d="M26,2765.6l5.4,0.7c2.1,0.4,5.5,0.2,9.1-0.5l9.5-2.8c5.9-1.8,11.2-2.8,17.3-3c6-0.4,15.6,0.8,18.6,0.3
					c2.9-0.5-11.3-6.6-17.7-8.4c-6.3-1.6-14.1-5.6-29.8-4.5c-15.7,1.1-17.3,5.3-20.5,9.9c-3.4,4.7,0,14.5,1.2,13.1
					C20.3,2768.8,24.7,2765.2,26,2765.6z"/>
			</g>
			<g>
				<path class="st0" d="M39.5,2597.9c7.6,9.5,12,19.3,14.3,31.3c1.2-14.6,5.7-35-4.8-47c-6.1-6.9-20.5-10.1-26.1-0.6
					C18.5,2588.8,35.3,2593.5,39.5,2597.9C47.4,2607.9,37.4,2595.8,39.5,2597.9z"/>
				<path class="st0" d="M56.5,2564c-5.9,21.5-3.1,44.7-1.3,66.6c2.1-17.7,7.6-35,16.9-50.2c9.8-16,16.7-16.9,32.6-23
					c15.1-5.8-3.8-19.4-16.1-19.2C73,2538.4,60.8,2549.8,56.5,2564C52.4,2578.9,58.7,2556.9,56.5,2564z"/>
				<path class="st1" d="M60.5,2532.2c0.1,12.5-5.1,24.2-11.6,24.2c-6.5,0.1-11.9-11.5-12-24.1c-0.1-12.5,5.2-16,11.7-16
					C55.1,2516.3,60.5,2519.8,60.5,2532.2z"/>
			</g>
			<g>
				<path class="st0" d="M238.5,2560.3c5.2-4.3,28.6-12,30-18.4c2.3-9.5-19.6-7.8-23.9-6.3c-26.8,9.1-28.5,42.4-27.5,66.1
					C219.3,2585.9,226,2570.6,238.5,2560.3C245,2554.9,231.6,2565.9,238.5,2560.3z"/>
				<path class="st0" d="M249.9,2607.3c12.3-14.6,14.7-12.5,31.6-12.6c7.5-0.1,4.8-9.4,2.6-13.2c-6.3-10.9-20.2-14.4-31.5-9.7
					c-33.1,13.7-36,68.3-35,97.9C220.9,2646.7,235.3,2625.2,249.9,2607.3C254,2602.4,241.4,2617.6,249.9,2607.3z"/>
				<path class="st0" d="M195.3,2560.6c12.7,10.1,19.6,25.3,22,41.1c0.6-23.7-1.6-56.9-28.5-65.7c-4.2-1.4-26.2-2.7-23.8,6.7
					C166.5,2549.1,190,2556.4,195.3,2560.6C202.2,2566.2,188.6,2555.4,195.3,2560.6z"/>
				<path class="st0" d="M184.6,2607.8c14.9,17.7,29.4,39,33,61.9c0.5-29.6-3-84.2-36.4-97.4c-11.3-4.5-25.2-0.8-31.3,10.2
					c-2.1,3.9-4.6,13.2,2.8,13.2C169.8,2595.6,172.1,2593.4,184.6,2607.8C193.2,2618,180.4,2603,184.6,2607.8z"/>
			</g>
			<g>
				<path class="st0" d="M356.2,2966.5c4.3,5.2,12,28.6,18.4,30c9.5,2.3,7.8-19.6,6.3-23.8c-9.1-26.8-42.4-28.5-66.1-27.5
					C330.6,2947.3,345.9,2954,356.2,2966.5C361.6,2973.1,350.6,2959.7,356.2,2966.5z"/>
				<path class="st0" d="M309.2,2978c14.6,12.3,12.4,14.6,12.6,31.6c0.1,7.5,9.4,4.8,13.2,2.7c10.9-6.3,14.3-20.2,9.7-31.5
					c-13.7-33.1-68.2-36.1-97.9-35.1C269.8,2949,291.3,2963.4,309.2,2978C314.1,2982.1,298.9,2969.5,309.2,2978z"/>
				<path class="st0" d="M355.9,2923.4c-10.2,12.6-25.3,19.6-41.1,22c23.7,0.6,57-1.6,65.7-28.5c1.4-4.2,2.7-26.2-6.7-23.8
					C367.4,2894.6,360.1,2918.1,355.9,2923.4C350.3,2930.3,361.2,2916.7,355.9,2923.4z"/>
				<path class="st0" d="M308.7,2912.7c-17.7,14.9-38.9,29.3-61.9,33c29.6,0.6,84.1-3,97.3-36.3c4.5-11.4,0.8-25.2-10.2-31.3
					c-3.8-2.1-13.3-4.6-13.2,2.8C320.9,2897.9,323.1,2900.2,308.7,2912.7C298.5,2921.3,313.5,2908.5,308.7,2912.7z"/>
			</g>
			<g>
				<path class="st0" d="M82.4,2968.6c10.2-12.7,25.3-19.6,41-22c-23.7-0.6-56.9,1.6-65.7,28.5c-1.3,4.2-2.7,26.2,6.7,23.7
					C70.8,2997.4,78.2,2973.9,82.4,2968.6C87.9,2961.7,77.1,2975.3,82.4,2968.6z"/>
				<path class="st0" d="M129.5,2979.3c17.7-14.9,38.9-29.6,61.8-33.2c-29.6-0.6-84.2,3.2-97.3,36.6c-4.5,11.3-0.8,25.2,10.2,31.3
					c3.8,2.1,13.2,4.6,13.2-2.9C117.3,2994.2,115.2,2991.8,129.5,2979.3C139.7,2970.8,124.7,2983.5,129.5,2979.3z"/>
				<path class="st0" d="M82.1,2925.5c-4.3-5.2-12-28.6-18.4-30c-9.5-2.3-7.8,19.7-6.4,23.9c9.2,26.8,42.4,28.5,66.1,27.5
					C107.6,2944.6,92.4,2938,82.1,2925.5C76.6,2918.9,87.7,2932.3,82.1,2925.5z"/>
				<path class="st0" d="M129,2914.1c-14.6-12.3-12.4-14.6-12.6-31.6c-0.1-7.4-9.4-4.8-13.2-2.6c-10.9,6.3-14.4,20.2-9.7,31.5
					c13.7,33.1,68.3,35.9,97.9,34.9C168.4,2942.8,146.9,2928.6,129,2914.1C124.2,2910,139.4,2922.5,129,2914.1z"/>
			</g>
			<g>
				<path class="st1" d="M271.5,2767.5c-7.6,6.1-15.3,10.7-24.9,12.7c-1.8,0.4-23.8,3.1-23.9,2.8c-3.9-9.5,26.5-27.7,37.8-39.2
					c11.3-11.5,26.3-47.2,30.3-44.7C294.6,2701.5,290.4,2752.3,271.5,2767.5z"/>
				<path class="st1" d="M163.4,2768.3c7.7,6,15.4,10.5,25.1,12.3c1.9,0.4,23.9,2.7,24,2.5c3.7-9.5-26.9-27.3-38.4-38.7
					c-11.5-11.4-27.1-46.8-31-44.3C139.2,2702.7,144.2,2753.4,163.4,2768.3z"/>
				<path class="st1" d="M217.7,2821c-1.3-10.6-2-21.2-2.8-31.9c-0.5-5.3-0.3-8.3-3.1-13.4c-8.6-7.7-13.7-15.5-17.1-23.3
					c-4.1-8.6-5.6-17.2-5.8-25.9c0-8.6,1.4-17.2,5.3-25.9c3.6-8.7,13.7-21.3,17.5-24.4c3.1-2.5,6.9-2.5,10-0.1
					c3.9,3.1,14.1,15.5,17.9,24.1c4.1,8.6,5.6,17.2,5.7,25.8c0,8.6-1.5,17.3-5.4,25.9c-3.3,7.9-8.2,15.7-16.7,23.6
					c-2.8,5.1-2.5,8.2-2.9,13.4C219.6,2799.7,218.8,2810.3,217.7,2821z"/>
			</g>
			<path class="st0" d="M239.5,2942.4c0.1,11.4-9,20.6-20.4,20.7c-11.4,0.1-20.6-9-20.7-20.4c-0.1-11.4,9-20.6,20.4-20.7
				C230.1,2921.9,239.4,2931,239.5,2942.4z"/>
			<path class="st1" d="M299.4,2838.6c-6.9,7.1-16.4,10.7-20.1,7.1c-3.7-3.6-0.2-13.1,6.7-20.2c7-7.1,11.9-6.1,15.5-2.4
				C305.2,2826.7,306.3,2831.5,299.4,2838.6z"/>
			<path class="st1" d="M157.1,2828c7,6.9,10.7,16.4,7.1,20.1c-3.6,3.7-13.1,0.2-20.2-6.7c-7.1-6.9-6.1-11.9-2.4-15.6
				C145.1,2822.1,150,2821,157.1,2828z"/>
		</g>
		<g>
			<g>
				<g>
					<path class="st0" d="M237.4,2996.1c-4.2-5.3-7.8-11.9-9.2-22.6c-0.2,10.8,1.6,18.3,4.4,25.4c3.2,6.8,6.9,14.5,18.3,20.7
						c5.5,2.8,13.5,3.6,20,0c6.5-3.6,9.4-10.1,10.1-14.6c1.3-9.5-2.3-14.4-4.6-14.3c-2.7,0-4.2,5.5-7,10.8c-3.3,5.2-6,7.4-14.1,6.2
						C247.3,3005.9,241.8,3001.2,237.4,2996.1z"/>
				</g>
				<path class="st1" d="M323.5,3274.6c-23.5-0.9-41.4-16.8-43.1-41c-1.6-23.5,22.7-49.8,42.5-31.8c11.9,10.9-10.8,26.6-15.4,9.7
					c-1.6-9.5-10.9-5.2-14.5,0c-4.1,5.9-4.8,14-3.9,20.9c4.1,31.9,47,37.5,65.5,14.4c22.3-27.8,5.2-64.8-16.3-86.3
					c-25.7-25.6-55.5-46.9-80.1-73.5c-27.9-30.1-31-71.2-31-110.6c0.7,0,1.3-0.1,2-0.1c2.6,26,6,53.6,17.3,77.5
					c10.2,21.5,32,36.6,50.3,50.8c39,30.4,86.8,71.6,86.5,108C383,3249.1,358.5,3276,323.5,3274.6z"/>
				<path class="st1" d="M406.2,3044.4c-5.4-10.3-15.9-16.4-27.1-18.6c-9.5-1.7-18.8,2.7-8.3,11.3c4.9,5.4-1.9,18.7-8.6,12.9
					c-6.8-6.1-4-20.9,2.5-26.4c20.4-17.1,51.8,12.4,55.1,31.6c11.4,64.8-79.7,60.2-116.7,43.4c-46.7-21.2-80.4-75.4-75.6-126.8
					c6.2,11.4,5.7,32.8,12.1,47c7.4,16.7,18.3,31.7,31.5,44.3c28.4,27,63.7,37.2,95.3,32.3C398,3090.3,419.2,3069.5,406.2,3044.4z"
					/>
			</g>
			<g>
				<path class="st1" d="M414.5,3155.7c-9.2-17.4-46.6-25.9-53.4-25.7l-0.2,1.6c13,3.8,21.7,12.6,29.8,22.6c2,2.6,3.9,5.2,5.8,8
					c1.8,2.4,3.2,4.4,4.9,6.3c3.3,3.7,8,12.9,8.6,14.5C410.7,3184.7,423.7,3173.1,414.5,3155.7z"/>
				<path class="st1" d="M413.2,3122.7l-5.4-0.8c-2.1-0.4-5.5-0.2-9.1,0.4l-9.6,2.6c-5.9,1.7-11.3,2.6-17.3,2.7
					c-6,0.3-15.6-1-18.6-0.6c-2.9,0.4,11.2,6.8,17.6,8.7c6.3,1.7,14,5.9,29.7,4.9c15.7-0.9,17.4-5,20.6-9.6c3.5-4.6,0.2-14.5-1-13.1
					C418.9,3119.5,414.5,3123.1,413.2,3122.7z"/>
			</g>
			<g>
				<path class="st0" d="M397.2,3290.1c4.1,4.5,20.8,9.4,16.4,16.6c-5.8,9.4-20.1,6-26.1-1c-10.4-12.2-5.5-32.5-4.1-47.1
					C385.5,3270.6,389.7,3280.5,397.2,3290.1C399.2,3292.2,389.4,3280,397.2,3290.1z"/>
				<path class="st0" d="M379.6,3323.8c-4.5,14.1-16.8,25.3-32.5,25.4c-12.3,0-31-13.9-15.8-19.4c16-5.9,22.9-6.7,33-22.5
					c9.5-15.1,15.3-32.3,17.6-50C383.4,3279.1,385.9,3302.4,379.6,3323.8C377.3,3330.9,383.9,3308.9,379.6,3323.8z"/>
				<path class="st1" d="M399.6,3355.7c0.1-12.5-5.1-24.2-11.6-24.2c-6.5-0.1-11.9,11.6-12,24.1c-0.1,12.5,5.2,16,11.7,16
					C394.2,3371.5,399.5,3368.1,399.6,3355.7z"/>
			</g>
			<g>
				<g>
					<path class="st0" d="M185.6,3007.1c-8.1,1.1-10.8-1.1-13.9-6.4c-2.8-5.3-4.2-10.8-6.9-10.9c-2.3-0.2-5.9,4.7-4.8,14.2
						c0.6,4.6,3.3,11.1,9.8,14.8c6.4,3.7,14.4,3,20,0.3c11.5-6,15.3-13.6,18.6-20.4c2.9-7.1,4.9-14.6,4.8-25.4
						c-1.5,10.7-5.3,17.2-9.5,22.5C199.2,3000.8,193.6,3005.5,185.6,3007.1z"/>
				</g>
				<path class="st1" d="M113.4,3273c23.5-0.6,41.7-16.2,43.7-40.4c2-23.4-21.9-50.2-42-32.4c-12.1,10.7,10.4,26.8,15.2,10
					c1.8-9.5,11-5.1,14.5,0.2c4,6,4.6,14.1,3.5,21c-4.6,31.8-47.6,36.8-65.7,13.4c-21.9-28.1-4.2-64.8,17.6-86
					c26.1-25.2,56.2-46,81.3-72.3c28.3-29.7,32.1-70.8,32.6-110.1c-0.6,0-1.3-0.1-2-0.1c-3,25.9-6.9,53.5-18.5,77.2
					c-10.5,21.3-32.6,36.1-51,50c-39.5,29.8-87.9,70.3-88.2,106.6C54.3,3246.6,78.4,3273.9,113.4,3273z"/>
				<path class="st1" d="M34.2,3041.6c5.5-10.3,16.1-16.2,27.4-18.2c9.5-1.5,18.8,2.9,8.1,11.4c-5,5.4,1.6,18.7,8.4,13
					c6.9-6,4.3-20.9-2.1-26.5c-20.1-17.4-51.9,11.6-55.6,30.7c-12.4,64.6,78.8,61.4,116,45.2c47-20.5,81.5-74.1,77.6-125.6
					c-6.3,11.3-6.2,32.7-12.8,46.8c-7.7,16.5-18.8,31.4-32.2,43.8c-28.8,26.6-64.3,36.3-95.8,30.8
					C41.7,3087.5,20.8,3066.5,34.2,3041.6z"/>
			</g>
			<g>
				<path class="st1" d="M24.2,3152.7c9.5-17.3,46.9-25.2,53.7-24.9l0.2,1.6c-13.1,3.6-21.9,12.3-30.1,22.2c-2,2.6-4,5.2-6,7.9
					c-1.9,2.4-3.3,4.4-5,6.2c-3.3,3.7-8.2,12.8-8.8,14.4C27.5,3181.8,14.7,3170,24.2,3152.7z"/>
				<path class="st1" d="M26,3119.8l5.4-0.7c2.1-0.4,5.5-0.2,9.1,0.5l9.5,2.8c5.9,1.8,11.2,2.8,17.3,3c6,0.4,15.6-0.8,18.6-0.3
					c2.9,0.5-11.3,6.6-17.7,8.4c-6.3,1.6-14.1,5.6-29.8,4.5c-15.7-1.1-17.3-5.3-20.5-9.9c-3.4-4.7,0-14.5,1.2-13.1
					C20.3,3116.5,24.7,3120.1,26,3119.8z"/>
			</g>
			<g>
				<path class="st0" d="M39.5,3287.4c7.6-9.5,12-19.3,14.3-31.3c1.2,14.6,5.7,35-4.8,47c-6.1,6.9-20.5,10.1-26.1,0.6
					C18.5,3296.5,35.3,3291.8,39.5,3287.4C47.4,3277.4,37.4,3289.5,39.5,3287.4z"/>
				<path class="st0" d="M56.5,3321.3c-5.9-21.5-3.1-44.7-1.3-66.6c2.1,17.7,7.6,35,16.9,50.2c9.8,16,16.7,16.9,32.6,23
					c15.1,5.8-3.8,19.4-16.1,19.2C73,3346.9,60.8,3335.5,56.5,3321.3C52.4,3306.4,58.7,3328.4,56.5,3321.3z"/>
				<path class="st1" d="M60.5,3353.1c0.1-12.5-5.1-24.2-11.6-24.2c-6.5-0.1-11.9,11.5-12,24.1c-0.1,12.5,5.2,16,11.7,16
					C55.1,3369,60.5,3365.6,60.5,3353.1z"/>
			</g>
			<g>
				<path class="st0" d="M238.5,3325c5.2,4.3,28.6,12,30,18.4c2.3,9.5-19.6,7.8-23.9,6.3c-26.8-9.1-28.5-42.4-27.5-66.1
					C219.3,3299.4,226,3314.6,238.5,3325C245,3330.4,231.6,3319.4,238.5,3325z"/>
				<path class="st0" d="M249.9,3278c12.3,14.6,14.7,12.5,31.6,12.6c7.5,0.1,4.8,9.4,2.6,13.2c-6.3,10.9-20.2,14.4-31.5,9.7
					c-33.1-13.7-36-68.3-35-97.9C220.9,3238.6,235.3,3260.1,249.9,3278C254,3282.9,241.4,3267.6,249.9,3278z"/>
				<path class="st0" d="M195.3,3324.6c12.7-10.1,19.6-25.3,22-41.1c0.6,23.7-1.6,56.9-28.5,65.7c-4.2,1.4-26.2,2.7-23.8-6.7
					C166.5,3336.2,190,3328.9,195.3,3324.6C202.2,3319.1,188.6,3329.9,195.3,3324.6z"/>
				<path class="st0" d="M184.6,3277.5c14.9-17.7,29.4-39,33-61.9c0.5,29.6-3,84.2-36.4,97.4c-11.3,4.5-25.2,0.8-31.3-10.2
					c-2.1-3.9-4.6-13.2,2.8-13.2C169.8,3289.7,172.1,3291.9,184.6,3277.5C193.2,3267.3,180.4,3282.3,184.6,3277.5z"/>
			</g>
			<g>
				<path class="st1" d="M271.5,3117.8c-7.6-6.1-15.3-10.7-24.9-12.7c-1.8-0.4-23.8-3.1-23.9-2.8c-3.9,9.5,26.5,27.7,37.8,39.2
					c11.3,11.5,26.3,47.2,30.3,44.7C294.6,3183.8,290.4,3133,271.5,3117.8z"/>
				<path class="st1" d="M163.4,3117c7.7-6,15.4-10.5,25.1-12.3c1.9-0.4,23.9-2.7,24-2.5c3.7,9.5-26.9,27.3-38.4,38.7
					c-11.5,11.4-27.1,46.8-31,44.3C139.2,3182.6,144.2,3131.8,163.4,3117z"/>
				<path class="st1" d="M217.7,3064.3c-1.3,10.6-2,21.2-2.8,31.9c-0.5,5.3-0.3,8.3-3.1,13.4c-8.6,7.7-13.7,15.5-17.1,23.3
					c-4.1,8.6-5.6,17.2-5.8,25.9c0,8.6,1.4,17.2,5.3,25.9c3.6,8.7,13.7,21.3,17.5,24.4c3.1,2.5,6.9,2.5,10,0.1
					c3.9-3.1,14.1-15.5,17.9-24.1c4.1-8.6,5.6-17.2,5.7-25.8c0-8.6-1.5-17.3-5.4-25.9c-3.3-7.9-8.2-15.7-16.7-23.6
					c-2.8-5.1-2.5-8.2-2.9-13.4C219.6,3085.6,218.8,3075,217.7,3064.3z"/>
			</g>
			<path class="st1" d="M157.1,3057.3c7-6.9,10.7-16.4,7.1-20.1c-3.6-3.7-13.1-0.2-20.2,6.7c-7.1,6.9-6.1,11.9-2.4,15.6
				C145.1,3063.2,150,3064.3,157.1,3057.3z"/>
		</g>
	</g>
</g>
<g>
	<g>
		<g>
			<g>
				<path class="st0" d="M27.6,3517.1c-10.6-2.6-8.8,22-7.2,26.6c10.1,30,47.3,32.1,73.8,31.1c-17.6-2.5-34.7-10.1-46.2-24.1
					C42,3543.3,34.8,3518.6,27.6,3517.1z"/>
				<path class="st0" d="M86.7,3502.7c0-8.3-10.5-5.4-14.8-3c-12.2,6.9-16.1,22.5-11,35.1c15.1,37.1,76.1,40.7,109.2,39.7
					c-25.6-3.8-49.6-20-69.5-36.4C95.2,3533.5,86.8,3521.7,86.7,3502.7z"/>
				<path class="st0" d="M94.2,3574.6c-26.5-0.8-63.7,1.5-73.6,31.5c-1.5,4.7-3.1,29.3,7.4,26.6c7.2-1.6,15.5-27.9,20.2-33.7
					C54.4,3591.2,76.6,3577.2,94.2,3574.6z"/>
			</g>
			<g>
				<path class="st0" d="M344.9,3572.5c26.5,0.8,63.7-1.4,73.6-31.5c1.5-4.7,3.2-29.3-7.4-26.6c-7.1,1.6-15.5,27.9-20.2,33.7
					C384.7,3555.8,362.5,3569.9,344.9,3572.5z"/>
				<path class="st0" d="M411.5,3630c10.6,2.6,8.8-22,7.2-26.7c-10.1-30-47.2-32.1-73.8-31.1c17.6,2.5,34.6,10.1,46.1,24.1
					C397.1,3603.7,404.3,3628.5,411.5,3630z"/>
				<path class="st0" d="M352.4,3644.3c0,8.3,10.5,5.4,14.8,3c12.3-7,16.1-22.5,11-35.1c-15.1-37.1-76.1-40.4-109.3-39.5
					c25.6,3.8,49.6,19.8,69.6,36.2C343.9,3613.5,352.3,3625.3,352.4,3644.3z"/>
			</g>
			<g>
				<path class="st0" d="M75.6,3712.5c-7.5,7.9,14.8,18.5,19.6,19.4c31.1,6.1,51.3-25.3,63.5-48.8c-10.9,14.1-25.9,25.2-43.8,28.2
					C105.6,3712.9,80.5,3707,75.6,3712.5z"/>
				<path class="st0" d="M92.4,3654.1c-7.2-4.1-9.9,6.4-9.9,11.3c0,14.1,11.6,25.2,25.1,26.9c39.7,5.2,72.9-46.1,88.5-75.3
					c-16,20.4-41.9,33.2-66,42.4C123.4,3661.9,108.9,3663.3,92.4,3654.1z"/>
				<path class="st0" d="M158.6,3683c-13.9,22.7-30.2,56.1-9,79.6c3.3,3.7,23.9,17.2,26.7,6.7c2.1-7-16.6-27.2-19.3-34.2
					C153.3,3725.9,152.1,3699.6,158.6,3683z"/>
			</g>
			<g>
				<path class="st0" d="M280.6,3464.1c13.8-22.7,30.2-56.1,9-79.6c-3.3-3.7-23.9-17.2-26.8-6.7c-2.1,7,16.6,27.2,19.3,34.3
					C285.8,3421.2,287.1,3447.5,280.6,3464.1z"/>
				<path class="st0" d="M363.5,3434.6c7.5-7.9-14.7-18.5-19.6-19.5c-31.1-6.1-51.3,25.2-63.5,48.8c10.9-14.1,25.9-25.2,43.7-28.3
					C333.6,3434.2,358.6,3440.1,363.5,3434.6z"/>
				<path class="st0" d="M346.8,3493.1c7.3,4.1,10-6.4,9.9-11.4c0-14.1-11.6-25.2-25.1-26.9c-39.7-5.2-72.8,46.2-88.3,75.4
					c16-20.4,41.7-33.3,65.8-42.6C315.8,3485.2,330.3,3483.8,346.8,3493.1z"/>
			</g>
			<g>
				<path class="st0" d="M267.3,3767.8c3,10.5,23.4-3.4,26.6-7.2c20.9-23.8,4-57-10.2-79.4c6.7,16.5,8.7,35,2.4,52
					C282.8,3742.2,265,3760.9,267.3,3767.8z"/>
				<path class="st0" d="M225.2,3723.9c-7.2,4.2,0.6,11.8,4.8,14.3c12.2,7.1,27.6,2.6,35.9-8.1c24.5-31.8-3.1-86.3-20.6-114.4
					c9.6,24.1,7.7,52.9,3.5,78.4C247.6,3701.1,241.6,3714.3,225.2,3723.9z"/>
				<path class="st0" d="M283.5,3681.4c12.6,23.4,33.3,54.3,64.3,47.8c4.9-1,26.9-12,19.3-19.8c-5-5.4-31.9,0.7-39.3-0.5
					C317.9,3707.4,294.7,3695.3,283.5,3681.4z"/>
			</g>
			<g>
				<path class="st0" d="M155.6,3465.7c-12.6-23.3-33.3-54.3-64.2-47.8c-4.8,1-27,12-19.3,19.8c5,5.4,31.9-0.6,39.3,0.5
					C121.2,3439.7,144.5,3451.8,155.6,3465.7z"/>
				<path class="st0" d="M171.9,3379.3c-3.1-10.5-23.4,3.4-26.6,7.1c-20.9,23.8-4,57,10.2,79.4c-6.7-16.5-8.7-35-2.4-52
					C156.4,3404.9,174.1,3386.2,171.9,3379.3z"/>
				<path class="st0" d="M214,3423.1c7.2-4.2-0.6-11.8-4.8-14.3c-12.2-7.1-27.6-2.6-35.9,8.2c-24.5,31.7,3.4,86.1,20.8,114.3
					c-9.6-24.1-7.9-52.8-3.7-78.3C191.5,3446,197.6,3432.7,214,3423.1z"/>
			</g>
			<path class="st0" d="M219.2,3595.5c-12.7,0-23-10.2-23-22.9c0-12.7,10.2-23,22.9-23c12.7,0,23,10.2,23.1,22.9
				C242.1,3585.1,231.8,3595.5,219.2,3595.5z"/>
			<path class="st1" d="M403.2,3478.6c-6.7,0-12.1-5.4-12.1-12c0-6.7,5.3-12.1,12-12.1c6.6,0,12,5.4,12.1,12
				C415.2,3473.2,409.9,3478.6,403.2,3478.6z"/>
			<path class="st1" d="M403.8,3685.8c-6.7,0-12.1-5.4-12.1-12c0-6.6,5.4-12,12-12.1c6.6,0,12,5.3,12.1,12
				C415.8,3680.3,410.5,3685.8,403.8,3685.8z"/>
			<path class="st1" d="M49.9,3479.7c-6.7,0-12.1-5.3-12.1-12c0-6.7,5.3-12.1,12-12.1c6.6,0,12.1,5.4,12.1,12
				C62,3474.2,56.5,3479.6,49.9,3479.7z"/>
			<path class="st1" d="M50.5,3686.8c-6.7,0-12.1-5.3-12.1-12c0-6.7,5.4-12,12-12.1c6.6,0,12.1,5.3,12.1,12
				C62.6,3681.4,57.2,3686.8,50.5,3686.8z"/>
			<path class="st1" d="M321.4,3404.9c-4.3,0-7.7-3.4-7.8-7.7c0-4.3,3.4-7.8,7.7-7.8c4.3,0,7.7,3.4,7.8,7.7
				C329.1,3401.5,325.6,3404.9,321.4,3404.9z"/>
			<path class="st1" d="M322.4,3757.4c-4.3,0-7.7-3.4-7.8-7.7c0-4.3,3.4-7.7,7.7-7.8c4.3,0,7.7,3.4,7.8,7.7
				C330.1,3753.9,326.7,3757.4,322.4,3757.4z"/>
			<path class="st1" d="M117.7,3405.5c-4.3,0-7.8-3.4-7.8-7.7c0-4.3,3.4-7.8,7.7-7.8c4.3,0,7.7,3.4,7.8,7.7
				C125.4,3402,121.9,3405.5,117.7,3405.5z"/>
			<path class="st1" d="M118.7,3758c-4.3,0-7.8-3.4-7.8-7.7c0-4.3,3.4-7.7,7.7-7.8c4.3,0,7.8,3.4,7.8,7.7
				C126.4,3754.5,122.9,3758,118.7,3758z"/>
			<path class="st0" d="M86.1,3646.1c0,8.3-10.5,5.5-14.8,3.1c-12.3-6.9-16.3-22.4-11.2-35c14.9-37.2,75.9-41.1,109-40.4
				c-25.6,4-49.4,20.3-69.3,36.8C94.5,3615.2,86.1,3627.1,86.1,3646.1z"/>
			<path class="st0" d="M352.8,3500.2c0-8.3,10.5-5.5,14.8-3.1c12.3,6.9,16.3,22.4,11.2,35.1c-14.9,37.2-75.8,40.9-109,40.1
				c25.6-4,49.5-20.1,69.3-36.6C344.5,3531.1,352.8,3519.2,352.8,3500.2z"/>
			<path class="st0" d="M90,3494.8c-7.3,4.1-10-6.4-10-11.3c-0.1-14.1,11.4-25.2,24.9-27.1c39.7-5.4,73.3,45.6,88.9,74.8
				c-16.1-20.3-42-33-66.2-42.1C120.9,3486.7,106.5,3485.3,90,3494.8z"/>
			<path class="st0" d="M348,3651.6c7.2-4.1,10,6.4,10,11.3c0.1,14.1-11.4,25.2-24.9,27.1c-39.7,5.4-73-45.7-88.8-74.9
				c16.1,20.3,41.9,33.1,66.1,42.2C317.1,3659.6,331.5,3661,348,3651.6z"/>
			<path class="st0" d="M222.9,3422.3c-7.2-4.2,0.5-11.8,4.7-14.3c12.1-7.2,27.6-2.8,35.9,7.9c24.7,31.6-2.6,86.3-19.9,114.5
				c9.4-24.1,7.4-52.9,3.1-78.4C245.4,3445,239.3,3431.8,222.9,3422.3z"/>
			<path class="st0" d="M216.5,3725.9c7.2,4.2-0.5,11.9-4.8,14.3c-12.1,7.2-27.5,2.8-35.9-7.9c-24.7-31.6,2.8-86.2,20.1-114.4
				c-9.4,24.1-7.5,52.9-3.2,78.3C194,3703.1,200.1,3716.4,216.5,3725.9z"/>
		</g>
	</g>
	<g>
		<g>
			<g>
				<g>
					<path class="st0" d="M255.4,4138.1c8-1.2,10.8,1,14,6.2c2.9,5.3,4.4,10.7,7,10.8c2.3,0.1,5.8-4.8,4.6-14.3
						c-0.6-4.6-3.5-11-10.1-14.6c-6.5-3.6-14.4-2.8-19.9,0c-11.4,6.2-15.1,13.9-18.3,20.7c-2.8,7.1-4.6,14.7-4.4,25.4
						c1.4-10.7,5-17.3,9.2-22.6C241.8,4144.6,247.3,4139.8,255.4,4138.1z"/>
				</g>
				<path class="st1" d="M323.5,3871.1c-23.5,0.9-41.4,16.8-43.1,41c-1.6,23.5,22.7,49.8,42.5,31.8c11.9-10.8-10.8-26.6-15.4-9.7
					c-1.6,9.5-10.9,5.2-14.5,0c-4.1-5.9-4.8-14-3.9-20.9c4.1-31.9,47-37.5,65.5-14.4c22.3,27.8,5.2,64.8-16.3,86.3
					c-25.7,25.6-55.5,46.9-80.1,73.5c-27.9,30.1-31,71.2-31,110.6c0.7,0,1.3,0,2,0.1c2.6-26,6-53.6,17.3-77.5
					c10.2-21.5,32-36.6,50.3-50.8c39-30.4,86.8-71.6,86.5-108C383,3896.7,358.5,3869.8,323.5,3871.1z"/>
				<path class="st1" d="M406.2,4101.3c-5.4,10.3-15.9,16.4-27.1,18.6c-9.5,1.7-18.8-2.7-8.3-11.3c4.9-5.4-1.9-18.7-8.6-12.9
					c-6.8,6.1-4,20.9,2.5,26.4c20.4,17.1,51.8-12.4,55.1-31.6c11.4-64.8-79.7-60.2-116.7-43.4c-46.7,21.2-80.4,75.4-75.6,126.8
					c6.2-11.4,5.7-32.8,12.1-47c7.4-16.7,18.3-31.7,31.5-44.3c28.4-27,63.7-37.2,95.3-32.3C398,4055.5,419.2,4076.2,406.2,4101.3z"
					/>
			</g>
			<g>
				<path class="st1" d="M414.5,3990.1c-9.2,17.4-46.6,25.9-53.4,25.7l-0.2-1.6c13-3.8,21.7-12.6,29.8-22.6c2-2.6,3.9-5.2,5.8-8
					c1.8-2.4,3.2-4.4,4.9-6.3c3.3-3.7,8-12.9,8.6-14.5C410.7,3961.1,423.7,3972.7,414.5,3990.1z"/>
				<path class="st1" d="M413.2,4023.1l-5.4,0.8c-2.1,0.4-5.5,0.2-9.1-0.4l-9.6-2.6c-5.9-1.7-11.3-2.6-17.3-2.7
					c-6-0.3-15.6,1-18.6,0.6c-2.9-0.4,11.2-6.8,17.6-8.7c6.3-1.7,14-5.9,29.7-4.9c15.7,0.9,17.4,5,20.6,9.6c3.5,4.6,0.2,14.5-1,13.1
					C418.9,4026.2,414.5,4022.7,413.2,4023.1z"/>
			</g>
			<g>
				<path class="st0" d="M397.2,3855.7c4.1-4.5,20.8-9.4,16.4-16.6c-5.8-9.4-20.1-6-26.1,1c-10.4,12.2-5.5,32.5-4.1,47.1
					C385.5,3875.1,389.7,3865.3,397.2,3855.7C399.2,3853.5,389.4,3865.8,397.2,3855.7z"/>
				<path class="st0" d="M379.6,3822c-4.5-14.1-16.8-25.3-32.5-25.4c-12.3,0-31,13.9-15.8,19.4c16,5.9,22.9,6.7,33,22.5
					c9.5,15.1,15.3,32.3,17.6,50C383.4,3866.6,385.9,3843.4,379.6,3822C377.3,3814.9,383.9,3836.9,379.6,3822z"/>
				<path class="st1" d="M399.6,3790.1c0.1,12.5-5.1,24.2-11.6,24.2c-6.5,0.1-11.9-11.6-12-24.1c-0.1-12.5,5.2-16,11.7-16
					C394.2,3774.2,399.5,3777.6,399.6,3790.1z"/>
			</g>
			<g>
				<g>
					<path class="st0" d="M203.6,4149.9c4.3,5.3,8,11.8,9.5,22.5c0.1-10.8-1.9-18.3-4.8-25.4c-3.3-6.8-7.1-14.3-18.6-20.4
						c-5.6-2.7-13.5-3.5-20,0.3c-6.5,3.7-9.3,10.2-9.8,14.8c-1.1,9.5,2.5,14.4,4.8,14.2c2.7,0,4.1-5.5,6.9-10.9
						c3.2-5.2,5.9-7.5,13.9-6.4C193.6,4140.2,199.2,4144.9,203.6,4149.9z"/>
				</g>
				<path class="st1" d="M113.4,3872.7c23.5,0.6,41.7,16.2,43.7,40.4c2,23.4-21.9,50.2-42,32.4c-12.1-10.7,10.4-26.8,15.2-10
					c1.8,9.5,11,5.1,14.5-0.2c4-6,4.6-14.1,3.5-21c-4.6-31.8-47.6-36.8-65.7-13.4c-21.9,28.1-4.2,64.8,17.6,86
					c26.1,25.2,56.2,46,81.3,72.3c28.3,29.7,32.1,70.8,32.6,110.1c-0.6,0-1.3,0.1-2,0.1c-3-25.9-6.9-53.5-18.5-77.2
					c-10.5-21.3-32.6-36.1-51-50c-39.5-29.8-87.9-70.3-88.2-106.6C54.3,3899.2,78.4,3871.9,113.4,3872.7z"/>
				<path class="st1" d="M34.2,4104.1c5.5,10.3,16.1,16.2,27.4,18.2c9.5,1.5,18.8-2.9,8.1-11.4c-5-5.4,1.6-18.7,8.4-13
					c6.9,6,4.3,20.9-2.1,26.5c-20.1,17.4-51.9-11.6-55.6-30.7c-12.4-64.6,78.8-61.4,116-45.2c47,20.5,81.5,74.1,77.6,125.6
					c-6.3-11.3-6.2-32.7-12.8-46.8c-7.7-16.5-18.8-31.4-32.2-43.8c-28.8-26.6-64.3-36.3-95.8-30.8
					C41.7,4058.2,20.8,4079.3,34.2,4104.1z"/>
			</g>
			<g>
				<path class="st1" d="M24.2,3993c9.5,17.3,46.9,25.2,53.7,24.8l0.2-1.6c-13.1-3.6-21.9-12.3-30.1-22.2c-2-2.6-4-5.2-6-7.9
					c-1.9-2.4-3.3-4.3-5-6.2c-3.3-3.7-8.2-12.8-8.8-14.4C27.5,3964,14.7,3975.8,24.2,3993z"/>
				<path class="st1" d="M26,4026l5.4,0.7c2.1,0.4,5.5,0.2,9.1-0.5l9.5-2.8c5.9-1.8,11.2-2.8,17.3-3c6-0.4,15.6,0.8,18.6,0.3
					c2.9-0.5-11.3-6.6-17.7-8.4c-6.3-1.6-14.1-5.6-29.8-4.5c-15.7,1.1-17.3,5.3-20.5,9.9c-3.4,4.7,0,14.5,1.2,13.1
					C20.3,4029.3,24.7,4025.6,26,4026z"/>
			</g>
			<g>
				<path class="st0" d="M39.5,3858.4c7.6,9.5,12,19.3,14.3,31.3c1.2-14.6,5.7-35-4.8-47c-6.1-6.9-20.5-10.1-26.1-0.6
					C18.5,3849.3,35.3,3854,39.5,3858.4C47.4,3868.4,37.4,3856.3,39.5,3858.4z"/>
				<path class="st0" d="M56.5,3824.5c-5.9,21.5-3.1,44.7-1.3,66.6c2.1-17.7,7.6-35,16.9-50.2c9.8-16,16.7-16.9,32.6-23
					c15.1-5.8-3.8-19.4-16.1-19.2C73,3798.9,60.8,3810.3,56.5,3824.5C52.4,3839.4,58.7,3817.3,56.5,3824.5z"/>
				<path class="st1" d="M60.5,3792.7c0.1,12.5-5.1,24.2-11.6,24.2c-6.5,0.1-11.9-11.5-12-24.1c-0.1-12.5,5.2-16,11.7-16
					C55.1,3776.8,60.5,3780.2,60.5,3792.7z"/>
			</g>
			<g>
				<path class="st0" d="M238.5,3820.8c5.2-4.3,28.6-12,30-18.4c2.3-9.5-19.6-7.8-23.9-6.3c-26.8,9.1-28.5,42.3-27.5,66.1
					C219.3,3846.4,226,3831.1,238.5,3820.8C245,3815.4,231.6,3826.4,238.5,3820.8z"/>
				<path class="st0" d="M249.9,3867.8c12.3-14.6,14.7-12.5,31.6-12.6c7.5-0.1,4.8-9.4,2.6-13.2c-6.3-10.9-20.2-14.4-31.5-9.7
					c-33.1,13.7-36,68.3-35,97.9C220.9,3907.2,235.3,3885.7,249.9,3867.8C254,3862.9,241.4,3878.1,249.9,3867.8z"/>
				<path class="st0" d="M195.3,3821.1c12.7,10.1,19.6,25.3,22,41.1c0.6-23.7-1.6-56.9-28.5-65.7c-4.2-1.4-26.2-2.7-23.8,6.7
					C166.5,3809.5,190,3816.9,195.3,3821.1C202.2,3826.6,188.6,3815.8,195.3,3821.1z"/>
				<path class="st0" d="M184.6,3868.3c14.9,17.7,29.4,39,33,61.8c0.5-29.6-3-84.2-36.4-97.3c-11.3-4.5-25.2-0.8-31.3,10.2
					c-2.1,3.9-4.6,13.2,2.8,13.2C169.8,3856,172.1,3853.9,184.6,3868.3C193.2,3878.5,180.4,3863.5,184.6,3868.3z"/>
			</g>
			<g>
				<path class="st0" d="M356.2,4227c4.3,5.2,12,28.7,18.4,30c9.5,2.3,7.8-19.6,6.3-23.8c-9.1-26.8-42.4-28.5-66.1-27.5
					C330.6,4207.8,345.9,4214.5,356.2,4227C361.6,4233.6,350.6,4220.2,356.2,4227z"/>
				<path class="st0" d="M309.2,4238.4c14.6,12.3,12.4,14.6,12.6,31.6c0.1,7.5,9.4,4.8,13.2,2.7c10.9-6.3,14.3-20.2,9.7-31.5
					c-13.7-33.2-68.2-36.1-97.9-35.1C269.8,4209.5,291.3,4223.9,309.2,4238.4C314.1,4242.5,298.9,4230,309.2,4238.4z"/>
				<path class="st0" d="M355.9,4183.8c-10.2,12.6-25.3,19.6-41.1,22c23.7,0.6,57-1.6,65.7-28.5c1.4-4.2,2.7-26.2-6.7-23.8
					C367.4,4155,360.1,4178.6,355.9,4183.8C350.3,4190.8,361.2,4177.2,355.9,4183.8z"/>
				<path class="st0" d="M308.7,4173.2c-17.7,14.9-38.9,29.3-61.9,33c29.6,0.5,84.1-3,97.3-36.3c4.5-11.4,0.8-25.2-10.2-31.3
					c-3.8-2.1-13.3-4.6-13.2,2.8C320.9,4158.3,323.1,4160.7,308.7,4173.2C298.5,4181.7,313.5,4169,308.7,4173.2z"/>
			</g>
			<g>
				<path class="st0" d="M82.4,4229.1c10.2-12.7,25.3-19.6,41-22c-23.7-0.6-56.9,1.6-65.7,28.5c-1.3,4.2-2.7,26.2,6.7,23.7
					C70.8,4257.9,78.2,4234.3,82.4,4229.1C87.9,4222.2,77.1,4235.7,82.4,4229.1z"/>
				<path class="st0" d="M129.5,4239.8c17.7-14.9,38.9-29.5,61.8-33.2c-29.6-0.6-84.2,3.2-97.3,36.6c-4.5,11.3-0.8,25.2,10.2,31.3
					c3.8,2.1,13.2,4.6,13.2-2.9C117.3,4254.6,115.2,4252.3,129.5,4239.8C139.7,4231.2,124.7,4243.9,129.5,4239.8z"/>
				<path class="st0" d="M82.1,4185.9c-4.3-5.2-12-28.6-18.4-30c-9.5-2.3-7.8,19.7-6.4,23.9c9.2,26.8,42.4,28.5,66.1,27.5
					C107.6,4205.1,92.4,4198.4,82.1,4185.9C76.6,4179.4,87.7,4192.8,82.1,4185.9z"/>
				<path class="st0" d="M129,4174.5c-14.6-12.3-12.4-14.6-12.6-31.6c-0.1-7.4-9.4-4.8-13.2-2.6c-10.9,6.3-14.4,20.2-9.7,31.5
					c13.7,33.2,68.3,35.9,97.9,34.9C168.4,4203.3,146.9,4189.1,129,4174.5C124.2,4170.4,139.4,4182.9,129,4174.5z"/>
			</g>
			<g>
				<path class="st1" d="M271.5,4028c-7.6,6.1-15.3,10.7-24.9,12.7c-1.8,0.4-23.8,3.1-23.9,2.8c-3.9-9.5,26.5-27.7,37.8-39.2
					c11.3-11.5,26.3-47.2,30.3-44.7C294.6,3962,290.4,4012.8,271.5,4028z"/>
				<path class="st1" d="M163.4,4028.8c7.7,6,15.4,10.5,25.1,12.3c1.9,0.4,23.9,2.7,24,2.5c3.7-9.5-26.9-27.3-38.4-38.7
					c-11.5-11.4-27.1-46.8-31-44.3C139.2,3963.2,144.2,4013.9,163.4,4028.8z"/>
				<path class="st1" d="M217.7,4081.4c-1.3-10.6-2-21.2-2.8-31.9c-0.5-5.3-0.3-8.3-3.1-13.4c-8.6-7.7-13.7-15.5-17.1-23.3
					c-4.1-8.6-5.6-17.2-5.8-25.9c0-8.6,1.4-17.2,5.3-25.9c3.6-8.7,13.7-21.3,17.5-24.4c3.1-2.5,6.9-2.5,10-0.1
					c3.9,3.1,14.1,15.5,17.9,24.2c4.1,8.6,5.6,17.2,5.7,25.8c0,8.6-1.5,17.3-5.4,25.9c-3.3,7.8-8.2,15.7-16.7,23.6
					c-2.8,5.1-2.5,8.2-2.9,13.4C219.6,4060.1,218.8,4070.8,217.7,4081.4z"/>
			</g>
			<path class="st0" d="M239.5,4202.9c0.1,11.3-9,20.6-20.4,20.7c-11.4,0.1-20.6-9-20.7-20.4c-0.1-11.4,9-20.6,20.4-20.7
				C230.1,4182.4,239.4,4191.5,239.5,4202.9z"/>
			<path class="st1" d="M299.4,4099.1c-6.9,7.1-16.4,10.7-20.1,7.1c-3.7-3.6-0.2-13.1,6.7-20.2c7-7.1,11.9-6.1,15.5-2.4
				C305.2,4087.1,306.3,4092,299.4,4099.1z"/>
			<path class="st1" d="M157.1,4088.4c7,6.9,10.7,16.4,7.1,20.1c-3.6,3.7-13.1,0.2-20.2-6.7c-7.1-6.9-6.1-11.9-2.4-15.6
				C145.1,4082.6,150,4081.5,157.1,4088.4z"/>
		</g>
		<g>
			<g>
				<g>
					<path class="st0" d="M237.4,4256.6c-4.2-5.3-7.8-11.9-9.2-22.6c-0.2,10.8,1.6,18.3,4.4,25.4c3.2,6.8,6.9,14.5,18.3,20.7
						c5.5,2.8,13.5,3.6,20,0c6.5-3.6,9.4-10.1,10.1-14.6c1.3-9.5-2.3-14.4-4.6-14.3c-2.7,0-4.2,5.5-7,10.8c-3.3,5.2-6,7.4-14.1,6.2
						C247.3,4266.4,241.8,4261.6,237.4,4256.6z"/>
				</g>
				<path class="st1" d="M323.5,4535.1c-23.5-0.9-41.4-16.8-43.1-41c-1.6-23.5,22.7-49.8,42.5-31.8c11.9,10.8-10.8,26.6-15.4,9.7
					c-1.6-9.5-10.9-5.2-14.5,0c-4.1,6-4.8,14-3.9,21c4.1,31.9,47,37.5,65.5,14.4c22.3-27.8,5.2-64.8-16.3-86.3
					c-25.7-25.6-55.5-46.9-80.1-73.5c-27.9-30.1-31-71.2-31-110.6c0.7,0,1.3-0.1,2-0.1c2.6,26,6,53.6,17.3,77.5
					c10.2,21.5,32,36.5,50.3,50.8c39,30.4,86.8,71.6,86.5,108C383,4509.5,358.5,4536.5,323.5,4535.1z"/>
				<path class="st1" d="M406.2,4304.9c-5.4-10.3-15.9-16.4-27.1-18.7c-9.5-1.7-18.8,2.7-8.3,11.3c4.9,5.4-1.9,18.7-8.6,12.9
					c-6.8-6.1-4-21,2.5-26.5c20.4-17.1,51.8,12.4,55.1,31.6c11.4,64.8-79.7,60.2-116.7,43.4c-46.7-21.2-80.4-75.4-75.6-126.8
					c6.2,11.4,5.7,32.8,12.1,47c7.4,16.7,18.3,31.7,31.5,44.3c28.4,27,63.7,37.2,95.3,32.3C398,4350.7,419.2,4330,406.2,4304.9z"/>
			</g>
			<g>
				<path class="st1" d="M414.5,4416.1c-9.2-17.4-46.6-25.9-53.4-25.7l-0.2,1.6c13,3.8,21.7,12.6,29.8,22.6c2,2.6,3.9,5.2,5.8,8
					c1.8,2.4,3.2,4.4,4.9,6.3c3.3,3.7,8,12.9,8.6,14.5C410.7,4445.1,423.7,4433.6,414.5,4416.1z"/>
				<path class="st1" d="M413.2,4383.2l-5.4-0.8c-2.1-0.4-5.5-0.2-9.1,0.4l-9.6,2.6c-5.9,1.7-11.3,2.6-17.3,2.7
					c-6,0.3-15.6-1-18.6-0.6c-2.9,0.4,11.2,6.8,17.6,8.7c6.3,1.7,14,5.9,29.7,4.9c15.7-0.9,17.4-5,20.6-9.6c3.5-4.6,0.2-14.5-1-13.1
					C418.9,4380,414.5,4383.6,413.2,4383.2z"/>
			</g>
			<g>
				<path class="st0" d="M397.2,4550.6c4.1,4.5,20.8,9.4,16.4,16.6c-5.8,9.4-20.1,6-26.1-1c-10.4-12.2-5.5-32.5-4.1-47.1
					C385.5,4531.1,389.7,4540.9,397.2,4550.6C399.2,4552.7,389.4,4540.4,397.2,4550.6z"/>
				<path class="st0" d="M379.6,4584.2c-4.5,14.1-16.8,25.3-32.5,25.4c-12.3,0-31-13.9-15.8-19.4c16-5.9,22.9-6.7,33-22.5
					c9.5-15,15.3-32.3,17.6-50C383.4,4539.6,385.9,4562.8,379.6,4584.2C377.3,4591.3,383.9,4569.3,379.6,4584.2z"/>
				<path class="st1" d="M399.6,4616.1c0.1-12.5-5.1-24.2-11.6-24.2c-6.5-0.1-11.9,11.5-12,24.1c-0.1,12.5,5.2,16,11.7,16
					C394.2,4632,399.5,4628.6,399.6,4616.1z"/>
			</g>
			<g>
				<g>
					<path class="st0" d="M185.6,4267.6c-8.1,1.1-10.8-1.1-13.9-6.4c-2.8-5.3-4.2-10.8-6.9-10.9c-2.3-0.2-5.9,4.7-4.8,14.2
						c0.6,4.6,3.3,11.1,9.8,14.8c6.4,3.7,14.4,3,20,0.3c11.5-6,15.3-13.6,18.6-20.4c2.9-7.1,4.9-14.6,4.8-25.4
						c-1.5,10.7-5.3,17.2-9.5,22.5C199.2,4261.3,193.6,4266,185.6,4267.6z"/>
				</g>
				<path class="st1" d="M113.4,4533.5c23.5-0.6,41.7-16.2,43.7-40.4c2-23.4-21.9-50.2-42-32.4c-12.1,10.7,10.4,26.8,15.2,10
					c1.8-9.5,11-5.1,14.5,0.2c4,6,4.6,14.1,3.5,21c-4.6,31.8-47.6,36.8-65.7,13.4c-21.9-28.1-4.2-64.8,17.6-86
					c26.1-25.2,56.2-46,81.3-72.3c28.3-29.7,32.1-70.8,32.6-110.1c-0.6,0-1.3-0.1-2-0.1c-3,25.9-6.9,53.5-18.5,77.2
					c-10.5,21.3-32.6,36.1-51,50c-39.5,29.8-87.9,70.3-88.2,106.6C54.3,4507,78.4,4534.3,113.4,4533.5z"/>
				<path class="st1" d="M34.2,4302.1c5.5-10.3,16.1-16.2,27.4-18.2c9.5-1.5,18.8,2.9,8.1,11.4c-5,5.4,1.6,18.7,8.4,13
					c6.9-6,4.3-20.9-2.1-26.5c-20.1-17.4-51.9,11.6-55.6,30.7c-12.4,64.6,78.8,61.4,116,45.2c47-20.5,81.5-74.1,77.6-125.6
					c-6.3,11.3-6.2,32.7-12.8,46.8c-7.7,16.5-18.8,31.4-32.2,43.8c-28.8,26.6-64.3,36.3-95.8,30.8C41.7,4348,20.8,4327,34.2,4302.1z
					"/>
			</g>
			<g>
				<path class="st1" d="M24.2,4413.2c9.5-17.3,46.9-25.2,53.7-24.9l0.2,1.6c-13.1,3.5-21.9,12.3-30.1,22.2c-2,2.6-4,5.2-6,7.9
					c-1.9,2.4-3.3,4.4-5,6.2c-3.3,3.7-8.2,12.8-8.8,14.4C27.5,4442.2,14.7,4430.4,24.2,4413.2z"/>
				<path class="st1" d="M26,4380.2l5.4-0.7c2.1-0.4,5.5-0.2,9.1,0.5l9.5,2.8c5.9,1.8,11.2,2.8,17.3,3c6,0.4,15.6-0.8,18.6-0.3
					c2.9,0.5-11.3,6.6-17.7,8.4c-6.3,1.6-14.1,5.6-29.8,4.5c-15.7-1.1-17.3-5.3-20.5-9.9c-3.4-4.7,0-14.5,1.2-13
					C20.3,4376.9,24.7,4380.6,26,4380.2z"/>
			</g>
			<g>
				<path class="st0" d="M39.5,4547.8c7.6-9.5,12-19.3,14.3-31.3c1.2,14.6,5.7,35-4.8,47c-6.1,7-20.5,10.1-26.1,0.6
					C18.5,4556.9,35.3,4552.3,39.5,4547.8C47.4,4537.8,37.4,4549.9,39.5,4547.8z"/>
				<path class="st0" d="M56.5,4581.8c-5.9-21.5-3.1-44.7-1.3-66.6c2.1,17.7,7.6,35,16.9,50.2c9.8,16,16.7,16.9,32.6,23
					c15.1,5.8-3.8,19.4-16.1,19.2C73,4607.3,60.8,4595.9,56.5,4581.8C52.4,4566.8,58.7,4588.9,56.5,4581.8z"/>
				<path class="st1" d="M60.5,4613.5c0.1-12.5-5.1-24.2-11.6-24.2c-6.5-0.1-11.9,11.5-12,24.1c-0.1,12.5,5.2,16,11.7,16
					C55.1,4629.4,60.5,4626,60.5,4613.5z"/>
			</g>
			<g>
				<path class="st0" d="M238.5,4585.4c5.2,4.3,28.6,12,30,18.4c2.3,9.5-19.6,7.8-23.9,6.3c-26.8-9.1-28.5-42.4-27.5-66.1
					C219.3,4559.8,226,4575.1,238.5,4585.4C245,4590.8,231.6,4579.8,238.5,4585.4z"/>
				<path class="st0" d="M249.9,4538.5c12.3,14.6,14.7,12.5,31.6,12.6c7.5,0.1,4.8,9.4,2.6,13.2c-6.3,10.9-20.2,14.4-31.5,9.7
					c-33.1-13.7-36-68.3-35-97.9C220.9,4499.1,235.3,4520.5,249.9,4538.5C254,4543.3,241.4,4528.1,249.9,4538.5z"/>
				<path class="st0" d="M195.3,4585.1c12.7-10.1,19.6-25.3,22-41c0.6,23.7-1.6,56.9-28.5,65.7c-4.2,1.4-26.2,2.7-23.8-6.7
					C166.5,4596.7,190,4589.3,195.3,4585.1C202.2,4579.6,188.6,4590.4,195.3,4585.1z"/>
				<path class="st0" d="M184.6,4538c14.9-17.7,29.4-39,33-61.8c0.5,29.6-3,84.2-36.4,97.4c-11.3,4.5-25.2,0.8-31.3-10.2
					c-2.1-3.9-4.6-13.2,2.8-13.2C169.8,4550.2,172.1,4552.3,184.6,4538C193.2,4527.7,180.4,4542.7,184.6,4538z"/>
			</g>
			<g>
				<path class="st1" d="M271.5,4378.2c-7.6-6.1-15.3-10.7-24.9-12.7c-1.8-0.4-23.8-3.1-23.9-2.8c-3.9,9.5,26.5,27.7,37.8,39.2
					c11.3,11.5,26.3,47.2,30.3,44.7C294.6,4444.2,290.4,4393.4,271.5,4378.2z"/>
				<path class="st1" d="M163.4,4377.4c7.7-6,15.4-10.5,25.1-12.3c1.9-0.4,23.9-2.7,24-2.5c3.7,9.5-26.9,27.3-38.4,38.7
					c-11.5,11.4-27.1,46.8-31,44.3C139.2,4443.1,144.2,4392.3,163.4,4377.4z"/>
				<path class="st1" d="M217.7,4324.8c-1.3,10.6-2,21.2-2.8,31.9c-0.5,5.3-0.3,8.3-3.1,13.4c-8.6,7.7-13.7,15.5-17.1,23.3
					c-4.1,8.6-5.6,17.2-5.8,25.9c0,8.6,1.4,17.2,5.3,25.9c3.6,8.7,13.7,21.3,17.5,24.4c3.1,2.5,6.9,2.5,10,0.1
					c3.9-3.1,14.1-15.5,17.9-24.1c4.1-8.6,5.6-17.2,5.7-25.8c0-8.6-1.5-17.3-5.4-26c-3.3-7.9-8.2-15.7-16.7-23.5
					c-2.8-5.1-2.5-8.2-2.9-13.4C219.6,4346.1,218.8,4335.5,217.7,4324.8z"/>
			</g>
			<path class="st1" d="M157.1,4317.8c7-6.9,10.7-16.4,7.1-20.1c-3.6-3.7-13.1-0.2-20.2,6.7c-7.1,6.9-6.1,11.9-2.4,15.6
				C145.1,4323.7,150,4324.7,157.1,4317.8z"/>
		</g>
		<g>
			<g>
				<path class="st0" d="M27.6,4774.9c-10.6-2.6-8.8,22-7.2,26.6c10.1,30,47.3,32.1,73.8,31.1c-17.6-2.5-34.7-10.1-46.2-24.1
					C42,4801.2,34.8,4776.5,27.6,4774.9z"/>
				<path class="st0" d="M86.7,4760.6c0-8.3-10.5-5.4-14.8-3c-12.2,6.9-16.1,22.5-11,35.1c15.1,37.1,76.1,40.7,109.2,39.7
					c-25.6-3.8-49.6-20-69.5-36.4C95.2,4791.4,86.8,4779.6,86.7,4760.6z"/>
				<path class="st0" d="M94.2,4832.4c-26.5-0.8-63.7,1.5-73.6,31.5c-1.5,4.7-3.1,29.3,7.4,26.6c7.2-1.6,15.5-27.9,20.2-33.7
					C54.4,4849.1,76.6,4835.1,94.2,4832.4z"/>
			</g>
			<g>
				<path class="st0" d="M344.9,4830.4c26.5,0.8,63.7-1.4,73.6-31.5c1.5-4.7,3.2-29.3-7.4-26.6c-7.1,1.6-15.5,27.9-20.2,33.7
					C384.7,4813.7,362.5,4827.8,344.9,4830.4z"/>
				<path class="st0" d="M411.5,4887.9c10.6,2.6,8.8-22,7.2-26.7c-10.1-30-47.2-32.1-73.8-31.1c17.6,2.5,34.6,10.1,46.1,24.1
					C397.1,4861.6,404.3,4886.3,411.5,4887.9z"/>
				<path class="st0" d="M352.4,4902.2c0,8.3,10.5,5.4,14.8,3c12.3-7,16.1-22.5,11-35.1c-15.1-37.1-76.1-40.4-109.3-39.5
					c25.6,3.8,49.6,19.8,69.6,36.2C343.9,4871.4,352.3,4883.2,352.4,4902.2z"/>
			</g>
			<g>
				<path class="st0" d="M75.6,4970.4c-7.5,7.9,14.8,18.5,19.6,19.4c31.1,6.1,51.3-25.3,63.5-48.8c-10.9,14.1-25.9,25.2-43.8,28.2
					C105.6,4970.8,80.5,4964.9,75.6,4970.4z"/>
				<path class="st0" d="M92.4,4912c-7.2-4.1-9.9,6.4-9.9,11.3c0,14.1,11.6,25.2,25.1,26.9c39.7,5.2,72.9-46.1,88.5-75.3
					c-16,20.4-41.9,33.2-66,42.4C123.4,4919.8,108.9,4921.2,92.4,4912z"/>
				<path class="st0" d="M158.6,4940.9c-13.9,22.7-30.2,56.1-9,79.6c3.3,3.7,23.9,17.2,26.7,6.7c2.1-7-16.6-27.2-19.3-34.2
					C153.3,4983.7,152.1,4957.5,158.6,4940.9z"/>
			</g>
			<g>
				<path class="st0" d="M280.6,4722c13.8-22.7,30.2-56.1,9-79.6c-3.3-3.7-23.9-17.2-26.8-6.7c-2.1,7,16.6,27.2,19.3,34.3
					C285.8,4679.1,287.1,4705.4,280.6,4722z"/>
				<path class="st0" d="M363.5,4692.5c7.5-7.9-14.7-18.5-19.6-19.5c-31.1-6.1-51.3,25.2-63.5,48.8c10.9-14.1,25.9-25.2,43.7-28.3
					C333.6,4692.1,358.6,4697.9,363.5,4692.5z"/>
				<path class="st0" d="M346.8,4750.9c7.3,4.1,10-6.4,9.9-11.4c0-14.1-11.6-25.2-25.1-26.9c-39.7-5.2-72.8,46.2-88.3,75.4
					c16-20.4,41.7-33.3,65.8-42.6C315.8,4743.1,330.3,4741.6,346.8,4750.9z"/>
			</g>
			<g>
				<path class="st0" d="M267.3,5025.7c3,10.5,23.4-3.4,26.6-7.1c20.9-23.8,4-57-10.2-79.4c6.7,16.5,8.7,35,2.4,52
					C282.8,5000.1,265,5018.8,267.3,5025.7z"/>
				<path class="st0" d="M225.2,4981.8c-7.2,4.2,0.6,11.8,4.8,14.3c12.2,7.1,27.6,2.6,35.9-8.1c24.5-31.8-3.1-86.3-20.6-114.4
					c9.6,24.1,7.7,52.9,3.5,78.4C247.6,4959,241.6,4972.2,225.2,4981.8z"/>
				<path class="st0" d="M283.5,4939.3c12.6,23.4,33.3,54.3,64.3,47.8c4.9-1,26.9-12,19.3-19.8c-5-5.4-31.9,0.7-39.3-0.5
					C317.9,4965.3,294.7,4953.2,283.5,4939.3z"/>
			</g>
			<g>
				<path class="st0" d="M155.6,4723.6c-12.6-23.3-33.3-54.3-64.2-47.8c-4.8,1-27,12-19.3,19.8c5,5.4,31.9-0.6,39.3,0.5
					C121.2,4697.6,144.5,4709.7,155.6,4723.6z"/>
				<path class="st0" d="M171.9,4637.2c-3.1-10.5-23.4,3.4-26.6,7.2c-20.9,23.8-4,57,10.2,79.4c-6.7-16.5-8.7-35-2.4-52
					C156.4,4662.8,174.1,4644.1,171.9,4637.2z"/>
				<path class="st0" d="M214,4681c7.2-4.2-0.6-11.9-4.8-14.3c-12.2-7.1-27.6-2.6-35.9,8.1c-24.5,31.7,3.4,86.1,20.8,114.3
					c-9.6-24.1-7.9-52.8-3.7-78.3C191.5,4703.9,197.6,4690.6,214,4681z"/>
			</g>
			<path class="st0" d="M219.2,4853.4c-12.7,0-23-10.2-23-22.9c0-12.7,10.2-23,22.9-23c12.7,0,23,10.2,23.1,22.9
				C242.1,4843,231.8,4853.3,219.2,4853.4z"/>
			<path class="st1" d="M403.2,4736.5c-6.7,0-12.1-5.4-12.1-12c0-6.7,5.3-12.1,12-12.1c6.6,0,12,5.4,12.1,12
				C415.2,4731.1,409.9,4736.5,403.2,4736.5z"/>
			<path class="st1" d="M403.8,4943.7c-6.7,0-12.1-5.4-12.1-12c0-6.6,5.4-12,12-12.1c6.6,0,12,5.3,12.1,12
				C415.8,4938.2,410.5,4943.6,403.8,4943.7z"/>
			<path class="st1" d="M49.9,4737.5c-6.7,0-12.1-5.4-12.1-12c0-6.7,5.3-12.1,12-12.1c6.6,0,12.1,5.4,12.1,12
				C62,4732.1,56.5,4737.5,49.9,4737.5z"/>
			<path class="st1" d="M50.5,4944.7c-6.7,0-12.1-5.3-12.1-12c0-6.6,5.4-12,12-12.1c6.6,0,12.1,5.3,12.1,12
				C62.6,4939.3,57.2,4944.7,50.5,4944.7z"/>
			<path class="st1" d="M321.4,4662.8c-4.3,0-7.7-3.4-7.8-7.7c0-4.3,3.4-7.8,7.7-7.8c4.3,0,7.7,3.4,7.8,7.7
				C329.1,4659.3,325.6,4662.8,321.4,4662.8z"/>
			<path class="st1" d="M322.4,5015.3c-4.3,0-7.7-3.4-7.8-7.7c0-4.3,3.4-7.7,7.7-7.8c4.3,0,7.7,3.4,7.8,7.7
				C330.1,5011.8,326.7,5015.3,322.4,5015.3z"/>
			<path class="st1" d="M117.7,4663.4c-4.3,0-7.8-3.4-7.8-7.7c0-4.3,3.4-7.8,7.7-7.8c4.3,0,7.7,3.4,7.8,7.7
				C125.4,4659.9,121.9,4663.4,117.7,4663.4z"/>
			<path class="st1" d="M118.7,5015.9c-4.3,0-7.8-3.5-7.8-7.7c0-4.3,3.4-7.7,7.7-7.8c4.3,0,7.8,3.4,7.8,7.7
				C126.4,5012.4,122.9,5015.8,118.7,5015.9z"/>
			<path class="st0" d="M86.1,4904c0,8.3-10.5,5.5-14.8,3.1c-12.3-6.9-16.3-22.4-11.2-35c14.9-37.2,75.9-41.1,109-40.4
				c-25.6,4-49.4,20.3-69.3,36.8C94.5,4873.1,86.1,4885,86.1,4904z"/>
			<path class="st0" d="M352.8,4758.1c0-8.3,10.5-5.5,14.8-3.1c12.3,6.9,16.3,22.4,11.2,35.1c-14.9,37.2-75.8,40.9-109,40.1
				c25.6-4,49.5-20.1,69.3-36.6C344.5,4789,352.8,4777.1,352.8,4758.1z"/>
			<path class="st0" d="M90,4752.6c-7.3,4.1-10-6.4-10-11.3c-0.1-14.1,11.4-25.2,24.9-27.1c39.7-5.5,73.3,45.6,88.9,74.8
				c-16.1-20.3-42-33-66.2-42.1C120.9,4744.6,106.5,4743.2,90,4752.6z"/>
			<path class="st0" d="M348,4909.5c7.2-4.1,10,6.4,10,11.3c0.1,14.1-11.4,25.2-24.9,27.1c-39.7,5.4-73-45.7-88.8-74.9
				c16.1,20.3,41.9,33.1,66.1,42.2C317.1,4917.5,331.5,4918.8,348,4909.5z"/>
			<path class="st0" d="M222.9,4680.2c-7.2-4.2,0.5-11.8,4.7-14.3c12.1-7.2,27.6-2.8,35.9,7.9c24.7,31.6-2.6,86.3-19.9,114.5
				c9.4-24.1,7.4-52.9,3.1-78.4C245.4,4702.9,239.3,4689.7,222.9,4680.2z"/>
			<path class="st0" d="M216.5,4983.8c7.2,4.2-0.5,11.9-4.8,14.3c-12.1,7.2-27.5,2.8-35.9-7.9c-24.7-31.6,2.8-86.2,20.1-114.4
				c-9.4,24.1-7.5,52.9-3.2,78.3C194,4961,200.1,4974.3,216.5,4983.8z"/>
		</g>
	</g>
	<g>
		<g>
			<g>
				<g>
					<path class="st0" d="M255.4,5394c8-1.2,10.8,1,14,6.2c2.9,5.3,4.4,10.7,7,10.8c2.3,0.1,5.8-4.8,4.6-14.3
						c-0.6-4.6-3.5-11-10.1-14.6c-6.5-3.6-14.4-2.8-19.9,0c-11.4,6.2-15.1,13.9-18.3,20.7c-2.8,7.1-4.6,14.7-4.4,25.4
						c1.4-10.7,5-17.3,9.2-22.6C241.8,5400.5,247.3,5395.7,255.4,5394z"/>
				</g>
				<path class="st1" d="M323.5,5127c-23.5,0.9-41.4,16.8-43.1,41c-1.6,23.5,22.7,49.8,42.5,31.8c11.9-10.9-10.8-26.6-15.4-9.7
					c-1.6,9.5-10.9,5.2-14.5,0c-4.1-5.9-4.8-14-3.9-20.9c4.1-31.9,47-37.5,65.5-14.4c22.3,27.8,5.2,64.8-16.3,86.3
					c-25.7,25.6-55.5,46.9-80.1,73.5c-27.9,30.1-31,71.2-31,110.6c0.7,0,1.3,0.1,2,0.1c2.6-26,6-53.6,17.3-77.5
					c10.2-21.5,32-36.5,50.3-50.8c39-30.4,86.8-71.6,86.5-108C383,5152.6,358.5,5125.7,323.5,5127z"/>
				<path class="st1" d="M406.2,5357.2c-5.4,10.3-15.9,16.4-27.1,18.6c-9.5,1.7-18.8-2.7-8.3-11.3c4.9-5.4-1.9-18.7-8.6-12.9
					c-6.8,6.1-4,21,2.5,26.5c20.4,17.1,51.8-12.4,55.1-31.6c11.4-64.8-79.7-60.2-116.7-43.4c-46.7,21.2-80.4,75.4-75.6,126.8
					c6.2-11.4,5.7-32.8,12.1-47c7.4-16.7,18.3-31.7,31.5-44.3c28.4-27,63.7-37.2,95.3-32.3C398,5311.4,419.2,5332.1,406.2,5357.2z"
					/>
			</g>
			<g>
				<path class="st1" d="M414.5,5246c-9.2,17.4-46.6,25.9-53.4,25.7l-0.2-1.6c13-3.8,21.7-12.6,29.8-22.6c2-2.6,3.9-5.2,5.8-8
					c1.8-2.4,3.2-4.4,4.9-6.3c3.3-3.7,8-12.9,8.6-14.5C410.7,5217,423.7,5228.6,414.5,5246z"/>
				<path class="st1" d="M413.2,5279l-5.4,0.8c-2.1,0.4-5.5,0.2-9.1-0.4l-9.6-2.6c-5.9-1.7-11.3-2.6-17.3-2.7
					c-6-0.3-15.6,1-18.6,0.6c-2.9-0.4,11.2-6.8,17.6-8.7c6.3-1.7,14-5.9,29.7-5c15.7,0.9,17.4,5,20.6,9.6c3.5,4.6,0.2,14.5-1,13.1
					C418.9,5282.2,414.5,5278.6,413.2,5279z"/>
			</g>
			<g>
				<path class="st0" d="M397.2,5111.6c4.1-4.5,20.8-9.4,16.4-16.6c-5.8-9.4-20.1-6-26.1,1c-10.4,12.2-5.5,32.5-4.1,47.1
					C385.5,5131,389.7,5121.2,397.2,5111.6C399.2,5109.5,389.4,5121.7,397.2,5111.6z"/>
				<path class="st0" d="M379.6,5077.9c-4.5-14.1-16.8-25.3-32.5-25.4c-12.3,0-31,13.9-15.8,19.4c16,5.9,22.9,6.7,33,22.5
					c9.5,15,15.3,32.3,17.6,50C383.4,5122.5,385.9,5099.3,379.6,5077.9C377.3,5070.8,383.9,5092.8,379.6,5077.9z"/>
				<path class="st1" d="M399.6,5046c0.1,12.5-5.1,24.2-11.6,24.2c-6.5,0-11.9-11.6-12-24.1c-0.1-12.5,5.2-16,11.7-16
					C394.2,5030.1,399.5,5033.5,399.6,5046z"/>
			</g>
			<g>
				<g>
					<path class="st0" d="M203.6,5405.8c4.3,5.3,8,11.8,9.5,22.5c0.1-10.8-1.9-18.3-4.8-25.4c-3.3-6.8-7.1-14.4-18.6-20.4
						c-5.6-2.7-13.5-3.4-20,0.3c-6.5,3.7-9.3,10.2-9.8,14.8c-1.1,9.5,2.5,14.4,4.8,14.2c2.7-0.1,4.1-5.6,6.9-10.9
						c3.2-5.2,5.9-7.5,13.9-6.4C193.6,5396.1,199.2,5400.8,203.6,5405.8z"/>
				</g>
				<path class="st1" d="M113.4,5128.6c23.5,0.6,41.7,16.2,43.7,40.4c2,23.4-21.9,50.2-42,32.4c-12.1-10.7,10.4-26.8,15.2-10
					c1.8,9.5,11,5.1,14.5-0.2c4-6,4.6-14.1,3.5-21c-4.6-31.8-47.6-36.8-65.7-13.4c-21.9,28.1-4.2,64.8,17.6,86
					c26.1,25.2,56.2,46,81.3,72.3c28.3,29.7,32.1,70.8,32.6,110.1c-0.6,0-1.3,0.1-2,0.1c-3-25.9-6.9-53.5-18.5-77.2
					c-10.5-21.3-32.6-36.1-51-50c-39.5-29.8-87.9-70.3-88.2-106.6C54.3,5155.1,78.4,5127.8,113.4,5128.6z"/>
				<path class="st1" d="M34.2,5360.1c5.5,10.3,16.1,16.2,27.4,18.2c9.5,1.5,18.8-2.9,8.1-11.4c-5-5.4,1.6-18.7,8.4-13
					c6.9,6,4.3,20.9-2.1,26.5c-20.1,17.4-51.9-11.6-55.6-30.7c-12.4-64.6,78.8-61.4,116-45.2c47,20.5,81.5,74.1,77.6,125.6
					c-6.3-11.3-6.2-32.7-12.8-46.8c-7.7-16.5-18.8-31.4-32.2-43.8c-28.8-26.6-64.3-36.3-95.8-30.8
					C41.7,5314.1,20.8,5335.2,34.2,5360.1z"/>
			</g>
			<g>
				<path class="st1" d="M24.2,5249c9.5,17.3,46.9,25.2,53.7,24.9l0.2-1.6c-13.1-3.6-21.9-12.3-30.1-22.2c-2-2.6-4-5.2-6-8
					c-1.9-2.4-3.3-4.4-5-6.2c-3.3-3.7-8.2-12.8-8.8-14.4C27.5,5219.9,14.7,5231.7,24.2,5249z"/>
				<path class="st1" d="M26,5281.9l5.4,0.7c2.1,0.4,5.5,0.2,9.1-0.5l9.5-2.8c5.9-1.8,11.2-2.8,17.3-3c6-0.4,15.6,0.8,18.6,0.3
					c2.9-0.5-11.3-6.6-17.7-8.4c-6.3-1.6-14.1-5.6-29.8-4.5c-15.7,1.1-17.3,5.3-20.5,9.9c-3.4,4.7,0,14.5,1.2,13.1
					C20.3,5285.2,24.7,5281.6,26,5281.9z"/>
			</g>
			<g>
				<path class="st0" d="M39.5,5114.3c7.6,9.5,12,19.3,14.3,31.3c1.2-14.6,5.7-35-4.8-47c-6.1-6.9-20.5-10.1-26.1-0.6
					C18.5,5105.2,35.3,5109.9,39.5,5114.3C47.4,5124.3,37.4,5112.2,39.5,5114.3z"/>
				<path class="st0" d="M56.5,5080.4c-5.9,21.5-3.1,44.7-1.3,66.6c2.1-17.7,7.6-35,16.9-50.2c9.8-16,16.7-16.9,32.6-23
					c15.1-5.8-3.8-19.4-16.1-19.2C73,5054.8,60.8,5066.2,56.5,5080.4C52.4,5095.3,58.7,5073.2,56.5,5080.4z"/>
				<path class="st1" d="M60.5,5048.6c0.1,12.5-5.1,24.2-11.6,24.2c-6.5,0.1-11.9-11.5-12-24.1c-0.1-12.5,5.2-16,11.7-16
					C55.1,5032.7,60.5,5036.1,60.5,5048.6z"/>
			</g>
			<g>
				<path class="st0" d="M238.5,5076.7c5.2-4.3,28.6-12,30-18.4c2.3-9.5-19.6-7.8-23.9-6.3c-26.8,9.1-28.5,42.4-27.5,66.1
					C219.3,5102.3,226,5087,238.5,5076.7C245,5071.3,231.6,5082.3,238.5,5076.7z"/>
				<path class="st0" d="M249.9,5123.7c12.3-14.6,14.7-12.5,31.6-12.6c7.5-0.1,4.8-9.4,2.6-13.2c-6.3-10.9-20.2-14.4-31.5-9.7
					c-33.1,13.7-36,68.3-35,97.9C220.9,5163.1,235.3,5141.6,249.9,5123.7C254,5118.8,241.4,5134,249.9,5123.7z"/>
				<path class="st0" d="M195.3,5077c12.7,10.1,19.6,25.3,22,41.1c0.6-23.7-1.6-56.9-28.5-65.7c-4.2-1.4-26.2-2.7-23.8,6.7
					C166.5,5065.5,190,5072.8,195.3,5077C202.2,5082.6,188.6,5071.7,195.3,5077z"/>
				<path class="st0" d="M184.6,5124.2c14.9,17.7,29.4,39,33,61.9c0.5-29.6-3-84.2-36.4-97.4c-11.3-4.5-25.2-0.8-31.3,10.2
					c-2.1,3.9-4.6,13.2,2.8,13.2C169.8,5111.9,172.1,5109.8,184.6,5124.2C193.2,5134.4,180.4,5119.4,184.6,5124.2z"/>
			</g>
			<g>
				<path class="st0" d="M356.2,5482.9c4.3,5.2,12,28.6,18.4,30c9.5,2.3,7.8-19.6,6.3-23.8c-9.1-26.8-42.4-28.5-66.1-27.5
					C330.6,5463.7,345.9,5470.4,356.2,5482.9C361.6,5489.5,350.6,5476.1,356.2,5482.9z"/>
				<path class="st0" d="M309.2,5494.3c14.6,12.3,12.4,14.6,12.6,31.6c0.1,7.5,9.4,4.8,13.2,2.7c10.9-6.3,14.3-20.2,9.7-31.5
					c-13.7-33.1-68.2-36.1-97.9-35.1C269.8,5465.4,291.3,5479.8,309.2,5494.3C314.1,5498.4,298.9,5485.9,309.2,5494.3z"/>
				<path class="st0" d="M355.9,5439.8c-10.2,12.6-25.3,19.6-41.1,22c23.7,0.6,57-1.5,65.7-28.5c1.4-4.2,2.7-26.2-6.7-23.8
					C367.4,5411,360.1,5434.5,355.9,5439.8C350.3,5446.7,361.2,5433.1,355.9,5439.8z"/>
				<path class="st0" d="M308.7,5429.1c-17.7,14.9-38.9,29.3-61.9,33c29.6,0.6,84.1-3,97.3-36.3c4.5-11.4,0.8-25.2-10.2-31.3
					c-3.8-2.1-13.3-4.6-13.2,2.8C320.9,5414.2,323.1,5416.6,308.7,5429.1C298.5,5437.7,313.5,5424.9,308.7,5429.1z"/>
			</g>
			<g>
				<path class="st0" d="M82.4,5485c10.2-12.7,25.3-19.6,41-22c-23.7-0.6-56.9,1.6-65.7,28.5c-1.3,4.2-2.7,26.2,6.7,23.7
					C70.8,5513.8,78.2,5490.3,82.4,5485C87.9,5478.1,77.1,5491.7,82.4,5485z"/>
				<path class="st0" d="M129.5,5495.7c17.7-14.9,38.9-29.5,61.8-33.2c-29.6-0.6-84.2,3.2-97.3,36.6c-4.5,11.3-0.8,25.2,10.2,31.3
					c3.8,2.1,13.2,4.6,13.2-2.9C117.3,5510.6,115.2,5508.2,129.5,5495.7C139.7,5487.1,124.7,5499.9,129.5,5495.7z"/>
				<path class="st0" d="M82.1,5441.8c-4.3-5.2-12-28.6-18.4-30c-9.5-2.3-7.8,19.7-6.4,23.9c9.2,26.8,42.4,28.5,66.1,27.5
					C107.6,5461,92.4,5454.3,82.1,5441.8C76.6,5435.3,87.7,5448.7,82.1,5441.8z"/>
				<path class="st0" d="M129,5430.4c-14.6-12.3-12.4-14.6-12.6-31.6c-0.1-7.4-9.4-4.8-13.2-2.6c-10.9,6.3-14.4,20.2-9.7,31.5
					c13.7,33.1,68.3,35.9,97.9,34.9C168.4,5459.2,146.9,5445,129,5430.4C124.2,5426.3,139.4,5438.9,129,5430.4z"/>
			</g>
			<g>
				<path class="st1" d="M271.5,5283.9c-7.6,6.1-15.3,10.7-24.9,12.7c-1.8,0.4-23.8,3.1-23.9,2.8c-3.9-9.5,26.5-27.7,37.8-39.2
					c11.3-11.5,26.3-47.2,30.3-44.7C294.6,5217.9,290.4,5268.7,271.5,5283.9z"/>
				<path class="st1" d="M163.4,5284.7c7.7,6,15.4,10.5,25.1,12.3c1.9,0.4,23.9,2.7,24,2.5c3.7-9.5-26.9-27.3-38.4-38.7
					c-11.5-11.4-27.1-46.8-31-44.3C139.2,5219.1,144.2,5269.8,163.4,5284.7z"/>
				<path class="st1" d="M217.7,5337.3c-1.3-10.6-2-21.2-2.8-31.9c-0.5-5.3-0.3-8.3-3.1-13.4c-8.6-7.7-13.7-15.5-17.1-23.3
					c-4.1-8.6-5.6-17.2-5.8-25.9c0-8.6,1.4-17.2,5.3-25.9c3.6-8.7,13.7-21.3,17.5-24.4c3.1-2.5,6.9-2.5,10-0.1
					c3.9,3.1,14.1,15.5,17.9,24.1c4.1,8.6,5.6,17.2,5.7,25.8c0,8.6-1.5,17.3-5.4,26c-3.3,7.9-8.2,15.7-16.7,23.5
					c-2.8,5.1-2.5,8.2-2.9,13.4C219.6,5316.1,218.8,5326.7,217.7,5337.3z"/>
			</g>
			<path class="st0" d="M239.5,5458.8c0.1,11.4-9,20.6-20.4,20.7c-11.4,0.1-20.6-9-20.7-20.4c-0.1-11.4,9-20.6,20.4-20.7
				C230.1,5438.3,239.4,5447.4,239.5,5458.8z"/>
			<path class="st1" d="M299.4,5355c-6.9,7.1-16.4,10.7-20.1,7.1c-3.7-3.6-0.2-13.1,6.7-20.2c7-7.1,11.9-6.1,15.5-2.4
				C305.2,5343.1,306.3,5347.9,299.4,5355z"/>
			<path class="st1" d="M157.1,5344.4c7,7,10.7,16.4,7.1,20.1c-3.6,3.7-13.1,0.2-20.2-6.7c-7.1-6.9-6.1-11.9-2.4-15.6
				C145.1,5338.5,150,5337.4,157.1,5344.4z"/>
		</g>
		<g>
			<g>
				<g>
					<path class="st0" d="M237.4,5512.5c-4.2-5.3-7.8-11.9-9.2-22.6c-0.2,10.8,1.6,18.3,4.4,25.4c3.2,6.8,6.9,14.5,18.3,20.7
						c5.5,2.8,13.5,3.6,20,0c6.5-3.6,9.4-10.1,10.1-14.6c1.3-9.5-2.3-14.4-4.6-14.3c-2.7,0-4.2,5.5-7,10.8c-3.3,5.2-6,7.4-14.1,6.2
						C247.3,5522.3,241.8,5517.5,237.4,5512.5z"/>
				</g>
				<path class="st1" d="M323.5,5791c-23.5-0.9-41.4-16.8-43.1-41c-1.6-23.5,22.7-49.8,42.5-31.8c11.9,10.9-10.8,26.6-15.4,9.7
					c-1.6-9.5-10.9-5.2-14.5,0c-4.1,6-4.8,14-3.9,21c4.1,31.9,47,37.5,65.5,14.4c22.3-27.8,5.2-64.8-16.3-86.3
					c-25.7-25.6-55.5-46.9-80.1-73.5c-27.9-30.1-31-71.2-31-110.6c0.7,0,1.3,0,2-0.1c2.6,26,6,53.6,17.3,77.5
					c10.2,21.5,32,36.6,50.3,50.8c39,30.4,86.8,71.6,86.5,108C383,5765.4,358.5,5792.4,323.5,5791z"/>
				<path class="st1" d="M406.2,5560.8c-5.4-10.3-15.9-16.4-27.1-18.6c-9.5-1.7-18.8,2.7-8.3,11.3c4.9,5.4-1.9,18.7-8.6,12.9
					c-6.8-6.1-4-21,2.5-26.5c20.4-17.1,51.8,12.4,55.1,31.6c11.4,64.8-79.7,60.2-116.7,43.4c-46.7-21.2-80.4-75.4-75.6-126.8
					c6.2,11.4,5.7,32.8,12.1,47c7.4,16.7,18.3,31.7,31.5,44.3c28.4,27,63.7,37.2,95.3,32.3C398,5606.6,419.2,5585.9,406.2,5560.8z"
					/>
			</g>
			<g>
				<path class="st1" d="M414.5,5672.1c-9.2-17.4-46.6-25.9-53.4-25.7l-0.2,1.6c13,3.8,21.7,12.6,29.8,22.6c2,2.6,3.9,5.2,5.8,8
					c1.8,2.4,3.2,4.4,4.9,6.3c3.3,3.7,8,12.9,8.6,14.5C410.7,5701,423.7,5689.5,414.5,5672.1z"/>
				<path class="st1" d="M413.2,5639.1l-5.4-0.8c-2.1-0.4-5.5-0.2-9.1,0.4l-9.6,2.6c-5.9,1.7-11.3,2.6-17.3,2.7
					c-6,0.3-15.6-1-18.6-0.6c-2.9,0.4,11.2,6.8,17.6,8.7c6.3,1.7,14,5.9,29.7,4.9c15.7-0.9,17.4-5,20.6-9.6c3.5-4.6,0.2-14.5-1-13.1
					C418.9,5635.9,414.5,5639.5,413.2,5639.1z"/>
			</g>
			<g>
				<path class="st0" d="M397.2,5806.5c4.1,4.5,20.8,9.4,16.4,16.6c-5.8,9.4-20.1,6-26.1-1c-10.4-12.2-5.5-32.5-4.1-47.1
					C385.5,5787,389.7,5796.8,397.2,5806.5C399.2,5808.6,389.4,5796.3,397.2,5806.5z"/>
				<path class="st0" d="M379.6,5840.1c-4.5,14.1-16.8,25.3-32.5,25.4c-12.3,0-31-13.9-15.8-19.4c16-5.9,22.9-6.7,33-22.5
					c9.5-15,15.3-32.3,17.6-50C383.4,5795.5,385.9,5818.8,379.6,5840.1C377.3,5847.2,383.9,5825.3,379.6,5840.1z"/>
				<path class="st1" d="M399.6,5872c0.1-12.5-5.1-24.2-11.6-24.2c-6.5-0.1-11.9,11.5-12,24.1c-0.1,12.5,5.2,16,11.7,16
					C394.2,5887.9,399.5,5884.5,399.6,5872z"/>
			</g>
			<g>
				<g>
					<path class="st0" d="M185.6,5523.5c-8.1,1.1-10.8-1.1-13.9-6.4c-2.8-5.3-4.2-10.8-6.9-10.9c-2.3-0.2-5.9,4.7-4.8,14.2
						c0.6,4.6,3.3,11.1,9.8,14.8c6.4,3.7,14.4,3,20,0.3c11.5-6,15.3-13.6,18.6-20.4c2.9-7.1,4.9-14.6,4.8-25.4
						c-1.5,10.7-5.3,17.2-9.5,22.5C199.2,5517.2,193.6,5521.9,185.6,5523.5z"/>
				</g>
				<path class="st1" d="M113.4,5789.4c23.5-0.6,41.7-16.2,43.7-40.4c2-23.4-21.9-50.2-42-32.4c-12.1,10.7,10.4,26.8,15.2,10
					c1.8-9.5,11-5.1,14.5,0.2c4,6,4.6,14.1,3.5,21c-4.6,31.8-47.6,36.8-65.7,13.4c-21.9-28.1-4.2-64.8,17.6-86
					c26.1-25.2,56.2-46,81.3-72.3c28.3-29.7,32.1-70.8,32.6-110.1c-0.6,0-1.3-0.1-2-0.1c-3,25.9-6.9,53.5-18.5,77.2
					c-10.5,21.3-32.6,36.1-51,50c-39.5,29.8-87.9,70.3-88.2,106.6C54.3,5762.9,78.4,5790.3,113.4,5789.4z"/>
				<path class="st1" d="M34.2,5558c5.5-10.3,16.1-16.2,27.4-18.2c9.5-1.5,18.8,2.9,8.1,11.4c-5,5.4,1.6,18.7,8.4,13
					c6.9-6,4.3-20.9-2.1-26.5c-20.1-17.4-51.9,11.6-55.6,30.7c-12.4,64.6,78.8,61.4,116,45.2c47-20.5,81.5-74.1,77.6-125.6
					c-6.3,11.3-6.2,32.7-12.8,46.8c-7.7,16.5-18.8,31.4-32.2,43.8c-28.8,26.6-64.3,36.3-95.8,30.8
					C41.7,5603.9,20.8,5582.9,34.2,5558z"/>
			</g>
			<g>
				<path class="st1" d="M24.2,5669.1c9.5-17.3,46.9-25.2,53.7-24.9l0.2,1.6c-13.1,3.6-21.9,12.3-30.1,22.2c-2,2.6-4,5.2-6,8
					c-1.9,2.4-3.3,4.4-5,6.2c-3.3,3.7-8.2,12.8-8.8,14.4C27.5,5698.1,14.7,5686.4,24.2,5669.1z"/>
				<path class="st1" d="M26,5636.1l5.4-0.7c2.1-0.4,5.5-0.2,9.1,0.5l9.5,2.8c5.9,1.8,11.2,2.8,17.3,3c6,0.4,15.6-0.8,18.6-0.3
					c2.9,0.5-11.3,6.6-17.7,8.4c-6.3,1.6-14.1,5.6-29.8,4.5c-15.7-1.1-17.3-5.3-20.5-9.9c-3.4-4.7,0-14.5,1.2-13
					C20.3,5632.9,24.7,5636.5,26,5636.1z"/>
			</g>
			<g>
				<path class="st0" d="M39.5,5803.8c7.6-9.5,12-19.3,14.3-31.3c1.2,14.6,5.7,35-4.8,47c-6.1,7-20.5,10.1-26.1,0.6
					C18.5,5812.8,35.3,5808.2,39.5,5803.8C47.4,5793.7,37.4,5805.8,39.5,5803.8z"/>
				<path class="st0" d="M56.5,5837.7c-5.9-21.5-3.1-44.7-1.3-66.6c2.1,17.7,7.6,35,16.9,50.2c9.8,16,16.7,16.9,32.6,23
					c15.1,5.8-3.8,19.4-16.1,19.2C73,5863.2,60.8,5851.9,56.5,5837.7C52.4,5822.8,58.7,5844.8,56.5,5837.7z"/>
				<path class="st1" d="M60.5,5869.4c0.1-12.5-5.1-24.2-11.6-24.2c-6.5-0.1-11.9,11.5-12,24.1c-0.1,12.5,5.2,16,11.7,16
					C55.1,5885.3,60.5,5881.9,60.5,5869.4z"/>
			</g>
			<g>
				<path class="st0" d="M238.5,5841.4c5.2,4.3,28.6,12,30,18.4c2.3,9.5-19.6,7.8-23.9,6.3c-26.8-9.1-28.5-42.4-27.5-66.1
					C219.3,5815.8,226,5831,238.5,5841.4C245,5846.8,231.6,5835.7,238.5,5841.4z"/>
				<path class="st0" d="M249.9,5794.4c12.3,14.6,14.7,12.5,31.6,12.6c7.5,0.1,4.8,9.4,2.6,13.2c-6.3,10.9-20.2,14.4-31.5,9.7
					c-33.1-13.7-36-68.3-35-97.9C220.9,5755,235.3,5776.5,249.9,5794.4C254,5799.2,241.4,5784,249.9,5794.4z"/>
				<path class="st0" d="M195.3,5841c12.7-10.1,19.6-25.3,22-41.1c0.6,23.7-1.6,56.9-28.5,65.7c-4.2,1.4-26.2,2.7-23.8-6.7
					C166.5,5852.6,190,5845.2,195.3,5841C202.2,5835.5,188.6,5846.3,195.3,5841z"/>
				<path class="st0" d="M184.6,5793.9c14.9-17.7,29.4-39,33-61.9c0.5,29.6-3,84.2-36.4,97.4c-11.3,4.5-25.2,0.8-31.3-10.2
					c-2.1-3.9-4.6-13.2,2.8-13.2C169.8,5806.1,172.1,5808.3,184.6,5793.9C193.2,5783.7,180.4,5798.7,184.6,5793.9z"/>
			</g>
			<g>
				<path class="st1" d="M271.5,5634.2c-7.6-6.1-15.3-10.7-24.9-12.7c-1.8-0.4-23.8-3.1-23.9-2.8c-3.9,9.5,26.5,27.7,37.8,39.2
					c11.3,11.5,26.3,47.2,30.3,44.7C294.6,5700.2,290.4,5649.3,271.5,5634.2z"/>
				<path class="st1" d="M163.4,5633.3c7.7-6,15.4-10.5,25.1-12.3c1.9-0.4,23.9-2.7,24-2.5c3.7,9.5-26.9,27.3-38.4,38.7
					c-11.5,11.4-27.1,46.8-31,44.3C139.2,5699,144.2,5648.2,163.4,5633.3z"/>
				<path class="st1" d="M217.7,5580.7c-1.3,10.6-2,21.2-2.8,31.9c-0.5,5.3-0.3,8.3-3.1,13.4c-8.6,7.7-13.7,15.5-17.1,23.3
					c-4.1,8.6-5.6,17.2-5.8,25.9c0,8.6,1.4,17.2,5.3,25.9c3.6,8.7,13.7,21.3,17.5,24.4c3.1,2.5,6.9,2.5,10,0.1
					c3.9-3.1,14.1-15.5,17.9-24.1c4.1-8.6,5.6-17.2,5.7-25.8c0-8.6-1.5-17.3-5.4-26c-3.3-7.9-8.2-15.7-16.7-23.5
					c-2.8-5.1-2.5-8.2-2.9-13.4C219.6,5602,218.8,5591.4,217.7,5580.7z"/>
			</g>
			<path class="st1" d="M157.1,5573.7c7-6.9,10.7-16.4,7.1-20.1c-3.6-3.7-13.1-0.2-20.2,6.7c-7.1,6.9-6.1,11.9-2.4,15.6
				C145.1,5579.6,150,5580.6,157.1,5573.7z"/>
		</g>
	</g>
</g>
</svg>
