<?xml version="1.0" encoding="utf-8"?>
<!-- Generator: Adobe Illustrator 27.7.0, SVG Export Plug-In . SVG Version: 6.00 Build 0)  -->
<svg version="1.1" id="圖層_1" xmlns="http://www.w3.org/2000/svg" xmlns:xlink="http://www.w3.org/1999/xlink" x="0px" y="0px"
	 viewBox="0 0 76 76" style="enable-background:new 0 0 76 76;" xml:space="preserve">
<style type="text/css">
	.st0{fill:#FFFFFF;}
</style>
<g id="圖層_4">
	<path class="st0" d="M44.9,20.4c3.5,1.9,6.1,5.1,7.3,8.9c0.6,2.1,0.9,4.3,0.9,6.5c-0.2,1.1,0.1,2.1,0.7,3c1.5,2,3.9,3.3,5.2,5.5
		c1,1.6-0.8,2.5-2.2,2.5c-1.7-0.1-3.2-0.9-4.1-2.3c-0.2-0.4-0.7-0.5-1-0.3c-0.2,0.1-0.4,0.4-0.4,0.6c0,2.9-1.5,5.6-3.9,7.2
		c-3,1.8-7.3,2.2-10.7,2.1c-4,0.1-7.9-1.6-10.6-4.5c-1.1-1.1-1.7-2.6-1.8-4.2c0.1-1-1.4-1-1.5,0c-0.2,1.4-0.8,2.8-1.8,3.8
		c-0.7,0.5-1.6,0.5-2.2,0c-0.9-0.6-0.9-2-0.8-3c0.4-1.8,0.9-3.5,1.6-5.2c0.6-1.8,1.1-3.6,1.4-5.5c0.7-3.4,1.4-6.8,3.3-9.8
		c1.9-2.9,4.7-5.2,7.9-6.3C36.5,17.9,41,18.3,44.9,20.4c0.9,0.5,1.6-0.9,0.8-1.3c-7.9-4.2-17.7-1.6-22.5,5.9c-2.5,3.9-3,8.4-4,12.8
		c-0.6,2.3-1.6,4.5-2.2,6.8c-0.4,1.7-0.7,4,0.6,5.4c1.2,1.3,3.2,1.4,4.6,0.3c1.3-1.3,2.2-3.1,2.3-5h-1.5c-0.3,4.3,4.6,8,8.1,9.3
		c3.3,1.1,6.8,1.3,10.3,0.7c3-0.4,6.2-1.1,8.4-3.2c2-2,3.1-4.6,3.1-7.3l-1.4,0.4c1.5,2.3,4.2,3.4,6.9,2.8c2.4-0.7,3.2-3,1.7-5
		s-3.8-3.3-5.2-5.4c-0.3-0.4-0.4-0.8-0.3-1.2c0-1,0-2-0.1-3.1c-0.2-2-0.6-3.9-1.3-5.8c-1.5-3.6-4.1-6.6-7.6-8.5
		c-0.4-0.2-0.9-0.1-1.1,0.3C44.4,19.7,44.5,20.2,44.9,20.4z"/>
	<path class="st0" d="M44.5,53.9c0.1,1.6,0.3,3.3,0.5,4.9l0.1-0.6c-0.2,0.5-0.5,0.9-0.7,1.3c-0.3,0.4-0.5,0.9-0.7,1.5
		c0,0.4,0.4,0.8,0.8,0.8c0.4,0,0.7-0.3,0.8-0.8c0,0.1,0,0.2,0,0.3c0,0.1,0,0.1,0,0c0,0,0-0.1,0-0.1l0.1-0.2c0.1-0.2,0.2-0.4,0.3-0.7
		c0.2-0.4,0.5-0.8,0.7-1.2c0.1-0.4,0.1-0.8,0-1.1c-0.1-0.4-0.1-0.8-0.2-1.1c-0.1-1-0.2-1.9-0.2-2.9c0-0.4-0.3-0.8-0.8-0.8
		C44.7,53.2,44.4,53.5,44.5,53.9L44.5,53.9z"/>
	<path class="st0" d="M45.6,59.2c0.8,0.4,1.7,0.9,2.4,1.4c0.2,0.1,0.4,0.1,0.6,0.1c0.2-0.1,0.4-0.2,0.5-0.3c0.1-0.2,0.1-0.4,0.1-0.6
		c-0.1-0.2-0.2-0.3-0.3-0.5c-0.8-0.5-1.6-1-2.4-1.4c-0.4-0.2-0.8-0.1-1,0.3C45.2,58.6,45.3,59,45.6,59.2L45.6,59.2z"/>
	<path class="st0" d="M32.2,54.8c0.1,1.2,0.1,2.5,0.1,3.8l0.2-0.5c-0.8,0.8-1.5,1.6-2.2,2.4c-0.3,0.3-0.2,0.8,0.1,1.1
		c0.3,0.2,0.7,0.2,1,0c0.7-0.7,1.4-1.5,2.1-2.2c0.2-0.2,0.4-0.5,0.4-0.8c0-0.1,0-0.3,0-0.4v-1.1c0-0.7,0-1.4-0.1-2.1
		c0-0.4-0.3-0.8-0.8-0.8C32.6,54.1,32.2,54.4,32.2,54.8L32.2,54.8z"/>
	<path class="st0" d="M32.8,59.5c0.6,0.5,1.2,1.1,1.7,1.7c0.1,0.1,0.3,0.2,0.5,0.2c0.2,0,0.4-0.1,0.5-0.2c0.1-0.1,0.2-0.3,0.2-0.5
		v-0.2c0-0.1-0.1-0.2-0.2-0.3c-0.5-0.6-1.1-1.2-1.7-1.7c-0.1-0.1-0.3-0.2-0.5-0.2c-0.2,0-0.4,0.1-0.5,0.2c-0.1,0.1-0.2,0.3-0.2,0.5
		C32.6,59.1,32.7,59.3,32.8,59.5L32.8,59.5z"/>
	<path class="st0" d="M35.7,26.3c0.2,0,0.4,0,0.6,0h0.3c0.1,0-0.2,0,0,0h0.2l0.3,0.1c0.1,0,0.1,0,0,0c0,0,0.1,0,0.1,0.1
		c0.1,0,0.1,0.1,0.2,0.1c0,0-0.1-0.1,0,0l0.1,0.1c0,0-0.1-0.2,0,0l0.1,0.1c0.1,0.1,0-0.2,0,0v0.1v0c0,0.1,0,0.1,0,0V27
		c0,0,0,0.2,0,0.1s0,0.1,0,0.1s0.1-0.1,0,0v0.1c0,0.1,0,0,0,0c0,0-0.1,0.1-0.1,0.1c-0.1,0.1,0,0,0,0s-0.1,0.1-0.1,0.1l-0.1,0.1
		c0,0,0.2-0.1,0,0l-0.3,0.1l-0.6,0.1l-0.5,0.1c-0.1,0,0.2,0,0,0h-0.1h-0.3H35c-0.1,0,0.1,0,0.1,0c-0.1,0-0.1,0-0.2,0h-0.1h0.1l0,0
		l-0.1,0c0.2,0,0.1,0.1,0.1,0c0,0-0.1-0.1-0.1-0.1c0,0,0.1,0.2,0,0.1v-0.1c-0.1-0.1,0-0.1,0,0s0-0.2-0.1-0.2c0-0.1,0-0.1,0-0.2
		c0,0.1,0,0.1,0,0c0,0,0-0.1,0-0.1c0,0.1,0,0.1,0,0V27c0-0.1,0-0.1,0-0.2v0.1c0,0,0-0.1,0-0.1l0.1-0.1c0.1-0.1-0.1,0.1,0,0l0.1-0.1
		c0,0,0.2-0.1,0,0c0.1-0.1,0.2-0.1,0.3-0.2c0,0,0.2-0.1,0,0l0.2-0.1h0.1C35.5,26.4,35.8,26.4,35.7,26.3c0.4,0.1,0.7-0.2,0.7-0.7
		c0-0.4-0.3-0.8-0.8-0.8c-1.2,0.1-2.3,0.9-2.5,2.1c-0.1,1,0.6,1.9,1.5,2.1c0.5,0.1,1,0,1.5-0.1c0.5-0.1,1-0.2,1.4-0.3
		c0.5-0.2,1-0.6,1.2-1.1c0.2-0.5,0.2-1,0-1.5c-0.5-1.2-1.9-1.5-3.1-1.4c-0.4,0-0.8,0.3-0.8,0.8C34.9,25.9,35.2,26.3,35.7,26.3
		C35.7,26.3,35.7,26.3,35.7,26.3z"/>
	<path class="st0" d="M34.1,28.6c0.4,1,0.6,2.1,0.6,3.1c-0.1,0.3,0.1,0.5,0.4,0.6s0.5-0.1,0.6-0.4c0-0.1,0-0.1,0-0.2
		c0.1-1.2-0.2-2.5-0.7-3.6c-0.1-0.2-0.5-0.3-0.7-0.2C34.1,28.1,34,28.4,34.1,28.6z"/>
	<path class="st0" d="M37.1,28.1c0,1.2,0,2.3,0.2,3.5c0.1,0.3,0.4,0.4,0.6,0.4c0.3-0.1,0.4-0.4,0.3-0.6c-0.1-0.5-0.1-1-0.2-1.5
		c0-0.5,0-1.1,0-1.6c0.1-0.3-0.1-0.5-0.4-0.6s-0.5,0.1-0.6,0.4C37.1,28,37.1,28.1,37.1,28.1L37.1,28.1z"/>
	<path class="st0" d="M36.7,33.7C36.6,33.7,36.9,33.7,36.7,33.7h-0.1h-0.2H36c-0.2,0,0.1,0,0,0h-0.2h-0.1c-0.1,0,0.2,0.1,0,0
		l-0.1-0.1c-0.2-0.1,0,0,0,0l-0.1-0.1l-0.1-0.1c0-0.1,0,0,0,0s-0.1-0.3-0.1-0.1s0,0,0,0s0-0.1,0-0.2s-0.1-0.2,0,0c0-0.1,0-0.1,0-0.2
		c0-0.1,0-0.2,0-0.3c0,0.2,0,0.1,0,0c0,0,0-0.1,0-0.1c0-0.1-0.1,0.2,0,0c0,0,0,0,0-0.1c0.1-0.1,0,0,0,0s0.1-0.1,0.1-0.1s0,0,0,0
		l0.1-0.1l0.1,0c0.1-0.1-0.2,0.1,0,0l0.3-0.1h0.2c0.1,0,0.1,0,0.2,0c-0.2,0,0,0,0.1,0c0.3,0,0.5,0,0.8,0h0.3c0.1,0,0.2,0,0,0
		c0.1,0,0.1,0,0.2,0l0.2,0.1c0.1,0-0.2-0.1-0.1,0h0.1c0.2,0.1-0.1-0.1,0,0l0,0c0.1,0.1-0.1-0.2,0-0.1c0,0,0,0.1,0.1,0.1
		c-0.1-0.2-0.1-0.2,0-0.1c0,0,0,0,0,0.1c0,0.1,0,0.2,0.1,0.3c-0.1-0.3,0-0.1,0,0v0.2c0,0.1,0,0.1,0,0c0,0,0,0.1,0,0.1V33
		c0-0.1,0-0.1,0,0v0.1l0,0l0,0c0,0-0.1,0.1-0.1,0.1l-0.1,0.1l0,0l-0.1,0.1c-0.1,0.1-0.2,0.1-0.3,0.2c-0.2,0.1,0.2,0,0,0l-0.2,0.1
		c-0.1,0-0.2,0.1-0.3,0.1c-0.4,0.1-0.6,0.5-0.5,0.9c0,0,0,0,0,0c0.1,0.4,0.5,0.6,0.9,0.5c1.3-0.1,2.3-1.2,2.3-2.4
		c0-0.3-0.1-0.7-0.2-1c-0.2-0.4-0.5-0.7-0.9-0.8c-0.5-0.2-1-0.2-1.5-0.2c-0.6,0-1.2,0.1-1.8,0.4c-1,0.6-1.4,1.9-0.8,2.9
		c0.3,0.5,0.7,0.9,1.3,1.1c0.5,0.1,1.1,0.1,1.7,0c0.4-0.1,0.6-0.5,0.5-0.9c-0.1-0.4-0.5-0.7-0.9-0.6C36.9,33.6,36.8,33.7,36.7,33.7z
		"/>
	<path class="st0" d="M29.5,24l-0.2,0.1l-0.1,0c0,0-0.1,0.1,0,0s0,0,0,0h-0.1c-0.1,0-0.1,0-0.2,0l0,0h0.1H29c0.1,0,0.1,0,0.1,0
		s0.1,0.1,0,0s0,0,0,0l0,0c0-0.1,0,0.1,0,0c0,0,0,0,0-0.1v0.1c0,0,0-0.1,0-0.1v0.1c0,0,0-0.1,0-0.1s0-0.1,0,0s0,0,0,0l0-0.1
		c0-0.1-0.1,0.1,0,0l0,0c0,0,0-0.1,0.1-0.1c0,0-0.1,0.1,0,0l0,0l0.1-0.1c0.1-0.1,0.3-0.1,0.4-0.2l0,0h0.1l0.2,0h-0.1H30h-0.1H30
		c-0.1,0-0.1,0,0,0s-0.1-0.1,0,0l0,0c0,0-0.1-0.1,0,0s0,0,0,0s0,0.1,0,0.1v-0.1c0,0,0,0.1,0,0.1v-0.1c0,0,0,0.1,0,0.1
		c0-0.1,0-0.1,0-0.1v0c0,0,0,0,0,0.1l0,0l0,0l-0.1,0.1h0l0,0L29.5,24c-0.2,0.1-0.3,0.4-0.1,0.7c0.1,0.2,0.5,0.3,0.7,0.2
		c0.3-0.2,0.5-0.4,0.6-0.6c0.2-0.3,0.2-0.7,0.1-1c-0.1-0.3-0.3-0.4-0.6-0.5c-0.3,0-0.5,0-0.8,0.1c-0.5,0.1-0.9,0.4-1.2,0.8
		c-0.3,0.4-0.2,1.1,0.2,1.4c0,0,0,0,0,0c0.6,0.2,1.2,0.1,1.6-0.3c0.2-0.2,0.3-0.5,0.1-0.7C30.1,23.9,29.8,23.8,29.5,24L29.5,24z"/>
	<path class="st0" d="M42.8,22.4L42.8,22.4v0.1V22.4C42.8,22.4,42.8,22.6,42.8,22.4c0.1,0,0.1,0,0,0.1l0,0c-0.1,0.1-0.1,0.1,0,0
		s-0.1,0-0.1,0h0h-0.1c0.1,0,0.3,0.1,0.4,0.1l0,0l0,0l0.1,0l0.2,0.1l0.2,0.1c0.1,0.1-0.1-0.1,0,0l0,0l0.1,0.1l0,0c0,0,0,0.1,0,0
		c0,0,0,0.1,0,0.1V23l0,0c0,0,0,0.1,0,0.1V23c0,0,0,0.1,0,0.1V23c0,0,0,0,0,0c0,0.1,0,0,0,0v0c0,0.1,0.1-0.1,0,0s0.1,0,0,0
		s-0.1,0,0,0s0,0,0,0h-0.1h0.1h-0.2c0,0-0.1,0,0,0l0,0L43.2,23c0,0,0,0-0.1,0c0.1,0,0.1,0.1,0,0l0,0L43,22.7l-0.1-0.1
		c-0.1-0.1,0.1,0.1,0,0c0,0,0-0.1,0-0.1c0,0,0-0.1,0-0.1s0,0.1,0,0.1l0,0v-0.1v0.1v-0.1c-0.1-0.3-0.3-0.5-0.6-0.4
		c-0.2,0-0.4,0.2-0.4,0.4c0,0.3,0.1,0.7,0.4,0.9c0.2,0.2,0.4,0.4,0.6,0.5c0.3,0.2,0.6,0.2,0.9,0.2c0.6,0,1-0.4,1-1
		c0-0.3-0.1-0.6-0.3-0.7c-0.3-0.3-0.7-0.5-1.2-0.7c-0.2-0.1-0.5-0.1-0.7-0.1c-0.2,0.1-0.3,0.2-0.4,0.3c-0.1,0.2-0.1,0.3-0.2,0.5
		c0,0.1,0.1,0.3,0.2,0.4c0.1,0.1,0.2,0.1,0.4,0.1c0.1,0,0.3-0.1,0.3-0.1C42.8,22.7,42.8,22.5,42.8,22.4z"/>
	<path class="st0" d="M42.4,27c0.9,0,1.8,0.1,2.7,0.2l-0.2-0.8l-0.2,0.2c-0.2,0.2-0.1,0.5,0.1,0.7c0.2,0.1,0.4,0.1,0.6,0l0.2-0.2
		c0.2-0.2,0.2-0.5,0-0.7c-0.1-0.1-0.1-0.1-0.2-0.1c-1-0.2-2-0.3-3-0.3c-0.3,0-0.5,0.2-0.5,0.5C41.9,26.8,42.1,27,42.4,27
		C42.4,27,42.4,27,42.4,27L42.4,27z"/>
	<path class="st0" d="M42,27.7c1.1-0.1,2.1-0.1,3.2,0l-0.2-1l-0.3,0.2c-0.2,0.1-0.3,0.4-0.2,0.7c0.1,0.2,0.4,0.3,0.7,0.2l0,0
		l0.3-0.2c0.2-0.1,0.3-0.3,0.2-0.6c-0.1-0.2-0.3-0.4-0.5-0.4c-1.1-0.1-2.1-0.1-3.2,0c-0.3,0-0.5,0.2-0.5,0.5
		C41.6,27.4,41.8,27.6,42,27.7L42,27.7z"/>
	<path class="st0" d="M42.3,28.3l2.8-0.1c0.3,0,0.5-0.2,0.5-0.5c0-0.3-0.2-0.5-0.5-0.5l-2.8,0.1c-0.3,0.1-0.5,0.3-0.4,0.6
		C42,28.1,42.1,28.3,42.3,28.3L42.3,28.3z"/>
	<path class="st0" d="M42.8,28.9l2.5-0.3c0.3,0,0.5-0.2,0.5-0.5c0-0.2-0.2-0.5-0.5-0.5l-2.5,0.3c-0.3-0.1-0.5,0.1-0.6,0.4
		s0.1,0.5,0.4,0.6C42.6,28.9,42.7,28.9,42.8,28.9L42.8,28.9z"/>
	<path class="st0" d="M42.5,29.4l2.5-0.3c0.3,0,0.5-0.2,0.5-0.5c0-0.2-0.2-0.5-0.5-0.5l-2.5,0.3c-0.3,0-0.5,0.2-0.5,0.5
		C42,29.1,42.3,29.3,42.5,29.4L42.5,29.4z"/>
	<path class="st0" d="M42.7,29.7l2.5-0.3c0.3,0,0.5-0.2,0.5-0.5c0-0.3-0.2-0.5-0.5-0.5l-2.5,0.3c-0.3,0-0.5,0.2-0.5,0.5
		C42.2,29.5,42.4,29.7,42.7,29.7C42.7,29.7,42.7,29.7,42.7,29.7z"/>
	<path class="st0" d="M42.4,30c1,0.2,2.1,0.2,3.1,0c0.3-0.1,0.4-0.4,0.4-0.6c-0.1-0.3-0.4-0.4-0.6-0.4h-0.3l0,0h-0.1h-0.2
		c-0.2,0-0.5,0-0.7,0h-0.7h-0.2H43h-0.3c-0.3-0.1-0.5,0.1-0.6,0.4C42,29.6,42.1,29.9,42.4,30L42.4,30z"/>
	<path class="st0" d="M27.6,29.1c0.9-0.1,1.7-0.3,2.6-0.5c0.3-0.1,0.4-0.3,0.4-0.6c-0.1-0.3-0.4-0.4-0.6-0.4
		c-0.8,0.2-1.7,0.4-2.6,0.5c-0.3,0.1-0.4,0.3-0.4,0.6C27,29,27.3,29.2,27.6,29.1z"/>
	<path class="st0" d="M27.8,29.7l2.5-0.5c0.3-0.1,0.4-0.4,0.4-0.6s-0.4-0.4-0.6-0.4l-2.5,0.5c-0.3,0.1-0.4,0.3-0.4,0.6c0,0,0,0,0,0
		C27.3,29.6,27.5,29.7,27.8,29.7L27.8,29.7z"/>
	<path class="st0" d="M27.7,30.5l2.9-0.7c0.3-0.1,0.4-0.4,0.4-0.6c-0.1-0.3-0.4-0.4-0.6-0.4c-1,0.2-2,0.5-2.9,0.7
		c-0.3,0.1-0.4,0.4-0.4,0.6C27.2,30.4,27.5,30.5,27.7,30.5z"/>
	<path class="st0" d="M28.2,30.9c0.8-0.2,1.6-0.3,2.4-0.6c0.3-0.1,0.4-0.4,0.4-0.6c-0.1-0.3-0.4-0.4-0.6-0.4
		c-0.8,0.3-1.6,0.3-2.4,0.6c-0.3,0.1-0.4,0.4-0.4,0.6C27.6,30.8,27.9,31,28.2,30.9z"/>
	<path class="st0" d="M28.2,31.6c0.4-0.1,0.8-0.2,1.2-0.3c0.5-0.1,0.9-0.3,1.3-0.4c0.1-0.1,0.2-0.2,0.2-0.3c0-0.1,0-0.3,0-0.4
		c-0.1-0.2-0.4-0.3-0.7-0.2c0.2-0.1,0,0,0,0L30,30l-0.3,0.1L29,30.3c-0.4,0.1-0.8,0.2-1.1,0.3c-0.3,0.1-0.4,0.4-0.4,0.6
		C27.6,31.5,27.9,31.7,28.2,31.6L28.2,31.6z"/>
	<path class="st0" d="M28.4,32c0.8-0.2,1.6-0.4,2.4-0.8c0.2-0.1,0.3-0.4,0.2-0.7c-0.1-0.2-0.4-0.3-0.7-0.2h-0.1c-0.1,0,0.1,0,0,0
		l-0.1,0l-0.3,0.1l-0.6,0.2c-0.3,0.1-0.7,0.2-1,0.3c-0.3,0.1-0.4,0.3-0.4,0.6c0,0,0,0,0,0C27.8,31.9,28.1,32,28.4,32L28.4,32z"/>
	<path class="st0" d="M53.3,16.1c0.2-1-0.5-1.9-0.7-2.8c-0.1-0.4,0-0.9,0.1-1.3c0.2-0.3,0.4-0.6,0.6-0.9c0.1-0.1,0.1-0.1-0.1-0.1
		l0.1,0.1l0.2,0.2c0.1,0.2,0.2,0.3,0.3,0.5c0.1,0.4,0.2,0.7,0.2,1.1c0,0.4-0.2,0.8-0.4,1.1c-0.2,0.3-0.5,0.8-0.9,0.8
		c-0.3,0.1-0.5,0.3-0.4,0.6c0,0.2,0.2,0.4,0.4,0.4c1,0,1.7-1.1,2-1.9c0.4-0.8,0.4-1.8,0-2.6c-0.2-0.4-0.4-0.8-0.7-1.1
		c-0.2-0.2-0.4-0.3-0.6-0.3c-0.3,0-0.5,0.1-0.7,0.3c-0.7,0.6-1.1,1.4-1.1,2.4c0,0.5,0.1,1.1,0.3,1.6c0.2,0.4,0.6,1,0.5,1.5
		C52.2,16.3,53.2,16.7,53.3,16.1L53.3,16.1z"/>
	<path class="st0" d="M52.9,16.3c1-0.2,1.4-1.1,2.2-1.6c0.4-0.2,0.8-0.4,1.2-0.4c0.5-0.1,0.9,0,1.3,0.3l-0.1-0.2c0-0.1,0-0.1,0,0
		c0,0,0,0.1,0,0.1c0,0.1-0.1,0.1-0.1,0.2c-0.1,0.2-0.2,0.3-0.3,0.4c-0.3,0.3-0.6,0.5-0.9,0.6c-0.4,0.1-0.9,0.2-1.3,0.1
		c-0.2,0-0.4-0.1-0.7-0.2c-0.1,0-0.3-0.1-0.3-0.2c-0.1-0.3-0.4-0.4-0.6-0.4c-0.3,0.1-0.4,0.4-0.3,0.6c0.4,0.9,1.6,1.2,2.5,1.2
		c0.9,0,1.8-0.4,2.5-1.1c0.3-0.3,0.5-0.7,0.7-1.2c0.2-0.6-0.2-0.9-0.7-1.2c-0.9-0.4-2-0.3-2.9,0.2c-0.4,0.2-0.9,0.5-1.2,0.9
		c-0.3,0.3-0.6,0.7-1,0.8c-0.3,0.1-0.4,0.4-0.4,0.6C52.4,16.3,52.7,16.4,52.9,16.3L52.9,16.3z"/>
	<path class="st0" d="M52.4,15.9c0.4,0.7,1.1,0.8,1.8,1.1c0.6,0.3,1.2,0.7,1.5,1.3c0.2,0.3,0.2,0.7,0.2,1c0,0.1,0,0.1,0,0.2l0,0
		c0,0.1,0,0,0.2-0.1c0,0,0.1,0,0,0s-0.3,0-0.5,0c-0.7-0.1-1.3-0.5-1.6-1.1c-0.2-0.3-0.3-0.7-0.4-1.1c0-0.2,0-0.4,0-0.5
		c0-0.1,0-0.2,0.1-0.3c0.5-0.5-0.2-1.2-0.7-0.7c-0.7,0.7-0.4,2-0.1,2.7c0.4,0.9,1.1,1.5,2,1.9c0.4,0.2,0.9,0.2,1.4,0.2
		c0.6-0.1,0.8-0.7,0.7-1.2c0-1-0.5-1.9-1.3-2.5c-0.4-0.3-0.9-0.6-1.4-0.8c-0.2-0.1-0.4-0.1-0.5-0.2l-0.1-0.1l-0.1-0.1
		c-0.1-0.1-0.1-0.1-0.2-0.2C52.9,14.9,52.1,15.4,52.4,15.9L52.4,15.9z"/>
	<path class="st0" d="M53.1,14.9c-0.6,0.4-0.9,1-1.1,1.6c-0.3,0.7-0.8,1.2-1.4,1.5c-0.3,0.1-0.7,0.2-1,0.2c-0.1,0-0.1,0-0.2,0
		c-0.1,0-0.1-0.1,0,0.1s0.1,0.1,0.1,0.1c0-0.1,0-0.2,0-0.2v-0.2c0.1-0.7,0.6-1.2,1.1-1.6c0.3-0.2,0.7-0.3,1.1-0.4c0.2,0,0.4,0,0.6,0
		c0.1,0,0.2,0.1,0.3,0.1c0.2,0.2,0.5,0.2,0.7,0c0.2-0.2,0.2-0.5,0-0.7C53,15,52.5,14.8,52,14.9c-0.5,0-0.9,0.1-1.4,0.3
		c-0.9,0.4-1.6,1.1-2,2c-0.2,0.4-0.2,0.9-0.2,1.3c0.1,0.6,0.7,0.8,1.2,0.8c1,0,2-0.4,2.6-1.2c0.3-0.4,0.6-0.9,0.8-1.4
		c0.1-0.2,0.2-0.4,0.3-0.5c0.1-0.2,0.2-0.3,0.3-0.4c0.2-0.1,0.3-0.4,0.2-0.7C53.7,14.8,53.4,14.7,53.1,14.9L53.1,14.9L53.1,14.9z"/>
	<path class="st0" d="M53.4,15c-0.7-0.2-1.5-0.2-2.3,0.1c-0.7,0.1-1.4,0-2-0.4c-0.2-0.2-0.5-0.4-0.6-0.6c0-0.1-0.1-0.3-0.1-0.1
		s0,0.1,0.1,0c0.1-0.1,0.3-0.2,0.4-0.2c0.6-0.2,1.2-0.2,1.8,0c0.3,0.1,0.6,0.3,0.9,0.6c0.2,0.2,0.6,0.6,0.5,0.8
		c-0.1,0.3,0.1,0.5,0.4,0.6c0.3,0.1,0.5-0.1,0.6-0.4c0.2-0.9-0.7-1.8-1.4-2.3c-0.8-0.5-1.7-0.7-2.6-0.5c-0.4,0.1-0.9,0.3-1.2,0.5
		c-0.2,0.1-0.4,0.3-0.5,0.5c0,0.3,0,0.6,0.2,0.8c0.5,0.8,1.3,1.4,2.2,1.6c0.5,0.1,1.1,0.1,1.7,0c0.4-0.1,1-0.3,1.4-0.1
		c0.2,0.1,0.5,0.1,0.7-0.2C53.7,15.4,53.6,15.1,53.4,15C53.4,15,53.4,15,53.4,15L53.4,15z"/>
	<path class="st0" d="M20.5,62.2c5.6,3.1,11.9,4.6,18.3,4.3c6.2-0.1,12.3-2.1,17.3-5.8c0.5-0.4,0-1.3-0.5-0.9
		c-4.9,3.5-10.8,5.5-16.8,5.6c-6.2,0.3-12.4-1.1-17.8-4.1c-0.3-0.1-0.6,0-0.7,0.3C20.2,61.8,20.3,62.1,20.5,62.2L20.5,62.2z"/>
	<path class="st0" d="M47.5,11.2c-9.5-3.3-20-1.7-27.9,4.4c-6.9,5.5-11,13.7-11.2,22.5C8.3,43.8,9.9,49.5,13,54.3
		c0.3,0.5,1.2,0,0.9-0.5c-5-7.9-5.8-17.8-2.1-26.4c6-13.6,21.5-20.2,35.5-15.2C47.9,12.4,48.2,11.4,47.5,11.2L47.5,11.2z"/>
	<path class="st0" d="M51.5,47.2c-1,2.6-2.2,5.7-1,8.4c0.9,2.1,3.1,3.4,5.3,3.3c2.1-0.1,3.9-1.3,4.7-3.2c0.7-1.8,0.2-5.3-2.3-5.5
		c-2.6-0.2-2.4,3.2-1.1,4.5c1.9,1.9,4.9,0.8,6.6-0.7c4.1-3.5,4.4-10.2,3.9-15.1c-0.7-7.4-4.5-14.5-9.3-20c-0.4-0.5-1.2,0.2-0.7,0.7
		c6.3,7.1,10.4,16.8,8.8,26.3c-0.3,2-0.9,4-2,5.7c-1.1,1.7-3.4,3.6-5.6,3c-1-0.3-2.2-1.6-1.7-2.7s1.5-0.6,1.9,0
		c0.5,0.6,0.7,1.4,0.7,2.2c0,1.8-1.3,3.3-3,3.7c-2.2,0.6-4.5-0.5-5.4-2.5c-1.1-2.5,0.1-5.4,1-7.7C52.7,46.9,51.8,46.6,51.5,47.2
		L51.5,47.2z"/>
	<path class="st0" d="M67.6,37c0.3-1-0.4-1.9-0.4-2.9c0-0.4,0.1-0.8,0.3-1.2c0.1-0.2,0.2-0.3,0.3-0.5l0.2-0.2l0.1-0.1h0.1l0,0
		l-0.3-0.1c0.3,0.1,0.5,0.6,0.6,0.9c0.1,0.4,0.1,0.7,0,1.1c-0.1,0.4-0.2,0.7-0.5,1.1c-0.2,0.3-0.6,0.7-0.9,0.7
		c-0.3-0.1-0.5,0.1-0.6,0.4s0.1,0.5,0.4,0.6c0.1,0,0.1,0,0.2,0c0.9,0.1,1.7-0.9,2.1-1.7c0.4-0.8,0.5-1.8,0.2-2.6
		c-0.2-0.4-0.4-0.8-0.7-1.1c-0.2-0.2-0.4-0.3-0.6-0.3c-0.2,0-0.5,0.1-0.7,0.3c-0.7,0.5-1.2,1.4-1.3,2.3c-0.1,0.5,0,1.1,0.2,1.6
		c0.1,0.5,0.4,1,0.3,1.4S67.4,37.7,67.6,37L67.6,37z"/>
	<path class="st0" d="M65.9,32c-0.3-0.2-0.6-0.5-0.8-0.8c-0.2-0.4-0.5-0.8-0.9-1.2c-0.7-0.8-1.7-1.2-2.7-1.3c-0.5,0-1.3,0-1.5,0.6
		c-0.1,0.5,0,1,0.3,1.4c0.4,0.9,1.2,1.6,2.2,2c0.5,0.2,1,0.3,1.6,0.3c0.6,0.1,1.2-0.2,1.5-0.6c0.1-0.2,0.1-0.5-0.2-0.7
		c-0.2-0.1-0.5-0.1-0.7,0.2C64.7,32,64.4,32,64.3,32c-0.2,0-0.5,0-0.7,0c-0.5-0.1-0.9-0.2-1.3-0.4c-0.4-0.2-0.7-0.5-0.9-0.9
		c-0.1-0.2-0.2-0.3-0.3-0.5l-0.1-0.3c0-0.1,0-0.1,0-0.2c0-0.1,0-0.1,0,0l-0.2,0.2c0.2-0.1,0.4-0.1,0.7-0.1c0.2,0,0.5,0.1,0.7,0.1
		c0.5,0.2,0.9,0.5,1.2,0.8c0.7,0.7,1,1.8,1.9,2.2c0.2,0.1,0.5,0.1,0.7-0.2C66.2,32.5,66.2,32.2,65.9,32L65.9,32z"/>
	<path class="st0" d="M20.4,15.2c-1.1-0.3-2,0.5-3.1,0.6c-0.5,0-1,0-1.4-0.2c-0.2-0.1-0.4-0.2-0.6-0.3c-0.1-0.1-0.2-0.1-0.2-0.2
		c0-0.1-0.1-0.2-0.1-0.1l-0.1,0.3c0.1-0.3,0.7-0.6,1-0.7c0.4-0.1,0.9-0.2,1.3-0.1c0.4,0.1,0.9,0.2,1.3,0.5c0.3,0.2,0.8,0.5,0.8,0.8
		c0,0.7,1,0.7,1,0c0-1-1.1-1.7-1.9-2c-0.9-0.4-1.9-0.4-2.8-0.1c-0.5,0.2-0.9,0.4-1.2,0.7c-0.2,0.1-0.3,0.3-0.4,0.6
		c0,0.3,0.1,0.5,0.3,0.7c0.6,0.7,1.5,1.2,2.5,1.2c0.6,0,1.2,0,1.8-0.2c0.5-0.2,1.1-0.5,1.6-0.4S21,15.4,20.4,15.2z"/>
	<path class="st0" d="M11.5,26.5c0.1,0.1,0.1,0.2,0.1,0.3c0,0.2,0.1,0.3,0.1,0.5c0,0.4,0.1,0.8,0.3,1.2c0.3,0.8,0.9,1.5,1.7,1.9
		c0.4,0.2,1,0.4,1.4,0c0.3-0.4,0.4-0.8,0.4-1.3c0-0.9-0.3-1.7-0.9-2.3c-0.3-0.3-0.7-0.6-1.2-0.8c-0.5-0.3-1-0.3-1.5-0.1
		c-0.2,0.2-0.3,0.5-0.1,0.7c0.1,0.2,0.4,0.3,0.6,0.2c0.1,0,0.2,0,0.3,0c0.1,0,0.3,0.1,0.4,0.1c0.3,0.1,0.5,0.3,0.7,0.4
		c0.4,0.4,0.7,1,0.7,1.6c0,0.1,0,0.3,0,0.4c0,0.1,0,0.2,0,0.2c0,0-0.1,0.1,0,0.1s0.2-0.2,0.2-0.2c-0.1,0-0.1,0-0.2,0l-0.2-0.1
		c-0.1-0.1-0.2-0.1-0.4-0.2c-0.5-0.4-0.8-0.9-0.9-1.5c-0.2-0.7-0.1-1.5-0.6-2.1s-1.1,0.2-0.7,0.7L11.5,26.5z"/>
	<path class="st0" d="M18.3,57.8c-0.1-0.4-0.1-0.7,0-1.1c0.1-0.5,0.1-1,0-1.5c-0.1-0.9-0.6-1.7-1.4-2.2c-0.4-0.3-0.9-0.5-1.4-0.2
		c-0.3,0.3-0.6,0.7-0.6,1.2c-0.2,0.9-0.1,1.8,0.4,2.6c0.5,0.8,1.5,1.8,2.5,1.5c0.3-0.1,0.4-0.4,0.4-0.6c-0.1-0.3-0.4-0.4-0.6-0.4
		c-0.2,0.1-0.5-0.2-0.7-0.3c-0.2-0.2-0.5-0.4-0.6-0.7c-0.3-0.5-0.5-1.1-0.4-1.7c0-0.1,0.1-0.3,0.1-0.4c0-0.1,0.1-0.1,0.1-0.2
		l0.1-0.1c0-0.1,0.1-0.1,0,0s0,0.1,0,0.1l0.2,0.1c0.1,0.1,0.2,0.2,0.3,0.3c0.5,0.5,0.7,1.1,0.7,1.8c0,0.8-0.4,1.6,0,2.4
		C17.7,58.8,18.5,58.3,18.3,57.8L18.3,57.8z"/>
	<path class="st0" d="M17.8,57.4c-0.4,0-0.8-0.2-1.1-0.4c-0.4-0.3-0.8-0.5-1.3-0.6c-0.9-0.3-1.9-0.1-2.7,0.4
		c-0.4,0.3-0.9,0.7-0.7,1.2c0.2,0.4,0.4,0.7,0.8,1c0.7,0.6,1.6,0.8,2.4,0.7c0.5-0.1,1-0.2,1.5-0.5c0.5-0.2,0.9-0.7,1-1.2
		c0.1-0.3-0.1-0.5-0.4-0.6c-0.3-0.1-0.5,0.1-0.6,0.3c0,0.4-0.5,0.6-0.9,0.7c-0.4,0.2-0.8,0.2-1.2,0.2c-0.4,0-0.7-0.1-1-0.3
		c-0.2-0.1-0.3-0.2-0.4-0.3c-0.1-0.1-0.1-0.1-0.2-0.2l-0.1-0.1c-0.1-0.1-0.1-0.1,0,0L13,57.9c0.2-0.3,0.6-0.5,1-0.6
		c0.4-0.1,0.9-0.1,1.3,0c0.9,0.2,1.6,1.1,2.5,1c0.3,0.1,0.5-0.1,0.6-0.4s-0.1-0.5-0.4-0.6C18,57.3,17.9,57.3,17.8,57.4L17.8,57.4z"
		/>
	<path class="st0" d="M17.3,57.6c-0.1,0.3-0.4,0.5-0.7,0.7c-0.4,0.2-0.7,0.5-1,0.9c-0.6,0.7-0.9,1.7-0.8,2.6
		c0.1,0.5,0.2,1.1,0.7,1.3c0.5,0.1,0.9,0,1.3-0.3c0.8-0.4,1.4-1.1,1.6-2c0.1-0.5,0.2-1.1,0.1-1.6c0-0.5-0.3-1.1-0.8-1.4
		c-0.3-0.1-0.6,0-0.7,0.2c-0.1,0.2,0,0.5,0.2,0.6c0.2,0.1,0.2,0.5,0.3,0.7c0,0.3,0,0.7-0.1,1c-0.2,0.6-0.5,1.1-1.1,1.4
		c-0.1,0.1-0.2,0.1-0.4,0.2l-0.2,0h-0.1c0,0,0.1,0.1,0.1,0.1s-0.1-0.4-0.1-0.5c0-0.2,0-0.3,0-0.5c0.1-0.6,0.4-1.2,0.9-1.6
		c0.6-0.5,1.3-0.8,1.6-1.6C18.5,57.2,17.5,57,17.3,57.6L17.3,57.6z"/>
	<path class="st0" d="M17,58c0.3,0.1,0.6,0.4,0.7,0.6c0.2,0.4,0.5,0.7,0.9,1c0.7,0.6,1.7,0.9,2.7,0.8c0.5-0.1,1.1-0.3,1.2-0.8
		c0-0.5-0.1-0.9-0.4-1.3c-0.5-0.8-1.2-1.3-2.1-1.5c-0.5-0.1-1.1-0.1-1.6,0c-0.5,0.1-1,0.3-1.3,0.8c-0.3,0.6,0.6,1.1,0.9,0.5
		c0.1-0.2,0.5-0.3,0.7-0.3c0.3-0.1,0.7-0.1,1,0c0.6,0.1,1.1,0.5,1.5,1c0.1,0.1,0.1,0.2,0.2,0.3c0,0.1,0.1,0.2,0.1,0.2v0.1v0.1
		l0.1-0.2l-0.5,0.2c-0.2,0-0.3,0-0.5,0c-0.7-0.1-1.3-0.4-1.7-0.9C18.4,58,18,57.3,17.2,57c-0.3,0-0.5,0.2-0.5,0.5
		C16.8,57.7,16.8,57.9,17,58z"/>
	<path class="st0" d="M17.8,57.9c0.3-0.2,0.6-0.2,1-0.2c0.5,0,0.9-0.1,1.4-0.2c0.9-0.3,1.6-0.9,2-1.7c0.2-0.4,0.5-1.1,0.1-1.5
		c-0.4-0.3-0.8-0.5-1.3-0.5c-0.9-0.1-1.9,0.3-2.5,0.9c-0.3,0.3-0.6,0.7-0.8,1.2c-0.3,0.5-0.3,1.1-0.1,1.6c0.1,0.2,0.5,0.3,0.7,0.2
		c0.2-0.2,0.3-0.5,0.2-0.7c-0.1-0.2,0.1-0.6,0.2-0.7c0.1-0.3,0.3-0.5,0.5-0.8c0.5-0.5,1.1-0.7,1.7-0.7c0.2,0,0.3,0,0.5,0.1l0.2,0.1
		c-0.5-0.2,0.1,0,0,0s0.1,0,0-0.1s-0.1-0.2-0.1-0.1s0,0.2-0.1,0.2c0,0.1,0,0.1-0.1,0.2c-0.1,0.1-0.2,0.3-0.2,0.4
		c-0.4,0.5-1,0.8-1.7,0.9c-0.4,0-0.7,0.1-1.1,0.1c-0.4,0-0.9,0.2-1.2,0.5c-0.2,0.2-0.2,0.5,0,0.7c0,0,0,0,0,0
		C17.3,58.1,17.6,58.1,17.8,57.9L17.8,57.9z"/>
</g>
</svg>
