<svg xmlns="http://www.w3.org/2000/svg" viewBox="0 0 76 76"><defs><style>.cls-1{fill:#fff;}</style></defs><g id="圖層_4" data-name="圖層 4"><path class="cls-1" d="M44.89,20.37a15.64,15.64,0,0,1,7.32,8.94,21,21,0,0,1,.89,6.49,3.94,3.94,0,0,0,.71,3c1.53,2,3.92,3.34,5.24,5.48,1,1.57-.78,2.51-2.2,2.47a5.36,5.36,0,0,1-4.11-2.31.76.76,0,0,0-1.41.38A8.82,8.82,0,0,1,47.45,52c-3,1.85-7.29,2.18-10.68,2.11A14,14,0,0,1,26.2,49.57a6.33,6.33,0,0,1-1.77-4.17c.06-1-1.42-1-1.52,0a6.49,6.49,0,0,1-1.81,3.8,1.94,1.94,0,0,1-2.24,0c-.89-.64-.88-2-.76-3A25.16,25.16,0,0,1,19.75,41a40.12,40.12,0,0,0,1.39-5.49c.68-3.43,1.38-6.81,3.29-9.81a15.68,15.68,0,0,1,7.93-6.33,15.3,15.3,0,0,1,12.53,1c.86.46,1.63-.85.77-1.31A17.15,17.15,0,0,0,23.12,25c-2.49,3.91-2.95,8.41-4,12.83-.56,2.35-1.63,4.51-2.24,6.84-.43,1.66-.67,4,.65,5.37a3.47,3.47,0,0,0,4.58.35,8.21,8.21,0,0,0,2.34-5H22.91c-.27,4.32,4.6,8,8.13,9.3a21.51,21.51,0,0,0,10.27.67c3-.4,6.18-1.06,8.42-3.22a10.61,10.61,0,0,0,3.12-7.35l-1.42.39A6.54,6.54,0,0,0,58.33,48c2.41-.69,3.24-3,1.72-5s-3.75-3.33-5.17-5.36a1.57,1.57,0,0,1-.28-1.24,24,24,0,0,0-.07-3.06,20.88,20.88,0,0,0-1.31-5.8,17.3,17.3,0,0,0-7.56-8.54A.76.76,0,0,0,44.89,20.37Z"/><path class="cls-1" d="M44.46,53.91A39.8,39.8,0,0,0,45,58.78l.08-.59c-.23.45-.48.89-.71,1.33A4.56,4.56,0,0,0,43.69,61c0,.4.39.75.76.75a.77.77,0,0,0,.76-.75.47.47,0,0,1-.05.26c0,.08,0,.09,0,.05a.73.73,0,0,1,0-.09l.12-.24c.11-.22.23-.44.35-.65.22-.42.45-.82.66-1.24a1.57,1.57,0,0,0,0-1.11c-.06-.38-.11-.76-.16-1.14-.1-1-.16-1.93-.22-2.89a.76.76,0,0,0-1.52,0Z"/><path class="cls-1" d="M45.57,59.23A18.19,18.19,0,0,1,48,60.61a.78.78,0,0,0,.58.08.81.81,0,0,0,.46-.35.76.76,0,0,0,.07-.59.81.81,0,0,0-.34-.45,18.87,18.87,0,0,0-2.38-1.38.76.76,0,0,0-.77,1.31Z"/><path class="cls-1" d="M32.17,54.82c.07,1.25.13,2.5.13,3.76l.22-.54c-.77.77-1.48,1.61-2.25,2.38a.76.76,0,0,0,1.07,1.07c.72-.72,1.37-1.49,2.09-2.21a1.15,1.15,0,0,0,.39-.77c0-.14,0-.29,0-.44l0-1.13c0-.7-.05-1.41-.09-2.12a.76.76,0,0,0-1.52,0Z"/><path class="cls-1" d="M32.77,59.48a12.78,12.78,0,0,1,1.72,1.73.75.75,0,0,0,.53.22.77.77,0,0,0,.54-.22.79.79,0,0,0,.22-.54l0-.2a.77.77,0,0,0-.19-.34,13.89,13.89,0,0,0-1.71-1.72.84.84,0,0,0-.54-.22.77.77,0,0,0-.54.22.76.76,0,0,0-.22.54.73.73,0,0,0,.22.53Z"/><path class="cls-1" d="M35.69,26.28a4.24,4.24,0,0,1,.62,0l.27,0c.13,0-.18,0,0,0l.16,0,.27.08c.06,0,.09,0,0,0a.27.27,0,0,1,.12.06.68.68,0,0,1,.19.11s-.13-.11,0,0l.09.1s-.09-.16,0,0l.06.11c.06.07,0-.17,0,0l0,.09v.05c0,.09,0,.07,0,0V27s0,.22,0,.08,0,.07,0,.11.09-.14,0,0l0,.07c-.05.11,0,0,0,0a.34.34,0,0,0-.08.09c-.07.08,0,0,0,0s-.09.07-.12.08l-.14.07s.16-.06,0,0l-.31.09-.61.12-.54.09c-.11,0,.2,0,0,0h-.1l-.3,0H35c-.13,0,.08,0,.08,0a.84.84,0,0,1-.2-.05s-.07,0-.07,0l.08,0,0,0-.08-.05c.16,0,.11.1.07.05a.73.73,0,0,0-.08-.09s.1.17,0,.06l0-.07c-.07-.11,0-.07,0,0s0-.17-.07-.23a.9.9,0,0,1,0-.16c0,.13,0,.06,0,0a.37.37,0,0,1,0-.11c0,.11,0,.13,0,0V27a.43.43,0,0,1,.05-.16l0,.08a.41.41,0,0,1,0-.09l.06-.1c.08-.14-.09.08,0,0l.12-.12s.18-.13,0,0a2.61,2.61,0,0,1,.28-.17s.17-.07,0,0l.18-.06.12,0s.3,0,.11,0a.78.78,0,0,0,.75-.76c0-.37-.33-.81-.75-.76A2.65,2.65,0,0,0,33.16,27a2,2,0,0,0,1.55,2.15,4.84,4.84,0,0,0,1.52-.06,6.88,6.88,0,0,0,1.43-.31,1.94,1.94,0,0,0,1.18-1.13,2.21,2.21,0,0,0,0-1.48c-.49-1.25-1.94-1.55-3.14-1.44a.77.77,0,0,0-.76.76A.76.76,0,0,0,35.69,26.28Z"/><path class="cls-1" d="M34.12,28.65a6.76,6.76,0,0,1,.56,3.13.51.51,0,1,0,1,0A8,8,0,0,0,35,28.14a.53.53,0,0,0-.7-.18.51.51,0,0,0-.18.69Z"/><path class="cls-1" d="M37.06,28.15a19,19,0,0,0,.2,3.45.51.51,0,0,0,.63.35.52.52,0,0,0,.35-.62,14.8,14.8,0,0,1-.17-1.54c0-.55,0-1.1,0-1.64a.51.51,0,1,0-1,0Z"/><path class="cls-1" d="M36.74,33.68c-.15,0,.2,0,0,0h-.11l-.25,0h-.37c-.21,0,.13,0,0,0l-.19,0-.12,0c-.14,0,.16.09,0,0l-.1-.06c-.16-.08,0,0,0,0l-.09-.08-.06-.06c0-.06,0,0,.05.05s-.14-.27-.09-.14,0,0,0-.05,0-.1,0-.15-.07-.19,0,0a.81.81,0,0,1,0-.16c0-.1,0-.21,0-.32,0,.2,0,.12,0,0a.45.45,0,0,0,0-.11c0-.13-.09.15,0,0a.25.25,0,0,0,0-.07c.06-.12,0,0,0,0s.07-.07.08-.08,0,.05,0,0l.12-.09.11-.05c.13-.07-.18.06,0,0l.26-.08.25,0a.44.44,0,0,1,.16,0c-.21,0,0,0,.08,0a5.16,5.16,0,0,1,.79,0h.26c.06,0,.2.05,0,0a.9.9,0,0,0,.16,0l.21.06c.13,0-.17-.09-.06,0l.08,0c.17.1-.11-.12,0,0l0,0c.12.09-.08-.15,0-.07a.83.83,0,0,0,.07.13c-.12-.16-.07-.18,0-.1a.14.14,0,0,1,0,.07,2.61,2.61,0,0,1,.06.27c-.06-.32,0-.06,0,0v.16c0,.09,0,.07,0,0a.3.3,0,0,1,0,.1l0,.15c0-.11,0-.13,0,0l0,.08,0,0,0,0s-.08.09-.1.11l-.11.11,0,0-.08.06a3.3,3.3,0,0,1-.32.18c-.16.08.16,0,0,0l-.19.06a2.09,2.09,0,0,1-.34.08.75.75,0,0,0-.53.93.77.77,0,0,0,.93.53,2.54,2.54,0,0,0,2.32-2.43,3,3,0,0,0-.24-1,1.62,1.62,0,0,0-.93-.79,3.6,3.6,0,0,0-1.53-.16,5.09,5.09,0,0,0-1.77.37,2.17,2.17,0,0,0-.83,2.94,2,2,0,0,0,1.33,1.08,4.17,4.17,0,0,0,1.65,0,.76.76,0,0,0,.53-.93A.77.77,0,0,0,36.74,33.68Z"/><path class="cls-1" d="M29.55,24l-.2.13-.11.05s-.13.06,0,0,0,0,0,0l-.09,0a.86.86,0,0,1-.17,0h0l.14,0-.12,0c.12,0,.11.05.06,0s.07.07,0,0,0-.05,0,.05l0,0c0-.07,0,.12,0,0a.19.19,0,0,1,0-.07l0,.13a.65.65,0,0,1,0-.14l0,.14s0-.07,0-.1.05-.12,0,0,0,0,0-.05l.05-.08c0-.06-.07.08,0,0l0,0a.23.23,0,0,1,.07-.07s-.11.07,0,0l0,0,.1-.06c.13-.07.27-.15.41-.21h0l.11,0,.2-.05-.13,0H30l-.13,0,.09,0c-.09,0-.11,0,0,0s-.09-.08-.05,0l0,0s-.08-.12,0,0,0,0,0,0,0,.06,0,.07l0-.13a.24.24,0,0,1,0,.12l0-.14a.36.36,0,0,0,0,.1c0-.09,0-.1,0-.06l0,.05a.43.43,0,0,0,0,.07l0,0s0,0,0,0l-.15.14-.05,0,0,0-.09.06a.53.53,0,0,0-.19.7.52.52,0,0,0,.7.18,2.36,2.36,0,0,0,.65-.61,1,1,0,0,0,.08-1,.86.86,0,0,0-.62-.49,1.41,1.41,0,0,0-.76.1,2.35,2.35,0,0,0-1.22.84,1,1,0,0,0,.24,1.42,1.62,1.62,0,0,0,1.63-.27.51.51,0,0,0-.51-.88Z"/><path class="cls-1" d="M42.81,22.42v0l0,.13s0-.12,0-.12-.06.14,0,.06.06-.06,0,.05l0,0c-.11.1-.09.07-.05.05s-.14,0-.07,0h.05l-.13,0a1.9,1.9,0,0,1,.39.11l0,0,0,0,.11.05.23.12.2.13c.07.06-.08-.06,0,0l0,0,.08.08,0,0s0,.08,0-.05a.56.56,0,0,0,0,.08l0-.06a.08.08,0,0,0,0,0s0,.07,0,.1l0-.13a.24.24,0,0,1,0,.12l0-.13a.07.07,0,0,1,0,.05c0,.09,0,0,0-.05l0,.05c0,.07.1-.11,0,0s.08-.05,0,0-.1,0,0,0,0,0,0,0H43.5l.13,0-.2,0s-.13-.05,0,0l0,0-.18-.1a.18.18,0,0,0-.07,0c.07,0,.08.06,0,0l0,0L43,22.73l-.07-.09c-.06-.07.06.1,0,0a.35.35,0,0,1,0-.08s0-.07,0-.1,0,.1,0,.06a.06.06,0,0,1,0,0l0-.11,0,.14v-.11a.51.51,0,0,0-1,0,1.31,1.31,0,0,0,.36.91,2.33,2.33,0,0,0,.58.5,1.76,1.76,0,0,0,.87.25,1,1,0,0,0,.68-1.74,3.13,3.13,0,0,0-1.17-.68,1.22,1.22,0,0,0-.73-.06.8.8,0,0,0-.44.32,1.12,1.12,0,0,0-.15.5.49.49,0,0,0,.15.36.53.53,0,0,0,.36.15.51.51,0,0,0,.35-.15A.61.61,0,0,0,42.81,22.42Z"/><path class="cls-1" d="M42.38,27a12.44,12.44,0,0,1,2.68.23l-.23-.84-.18.16a.51.51,0,0,0,.72.71l.18-.16a.51.51,0,0,0-.22-.84A13.28,13.28,0,0,0,42.38,26a.52.52,0,0,0-.51.51.5.5,0,0,0,.51.5Z"/><path class="cls-1" d="M42.05,27.67a24,24,0,0,1,3.17,0L45,26.71l-.33.17a.5.5,0,0,0,.51.87l.33-.17a.52.52,0,0,0,.24-.57.54.54,0,0,0-.49-.37,25.79,25.79,0,0,0-3.17,0,.51.51,0,0,0-.5.51.52.52,0,0,0,.5.51Z"/><path class="cls-1" d="M42.31,28.33l2.85-.13a.51.51,0,0,0,.5-.51.5.5,0,0,0-.5-.5l-2.85.12a.51.51,0,0,0,0,1Z"/><path class="cls-1" d="M42.78,28.86l2.45-.26a.52.52,0,0,0,.5-.51c0-.25-.22-.54-.5-.51l-2.45.27a.51.51,0,1,0,0,1Z"/><path class="cls-1" d="M42.5,29.35,45,29.08a.51.51,0,0,0,.5-.5c0-.25-.22-.54-.5-.51l-2.45.26a.53.53,0,0,0-.51.51.52.52,0,0,0,.51.51Z"/><path class="cls-1" d="M42.73,29.73l2.45-.26a.51.51,0,0,0,.5-.51.5.5,0,0,0-.5-.5l-2.45.26a.52.52,0,0,0-.51.51.5.5,0,0,0,.51.5Z"/><path class="cls-1" d="M42.39,30a8,8,0,0,0,3.12,0,.5.5,0,1,0-.27-1l-.35,0h0l-.11,0h-.16c-.22,0-.45,0-.67,0l-.68,0-.16,0H43L42.66,29a.52.52,0,0,0-.62.35.51.51,0,0,0,.35.63Z"/><path class="cls-1" d="M27.58,29.14a18.43,18.43,0,0,0,2.56-.52A.51.51,0,0,0,30.5,28a.52.52,0,0,0-.63-.35,17.06,17.06,0,0,1-2.56.51.51.51,0,0,0-.36.62.53.53,0,0,0,.63.36Z"/><path class="cls-1" d="M27.79,29.68l2.47-.5a.51.51,0,0,0-.27-1l-2.47.51a.5.5,0,0,0-.35.62.52.52,0,0,0,.62.35Z"/><path class="cls-1" d="M27.74,30.45l2.93-.71a.52.52,0,0,0,.36-.62.52.52,0,0,0-.63-.36c-1,.25-1.95.47-2.93.72a.51.51,0,0,0-.35.62.52.52,0,0,0,.62.35Z"/><path class="cls-1" d="M28.17,30.89c.8-.24,1.63-.31,2.41-.59a.52.52,0,0,0,.36-.62.51.51,0,0,0-.62-.35c-.78.28-1.62.34-2.41.58a.52.52,0,0,0-.36.63.52.52,0,0,0,.62.35Z"/><path class="cls-1" d="M28.19,31.58a11.77,11.77,0,0,1,1.16-.33,9.13,9.13,0,0,0,1.34-.44.47.47,0,0,0,.23-.3.53.53,0,0,0-.05-.39.52.52,0,0,0-.69-.18c.16-.07,0,0,0,0L30,30l-.3.09-.67.19c-.38.1-.76.19-1.13.32a.52.52,0,0,0-.35.63.51.51,0,0,0,.62.35Z"/><path class="cls-1" d="M28.36,32a11.41,11.41,0,0,0,2.41-.75.51.51,0,0,0,.18-.69.52.52,0,0,0-.69-.19l-.07,0c-.06,0,.09,0,0,0l-.13.05-.29.11-.63.2A9.85,9.85,0,0,1,28.1,31a.5.5,0,0,0-.36.62.52.52,0,0,0,.62.36Z"/><path class="cls-1" d="M53.29,16.09c.25-1-.54-1.85-.66-2.82A2.61,2.61,0,0,1,52.78,12a3.16,3.16,0,0,1,.64-.86c.13-.06.09-.09-.14-.07l.12.11.2.21a3.1,3.1,0,0,1,.29.5A2.43,2.43,0,0,1,54.07,13a2.76,2.76,0,0,1-.38,1.12c-.17.27-.51.81-.87.81a.51.51,0,0,0,0,1c1,0,1.68-1.06,2-1.85a3.43,3.43,0,0,0,0-2.65,3,3,0,0,0-.74-1.05,1,1,0,0,0-.61-.32,1.07,1.07,0,0,0-.71.31,3.2,3.2,0,0,0-1.13,2.36,3.94,3.94,0,0,0,.26,1.59c.16.43.56,1,.45,1.47s.82.9,1,.27Z"/><path class="cls-1" d="M52.94,16.34c1-.16,1.4-1.14,2.15-1.63a2.71,2.71,0,0,1,1.23-.43,1.73,1.73,0,0,1,1.31.33l-.13-.22c0-.09,0-.08,0,0a.78.78,0,0,1,0,.14,1.51,1.51,0,0,1-.11.22,2,2,0,0,1-.33.44,2.29,2.29,0,0,1-.92.61,2.73,2.73,0,0,1-1.33.11,2.52,2.52,0,0,1-.65-.18c-.08,0-.3-.11-.34-.21a.53.53,0,0,0-.63-.35.52.52,0,0,0-.35.62c.39.93,1.64,1.2,2.55,1.17a3.48,3.48,0,0,0,2.47-1.14,3.21,3.21,0,0,0,.67-1.16c.17-.6-.23-.94-.73-1.16a3.38,3.38,0,0,0-2.88.17,4.27,4.27,0,0,0-1.19.92c-.29.31-.56.69-1,.76a.51.51,0,0,0,.26,1Z"/><path class="cls-1" d="M52.36,15.92c.41.66,1.11.81,1.78,1.09a2.89,2.89,0,0,1,1.5,1.34,2,2,0,0,1,.21,1,1.49,1.49,0,0,0,0,.21v0c0,.1,0,.05.16-.15,0,0,.08,0,0,0s-.34,0-.5,0a2.41,2.41,0,0,1-1.64-1.07,3,3,0,0,1-.4-1.07,2.36,2.36,0,0,1,0-.53.51.51,0,0,1,.11-.34c.47-.46-.25-1.17-.72-.72-.69.67-.41,2-.07,2.72a3.43,3.43,0,0,0,2,1.86,3,3,0,0,0,1.39.16c.63-.09.75-.69.73-1.24a3.31,3.31,0,0,0-1.31-2.48,4.62,4.62,0,0,0-1.4-.75,5.11,5.11,0,0,1-.52-.21l-.13-.07-.08-.05a.54.54,0,0,1-.18-.2c-.34-.55-1.22,0-.88.51Z"/><path class="cls-1" d="M53.13,14.85A3,3,0,0,0,52,16.48,3,3,0,0,1,50.58,18a2.23,2.23,0,0,1-1,.17.69.69,0,0,1-.2,0c-.08,0-.14-.07,0,.06s.07.11.09.07a1,1,0,0,0,0-.24l0-.25a2.4,2.4,0,0,1,1.13-1.56,2.84,2.84,0,0,1,1.06-.36,3.42,3.42,0,0,1,.64,0,.59.59,0,0,1,.3.13.51.51,0,0,0,.72,0,.51.51,0,0,0,0-.71,1.7,1.7,0,0,0-1.3-.44,3.89,3.89,0,0,0-1.39.26,3.46,3.46,0,0,0-2,2,2.77,2.77,0,0,0-.19,1.34c.08.63.67.75,1.21.75A3.36,3.36,0,0,0,52.24,18a4.87,4.87,0,0,0,.8-1.35,4.55,4.55,0,0,1,.26-.55.87.87,0,0,1,.34-.37.5.5,0,0,0-.51-.87Z"/><path class="cls-1" d="M53.36,15a3.72,3.72,0,0,0-2.26.05,2.84,2.84,0,0,1-2-.42,2.07,2.07,0,0,1-.61-.64c0-.1-.09-.3-.13-.11s0,.08.1,0a2.74,2.74,0,0,1,.42-.21,2.41,2.41,0,0,1,1.81,0,2.68,2.68,0,0,1,.88.61c.17.18.56.57.5.84a.53.53,0,0,0,.36.63.51.51,0,0,0,.62-.36c.2-.94-.65-1.84-1.38-2.33a3.49,3.49,0,0,0-2.59-.54,3.12,3.12,0,0,0-1.23.52,1,1,0,0,0-.45.54,1.11,1.11,0,0,0,.18.79A3.26,3.26,0,0,0,49.79,16a4.36,4.36,0,0,0,1.65,0c.42-.07,1-.33,1.41-.14a.51.51,0,0,0,.69-.18.5.5,0,0,0-.18-.69Z"/><path class="cls-1" d="M20.5,62.2a34.65,34.65,0,0,0,18.32,4.29,31,31,0,0,0,17.34-5.77c.52-.38,0-1.26-.51-.88a30,30,0,0,1-16.83,5.64A33.69,33.69,0,0,1,21,61.33a.51.51,0,0,0-.52.87Z"/><path class="cls-1" d="M47.5,11.18a29.7,29.7,0,0,0-27.92,4.44A29.72,29.72,0,0,0,8.37,38.12,29,29,0,0,0,13,54.29c.34.55,1.22,0,.87-.51a28.26,28.26,0,0,1-2.05-26.42,28.35,28.35,0,0,1,35.46-15.2c.61.23.88-.75.27-1Z"/><path class="cls-1" d="M51.54,47.19c-1,2.58-2.16,5.66-1,8.39a5.5,5.5,0,0,0,5.35,3.29,5.2,5.2,0,0,0,4.67-3.2c.68-1.81.15-5.32-2.26-5.54-2.62-.24-2.4,3.15-1.11,4.47,1.87,1.91,4.9.79,6.64-.7,4.06-3.46,4.38-10.23,3.91-15.13-.72-7.39-4.45-14.49-9.29-20-.43-.49-1.15.23-.72.71C64,26.58,68.09,36.26,66.56,45.82a14.76,14.76,0,0,1-2,5.69c-1.11,1.71-3.41,3.6-5.61,3-1-.28-2.16-1.61-1.72-2.74s1.47-.56,1.93,0A3.63,3.63,0,0,1,59.84,54a3.86,3.86,0,0,1-3,3.7,4.53,4.53,0,0,1-5.38-2.52c-1.06-2.48.13-5.37,1.05-7.72.23-.6-.74-.87-1-.27Z"/><path class="cls-1" d="M67.61,37.05c.32-1-.43-1.89-.45-2.87A2.43,2.43,0,0,1,67.45,33a2.61,2.61,0,0,1,.34-.46l.21-.19.11-.07.07,0s0,0,0,0l-.26-.07c.31.14.51.63.61.94a2.32,2.32,0,0,1,0,1.11,2.64,2.64,0,0,1-.49,1.06c-.2.26-.55.69-.91.66a.51.51,0,1,0,0,1c.9.08,1.73-.92,2.09-1.65a3.41,3.41,0,0,0,.18-2.62,3.18,3.18,0,0,0-.71-1.15.87.87,0,0,0-.63-.31,1.2,1.2,0,0,0-.67.29,3.23,3.23,0,0,0-1.27,2.28,3.83,3.83,0,0,0,.17,1.58c.14.45.45,1,.29,1.43s.78.89,1,.27Z"/><path class="cls-1" d="M65.87,32a1.9,1.9,0,0,1-.79-.82A6.45,6.45,0,0,0,64.22,30a4.08,4.08,0,0,0-2.71-1.28c-.49,0-1.28,0-1.46.59a2.13,2.13,0,0,0,.28,1.41,3.94,3.94,0,0,0,2.15,2,4.32,4.32,0,0,0,1.59.3,1.78,1.78,0,0,0,1.53-.62.51.51,0,0,0-.18-.69.52.52,0,0,0-.69.18c-.06.08-.28.09-.38.1a4,4,0,0,1-.69,0,3.25,3.25,0,0,1-1.28-.44,2.84,2.84,0,0,1-.93-.86,3,3,0,0,1-.29-.53l-.09-.29a.58.58,0,0,0,0-.19c0-.06,0-.06,0,0l-.18.18a1.3,1.3,0,0,1,.68-.1,3.06,3.06,0,0,1,.72.14,3.24,3.24,0,0,1,1.25.82c.66.67,1,1.76,1.88,2.16a.51.51,0,0,0,.69-.18.51.51,0,0,0-.18-.69Z"/><path class="cls-1" d="M20.36,15.24c-1.09-.26-2,.51-3.1.58a3.15,3.15,0,0,1-1.43-.2,2.59,2.59,0,0,1-.58-.34,2.29,2.29,0,0,1-.23-.21c0-.05-.13-.21-.14-.14l-.07.26c.15-.33.67-.55,1-.66a2.91,2.91,0,0,1,1.31-.13,3,3,0,0,1,1.26.46c.27.16.81.49.8.84,0,.65,1,.65,1,0,0-1-1.12-1.7-1.91-2a3.92,3.92,0,0,0-2.78-.11,3.58,3.58,0,0,0-1.25.73,1.08,1.08,0,0,0-.36.57.91.91,0,0,0,.28.74,3.54,3.54,0,0,0,2.51,1.22,4.61,4.61,0,0,0,1.81-.23c.5-.16,1.07-.51,1.61-.38s.9-.82.27-1Z"/><path class="cls-1" d="M11.5,26.45a.63.63,0,0,1,.15.33,3.25,3.25,0,0,1,.07.48A4.76,4.76,0,0,0,12,28.5a3.18,3.18,0,0,0,1.67,1.87c.4.18,1,.39,1.4.05a1.92,1.92,0,0,0,.39-1.27,3.16,3.16,0,0,0-.94-2.3,3.53,3.53,0,0,0-1.17-.76A1.69,1.69,0,0,0,11.83,26a.51.51,0,0,0,.51.88.38.38,0,0,1,.26,0A2.3,2.3,0,0,1,13,27a2.6,2.6,0,0,1,.7.44A2.21,2.21,0,0,1,14.4,29a1.58,1.58,0,0,1,0,.38,1.89,1.89,0,0,1,0,.23s-.05.1,0,.12.18-.18.2-.16a.69.69,0,0,0-.18,0l-.24-.08a1.82,1.82,0,0,1-.35-.2,2.41,2.41,0,0,1-.91-1.48c-.16-.71-.05-1.47-.59-2.06s-1.15.24-.71.72Z"/><path class="cls-1" d="M18.27,57.75a1.91,1.91,0,0,1,0-1.11,4.83,4.83,0,0,0,0-1.47,3.31,3.31,0,0,0-1.39-2.23c-.39-.27-.94-.54-1.36-.2a2.28,2.28,0,0,0-.64,1.19,3.31,3.31,0,0,0,.38,2.57c.48.79,1.53,1.78,2.53,1.52a.5.5,0,0,0-.27-1c-.23.06-.55-.2-.73-.34a2.6,2.6,0,0,1-.62-.66,2.36,2.36,0,0,1-.35-1.74,3,3,0,0,1,.12-.4,2.12,2.12,0,0,1,.11-.21l.06-.1c.05-.07.13-.13,0-.05s-.05.06.05.11l.19.11a2.08,2.08,0,0,1,.32.27,2.5,2.5,0,0,1,.68,1.78c0,.84-.38,1.64,0,2.44.31.57,1.18.06.87-.51Z"/><path class="cls-1" d="M17.8,57.4A1.75,1.75,0,0,1,16.74,57a4.43,4.43,0,0,0-1.29-.59,3.31,3.31,0,0,0-2.66.37c-.39.26-.88.65-.72,1.18a2.34,2.34,0,0,0,.8,1,3.33,3.33,0,0,0,2.45.71,3.92,3.92,0,0,0,1.48-.49,1.88,1.88,0,0,0,1-1.18.52.52,0,0,0-.36-.62.51.51,0,0,0-.62.35c0,.37-.55.6-.85.73a2.67,2.67,0,0,1-1.18.22,2.34,2.34,0,0,1-1-.32,2.18,2.18,0,0,1-.45-.35,1.63,1.63,0,0,1-.17-.2l-.09-.13c-.05-.08-.05-.08,0,0l-.07.26a1.56,1.56,0,0,1,1-.59,2.36,2.36,0,0,1,1.29,0c.88.25,1.56,1.12,2.53,1a.51.51,0,1,0,0-1Z"/><path class="cls-1" d="M17.28,57.6c-.1.32-.43.51-.68.68a4.89,4.89,0,0,0-1,.86,3.41,3.41,0,0,0-.84,2.6c.06.46.2,1.12.7,1.27a2,2,0,0,0,1.34-.29,3.39,3.39,0,0,0,1.65-2,3.87,3.87,0,0,0,.09-1.59,1.8,1.8,0,0,0-.75-1.37.51.51,0,0,0-.51.88c.21.12.25.52.28.73a2.64,2.64,0,0,1-.07,1,2.31,2.31,0,0,1-1.07,1.43,1.76,1.76,0,0,1-.37.17L15.8,62l-.07,0s.14.06.14.07-.12-.43-.12-.48a2.09,2.09,0,0,1,0-.5,2.61,2.61,0,0,1,.93-1.64c.58-.52,1.33-.8,1.58-1.61.19-.62-.79-.89-1-.27Z"/><path class="cls-1" d="M17,58a1.54,1.54,0,0,1,.72.64,4.91,4.91,0,0,0,.87,1,3.42,3.42,0,0,0,2.69.78c.47-.08,1.12-.27,1.23-.8a2.12,2.12,0,0,0-.37-1.3,3.34,3.34,0,0,0-2.07-1.54,3.89,3.89,0,0,0-1.63,0,1.84,1.84,0,0,0-1.31.78c-.3.58.57,1.09.88.51.12-.23.51-.28.74-.32a2.69,2.69,0,0,1,1,0,2.33,2.33,0,0,1,1.48,1,2.11,2.11,0,0,1,.18.33,1.55,1.55,0,0,1,.08.23l0,.11v.07l.09-.21-.47.15a2.27,2.27,0,0,1-.52,0,2.62,2.62,0,0,1-1.7-.88c-.52-.56-.85-1.28-1.64-1.5A.51.51,0,0,0,17,58Z"/><path class="cls-1" d="M17.79,57.94a1.6,1.6,0,0,1,.95-.18,4.74,4.74,0,0,0,1.35-.2,3.35,3.35,0,0,0,2-1.7c.2-.41.45-1.07.09-1.47a2.15,2.15,0,0,0-1.32-.47,3.33,3.33,0,0,0-2.53.91A3.85,3.85,0,0,0,17.55,56a1.9,1.9,0,0,0-.13,1.64.52.52,0,0,0,.7.19.54.54,0,0,0,.18-.7c-.1-.19.1-.56.18-.74a3.08,3.08,0,0,1,.53-.75,2.33,2.33,0,0,1,1.74-.68,1.74,1.74,0,0,1,.45.06l.24.08c-.52-.23.06,0,0,0s.07,0,0-.09-.07-.15-.07-.08,0,.17-.06.24a1.46,1.46,0,0,1-.07.19,2.22,2.22,0,0,1-.25.42,2.59,2.59,0,0,1-1.66.93,9.79,9.79,0,0,1-1.08.07,2.07,2.07,0,0,0-1.2.46.5.5,0,0,0,0,.71.52.52,0,0,0,.72,0Z"/></g></svg>