<?xml version="1.0" encoding="utf-8"?>
<!-- Generator: Adobe Illustrator 24.1.2, SVG Export Plug-In . SVG Version: 6.00 Build 0)  -->
<svg version="1.1" id="圖層_1" xmlns="http://www.w3.org/2000/svg" xmlns:xlink="http://www.w3.org/1999/xlink" x="0px" y="0px"
	 viewBox="0 0 100 100" style="enable-background:new 0 0 100 100;" xml:space="preserve">
<style type="text/css">
	.st0{display:none;}
	.st1{display:inline;fill:#FFFFFF;}
	.st2{display:none;fill:#FFFFFF;}
	.st3{fill:#FFFFFF;}
</style>
<g class="st0">
	<path class="st1" d="M86.5,53.9c-5.6,2.3-11,1.8-16.1-1.4c-0.4-0.3-0.7-0.2-1.1,0c-1.8,1.2-3.8,2-5.9,2.3c-4.7,0.8-9,0.2-13.1-2.4
		c-0.3-0.2-0.5-0.2-0.8,0c-0.6,0.4-1.3,0.8-1.9,1.1c-5.9,2.5-11.6,2.3-17-1c-0.4-0.2-0.6-0.2-1,0c-5.1,3.2-10.5,3.7-16.1,1.4
		c-0.6-0.2-0.7-0.2-0.6,0.4c0,4.6,0,9.1,0,13.7c0,4.5,0,9.1,0,13.6c0,3.2,2.4,5.5,5.6,5.5c6.7,0,13.5,0,20.2,0
		c0.6,0,0.7-0.2,0.7-0.8c0-6.6,0-13.1,0-19.7c0-0.6,0.2-0.8,0.8-0.8c6.6,0,13.1,0,19.7,0c0.6,0,0.8,0.2,0.8,0.8c0,6.6,0,13.1,0,19.7
		c0,0.6,0.1,0.8,0.7,0.8c6.7,0,13.5,0,20.2,0c3.2,0,5.6-2.3,5.6-5.5c0-9.1,0-18.3,0-27.4C87.1,53.7,87,53.7,86.5,53.9z"/>
	<path class="st1" d="M90.4,28.4c-0.9-3.7-1.9-7.4-2.7-11.1c-0.6-2.7-2.9-4.5-5.8-4.5c-10.6,0.1-21.2,0-31.8,0c-10.7,0-21.3,0-32,0
		c-0.5,0-0.9,0-1.4,0.1c-2.4,0.6-3.8,2.2-4.3,4.6c-1.2,5.1-2.6,10.3-3.8,15.4c-0.3,1.3-0.9,2.6-0.8,3.9c0,3.1,1,5.9,3,8.4
		c2.4,3,5.6,4.7,9.4,4.7c3.9,0,7.1-1.6,9.7-4.6c0.4-0.4,0.5-0.5,0.9,0c2.3,2.8,5.3,4.4,8.9,4.6c4.1,0.2,7.5-1.5,10.1-4.6
		c0.3-0.4,0.5-0.4,0.8,0c1,1.2,2.1,2.3,3.5,3c3,1.7,6,2.1,9.3,1.2c2.6-0.7,4.6-2.2,6.3-4.2c0.3-0.3,0.4-0.4,0.7,0
		c0.4,0.6,0.9,1,1.4,1.5c2.7,2.4,5.8,3.6,9.3,3.1c5.5-0.7,9.1-4,10.8-9.2c0.6-1.8,0.9-3.7,0.3-5.6C91.5,32.9,90.9,30.6,90.4,28.4z
		 M34.8,30.3c-0.3,0.1-0.6,0.1-0.9,0.1c-2.3,0-4.6,0-7,0s-4.6,0-7,0c-2.1,0-3.7-1.5-3.9-3.4c-0.2-2,1.2-3.8,3.3-4.1
		c0.4-0.1,0.4-0.2,0.3-0.5c-0.7-3.1,1.7-5.8,4.6-5.7c1.7,0.1,3,0.9,3.8,2.4c0.3,0.5,0.5,0.5,1,0.4c1.6-0.4,3.3,0.4,3.9,2
		c0.2,0.5,0.4,0.6,0.9,0.5c2.2-0.1,4.1,1.6,4.4,3.7C38.4,27.9,36.9,29.9,34.8,30.3z M78.1,41.1c-7.1,0-14.2,0-21.2,0
		c-3.3,0-5.9-2.2-6.2-5.3c-0.3-3.2,1.9-6,5-6.4c0.2,0,0.4-0.1,0.6-0.1c-0.6-2.1-0.5-4.2,0.7-6c1.6-2.5,4-3.5,6.9-3.2
		c2.5,0.3,4.2,1.7,5.3,3.9c0.2,0.5,0.4,0.6,0.9,0.4c2.7-0.9,5.6,0.6,6.5,3.4c0.1,0.4,0.2,0.6,0.7,0.6c3.2-0.5,6.4,1.9,7,5
		C85.3,37.4,82.3,41.1,78.1,41.1z"/>
</g>
<path id="联合_3" class="st2" d="M29.5,95.9c-7.2,0.5-14.1-2.5-18.7-8c-0.9-1-2.1-1.7-3.3-1.9c-0.5-0.1-1-0.3-1.5-0.4
	C4.8,85.4,4,84.4,4,83.3c-0.1-1.2,0.7-2.2,1.9-2.4c2.5-0.6,4.8-1.9,6.5-3.9c3.9-4,9.1-6.3,14.7-6.4c4.6-0.2,9.1,0,13.3,2
	c2.5,1.1,4.7,2.8,6.5,4.8c1.4,1.8,3.4,3,5.6,3.4c1,0.1,1.9,0.9,2.1,1.9c0.2,0.7,0.1,1.4-0.2,2c-0.4,0.6-1,1-1.7,1.1
	c-2.4,0.6-4.5,1.9-6,3.7C42.6,93.6,37,96,31.1,96C30.6,96,30.1,96,29.5,95.9z M67.6,95.9H44.3c-0.2,0-0.4-0.1-0.8-0.1
	c1.8-1.1,3.5-2.4,5.1-3.8c1.4-1.8,3.3-3,5.6-3.4c1.3-0.3,2.5-1.2,3-2.4c0.3-0.6,1-0.9,1.6-0.7c1.8,0.4,3.7,1.2,5.6,0.9
	c2.8-0.5,5-2.7,5.4-5.5c0.7-4.1,1.5-8.2,2.2-12.4c0.9-3.7-1.3-7.4-5-8.3c-0.2,0-0.3-0.1-0.4-0.1c-1.3-0.3-3.1-0.2-3.4-1.2
	c-0.3-0.8,1.3-1.9,2-2.9c1.3-1.7,2.6-3.3,3.9-5c2.3-3,2-5.8-0.9-8.2c-0.2-0.2-0.4-0.4-0.5-0.6h4.9c0.7,0,0.7,0.5,0.8,1l5.8,32.9
	c0.3,1.7,0.6,3.5,0.9,5.2c0.4,1.6-0.1,3.3-1.2,4.6c-2.4,2.8-4.9,5.7-7.4,8.4C70.6,95.3,69.1,95.9,67.6,95.9L67.6,95.9z M62.3,83.1
	c-0.7-0.2-1.3-0.3-2-0.4c-1.5-0.1-2.8-1-3.3-2.4c-0.8-1.5-2.2-2.5-3.9-2.6c-1.4-0.2-2.6-0.9-3.5-2c-0.9-1-1.8-1.8-2.8-2.6
	c-0.6-0.4-0.9-1.1-0.7-1.8c0.5-2.8,1-5.6,1.6-8.5c0-0.3,0.1-0.6,0.2-0.8c0.5-1.5,0.8-1.6,2.1-0.7c1,0.7,2,1.4,3,2
	c2.2,1.6,5.3,1.3,7.1-0.7c0.4-0.5,1.1-0.7,1.8-0.5c1.5,0.4,3,0.8,4.4,1.1c2,0.5,2.8,1.7,2.8,4.2c-0.5,2.6-1,5.7-1.6,8.7
	c-0.3,1.4-0.5,2.8-0.8,4.2c-0.1,1-0.7,1.8-1.5,2.4c-0.6,0.3-1.2,0.5-1.8,0.5C62.9,83.2,62.6,83.2,62.3,83.1L62.3,83.1z M42.2,70.1
	c-3-1.5-6.2-2.3-9.5-2.6c-1-0.1-0.6-0.8-0.6-1.3c0.6-3.4,1.2-6.8,1.8-10.2c0.8-4.3,1.5-8.5,2.3-12.8c0.1-0.9,0.5-1.2,1.4-1.2h4.3
	c-1.2,1.6-2.2,2.9-3.2,4.2c-1,1.2-1.5,2.7-1.2,4.3c0.3,1.5,1.2,2.9,2.5,3.7c1.8,1.3,3.7,2.5,5.5,3.8c0.3,0.2,0.9,0.4,0.5,1
	c-1.7,2.3-1.5,5-2.1,7.6c-0.2,1-0.4,2-0.5,3c-0.1,0.4-0.2,0.7-0.5,0.7C42.5,70.2,42.3,70.2,42.2,70.1z M54.5,60.5
	c-4.3-3-8.6-6-12.8-9c-1-0.5-1.5-1.8-1-2.8c0.1-0.2,0.3-0.4,0.5-0.6c1.3-1.8,2.7-3.5,4-5.2c0.4-0.6,1-0.9,1.7-0.8h7
	c1,0.1,2.1,0.1,3.2,0c3.8-0.8,6.6,1.1,9.4,3.3c0.6,0.3,0.9,0.9,1,1.5c0.1,0.6-0.1,1.3-0.6,1.7C64,52.4,61,56.2,58,60
	c-0.3,0.6-1,1-1.6,1.1c-0.1,0-0.2,0-0.3,0C55.4,61.2,54.9,61,54.5,60.5L54.5,60.5z M76.9,38.8c-0.9-0.1-2.2-2.5-1.6-3.2
	c0.3-0.4,0.7,0,1.1,0c6.2,1,12.3-2.2,15-7.9c2.7-5.6,1.5-12.4-3.1-16.6c-4.6-4.2-11.4-5-16.8-1.9c-5.4,3.1-8.2,9.4-6.8,15.5
	c0.1,0.5,0.9,1.2-0.2,1.5c-1.5,0.4-2.7-0.1-2.9-1.1c-0.1-0.5-0.2-1-0.3-1.5v-2.3c0-9,6.8-16.4,15.8-17.3c9.1-0.8,17.3,5.6,18.8,14.6
	c0.9,5.3-0.8,10.8-4.4,14.8c-3.3,3.5-7.9,5.5-12.7,5.5C78,38.9,77.5,38.9,76.9,38.8L76.9,38.8z M63.3,38.9c-0.5,0-1-0.2-1.4-0.6
	c-1.6-1.1-3.1-2.3-4.7-3.3c-1.6-0.9-2.9-2.4-3.5-4.2c-0.5-1.5-0.7-1.5,0.9-1.5h15.2c0.7,0,1.2,0.1,1.3,1c0.4,2.5,0.9,5.1,1.3,7.6
	c0.1,0.7-0.1,0.9-0.8,0.9L63.3,38.9z M40.5,38.8c-3.6,0-3.6,0-2.9-3.5c0.3-1.7,0.6-3.4,0.9-5.1c0.1-0.4,0.1-0.8,0.6-0.8
	c0.4-0.1,0.9,0.2,1,0.6c1.3,2.7,2.5,5.3,3.8,8c0.3,0.6,0.2,0.9-0.5,0.9H40.5z M48.4,38.7c0.7-0.9,1.2-1.7,1.9-2.4
	c0.7-0.8,1.9-0.9,2.8-0.3c1.2,0.8,2.4,1.6,3.9,2.7L48.4,38.7z M46.1,35.3c-0.8-1.7-1.6-3.4-2.4-5c-0.3-0.6-0.1-0.9,0.6-0.9h3.3
	c0.8-0.1,1.6,0.1,2.2,0.7s1,1.3,1,2.1c0.1,0.3,0,0.5-0.3,0.6c-1.4,0.4-2.7,1.4-3.4,2.7c-0.2,0.2-0.3,0.3-0.5,0.3
	C46.4,35.8,46.2,35.5,46.1,35.3L46.1,35.3z M80.2,31.6v-4.7c0-0.5,0.2-1,0.7-1.3c0.5-0.3,1-0.3,1.5,0c1.4,0.8,2.7,1.6,4.1,2.3
	c0.8,0.4,0.6,0.8,0.1,1.3c-1.5,1.5-3.4,2.6-5.5,3.1c-0.2,0-0.3,0.1-0.5,0.1C80.3,32.3,80.2,32.1,80.2,31.6L80.2,31.6z M74.3,30.9
	c0-1.4-0.4-2.8-1.3-3.8c-0.1-0.1-0.1-0.2-0.1-0.4c0.8-0.7,1.7-1.2,2.7-1.4c0.9,0.3,1.6,0.8,1.4,2c-0.1,0.6-0.1,1.2-0.1,1.9
	c0,0.6,0,1.1,0,1.7c-0.1,0.5,0.4,1.5-0.4,1.5C75.7,32.3,74.5,32.2,74.3,30.9L74.3,30.9z M42.4,26.2c-0.6,0-2-2.6-1.8-2.9
	S41,23,41.3,23h2.4l0.8,0c2.2,0,2.8,0.5,3.3,2.5c0.1,0.5,0,0.7-0.5,0.7C47.3,26.2,42.4,26.2,42.4,26.2z M67.8,24.6
	c-0.3-1-0.4-1.9-0.4-2.9c0.1-4.4,0.4-4.6,3.7-2.6c0.6,0.4,1.3,0.7,1.9,1.1c0.5,0.3,0.9,0.8,0.9,1.4s-0.3,1.1-0.9,1.4
	c-1.3,0.8-2.6,1.5-3.8,2.2c-0.2,0.1-0.4,0.2-0.7,0.3C68.2,25.4,68,25.1,67.8,24.6L67.8,24.6z M88.1,25.2c-1.4-0.8-2.8-1.6-4.2-2.5
	c-0.4-0.3-0.7-0.7-0.7-1.3c0-0.5,0.3-1,0.7-1.3c1.4-0.9,2.8-1.6,4.2-2.5c0.6-0.4,0.9-0.2,1.1,0.5c0.3,1.1,0.5,2.2,0.5,3.3
	c0,1.1-0.2,2.2-0.5,3.3c-0.1,0.4-0.3,0.6-0.5,0.6C88.5,25.3,88.3,25.3,88.1,25.2L88.1,25.2z M77.5,22.6c-0.3-0.3-0.5-0.7-0.4-1.1
	c-0.1-0.4,0.1-0.9,0.4-1.2c0.3-0.3,0.8-0.5,1.2-0.4c0.4,0,0.8,0.1,1.1,0.5c0.3,0.3,0.4,0.7,0.4,1.1c0,0.4-0.2,0.8-0.4,1.1
	C79.4,22.9,79,23,78.6,23h-0.1C78.1,23,77.7,22.9,77.5,22.6L77.5,22.6z M38.4,19.1c-1.4-3-1.4-2.5,1.5-2.5l1.6,0
	c2.5,0,2.5,0,3.3,2.4c0.2,0.6,0.3,0.9-0.6,0.9h-4.6c-0.1,0-0.1,0-0.2,0C39,19.9,38.5,19.6,38.4,19.1L38.4,19.1z M80.9,17.5
	c-0.4-0.3-0.7-0.8-0.7-1.3v-3.1c0-2.9,0.1-2.9,2.8-1.8c1.3,0.6,2.5,1.4,3.5,2.4c0.6,0.6,0.7,1-0.1,1.5c-1.3,0.7-2.7,1.5-4,2.3
	c-0.2,0.1-0.5,0.2-0.7,0.2C81.3,17.7,81.1,17.6,80.9,17.5L80.9,17.5z M74.7,17.4c-1.3-0.7-2.7-1.5-4-2.3c-0.6-0.4-0.8-0.7-0.2-1.3
	c1.5-1.5,3.4-2.6,5.4-3.2c0.7-0.2,1.1-0.1,1.1,0.8V16c0,0.6-0.3,1.1-0.7,1.4c-0.2,0.1-0.5,0.2-0.8,0.2C75.3,17.6,75,17.6,74.7,17.4
	L74.7,17.4z M35.6,13c-0.6-0.5-1-1.2-1-1.9c-0.1-0.5,0.1-0.7,0.5-0.7h5.1c0.6,0,1.9,2.5,1.8,2.8c-0.1,0.4-0.5,0.3-0.7,0.3h-3.6
	c-0.1,0-0.3,0-0.4,0C36.6,13.6,36,13.4,35.6,13L35.6,13z M32.6,6.8c-0.2-0.5,0-1.1,0.4-1.4c1.1-0.9,2.5-1.4,4-1.2
	c1.3,0.1,1.5,1.3,1.9,2.3c0.3,0.6,0.3,0.9-0.5,0.9h-4.6c-0.1,0-0.2,0-0.3,0c-0.1,0-0.1,0-0.2,0C33,7.3,32.7,7.1,32.6,6.8L32.6,6.8z"
	/>
<g class="st0">
	<path class="st1" d="M45.2,67c0.3-0.1,0.5-0.3,0.8-0.4c8.5-4.2,15.7-9.9,21.7-17.1C78.3,36.8,83.6,21.9,85.4,5.7
		c0.2-1.7-0.5-2.3-2.2-1.8c-5.7,1.7-10.9,4.3-16,7.4C54,19.4,43.4,30.2,34.8,43c-8.2,12.2-14,25.5-17.9,39.6
		c-0.7,2.5-0.4,2.9,2.2,3.1c8.3,0.7,16-1.1,23.3-5.2C48,77.4,52.6,73.1,56.5,68c0.7-0.9,0.6-1.9-0.3-2.2c-0.4-0.1-0.9-0.1-1.4,0
		C51.6,66.6,48.5,67.1,45.2,67z M15.5,88c-0.3,2.3-0.7,4.6-0.9,6.8c-0.1,1,0.9,1.7,1.9,1.2c1.9-0.8,3.8-1.7,5.6-2.6
		c0.3-0.2,0.6-0.5,0.7-0.8c0.4-1.3,0.6-2.7,0.9-4C21,88.5,18.4,88.3,15.5,88z"/>
	<path class="st1" d="M45.2,67c3.3,0.1,6.4-0.5,9.5-1.2c0.4-0.1,1-0.2,1.4,0c0.9,0.3,1,1.3,0.3,2.2c-3.9,5.1-8.5,9.4-14.1,12.6
		c-7.2,4.1-15,5.9-23.3,5.2c-2.6-0.2-2.9-0.6-2.2-3.1c3.9-14.1,9.7-27.5,17.9-39.7C43.4,30.2,54,19.4,67.2,11.3
		c5-3.1,10.3-5.7,16-7.4c1.7-0.5,2.4,0,2.2,1.8c-1.8,16.2-7,31.1-17.6,43.8c-6,7.3-13.3,13-21.7,17.2C45.8,66.8,45.5,66.9,45.2,67z"
		/>
	<path class="st1" d="M15.5,88c2.9,0.2,5.5,0.5,8.2,0.7c-0.3,1.3-0.6,2.7-0.9,4c-0.1,0.3-0.4,0.7-0.7,0.8c-1.9,0.9-3.7,1.8-5.6,2.6
		c-1,0.4-2-0.2-1.9-1.2C14.9,92.6,15.2,90.3,15.5,88z"/>
</g>
<g id="ICON" transform="translate(-75.246 -322.301)">
	<g id="组_5" transform="translate(87.372 322.301)">
		<path id="路径_9" class="st3" d="M35.3,50l0.6-1.1l13.1-22.7L37.9,6.7L12.9,50l25,43.3l11.2-19.5L36,51.1L35.3,50z"/>
	</g>
	<g id="组_6" transform="translate(75.246 322.301)">
		<path id="路径_10" class="st3" d="M34.3,70.6L25,86.7L3.8,50L25,13.3l9.3,16.2l1.9-3.3L25,6.7L0,50l25,43.3l11.2-19.5L34.3,70.6
			z"/>
	</g>
	<g id="组_7" transform="translate(99.498 322.762)">
		<path id="路径_11" class="st3" d="M50.2,44.3L50.2,44.3l0-7L34.4,64.6l2,3.5L50.2,44.3z"/>
		<path id="路径_12" class="st3" d="M50.2,34.7L50.2,34.7l0-7L31.7,59.8l2,3.5L50.2,34.7z"/>
		<path id="路径_13" class="st3" d="M28.2,53.7l22-38.1l0,0V7.2L25.7,49.5L28.2,53.7z"/>
		<path id="路径_14" class="st3" d="M50.2,25.2L50.2,25.2l0-7L28.9,55l2,3.5L50.2,25.2z"/>
		<path id="路径_15" class="st3" d="M51.3,7.2v84.7l24.4-42.3L51.3,7.2z"/>
		<path id="路径_16" class="st3" d="M50.2,53.8L50.2,53.8l0-7l-13,22.5l2,3.5L50.2,53.8z"/>
		<path id="路径_17" class="st3" d="M50.2,63.3L50.2,63.3l0-7L39.9,74.1l2,3.5L50.2,63.3z"/>
		<path id="路径_18" class="st3" d="M50.2,82.8l-2.6,4.5l2.6,4.5V82.8z"/>
		<path id="路径_19" class="st3" d="M46.8,86l3.4-5.8l0,0v-4.8l-4.7,8.2L46.8,86L46.8,86z"/>
		<path id="路径_20" class="st3" d="M50.2,72.9L50.2,72.9l0-7l-7.5,13l2,3.5L50.2,72.9z"/>
	</g>
</g>
</svg>
