<?xml version="1.0" encoding="utf-8"?>
<!-- Generator: Adobe Illustrator 24.1.2, SVG Export Plug-In . SVG Version: 6.00 Build 0)  -->
<svg version="1.1" id="圖層_1" xmlns="http://www.w3.org/2000/svg" xmlns:xlink="http://www.w3.org/1999/xlink" x="0px" y="0px"
	 viewBox="0 0 100 100" style="enable-background:new 0 0 100 100;" xml:space="preserve">
<style type="text/css">
	.st0{display:none;}
	.st1{display:inline;fill:#FFFFFF;}
	.st2{fill:#FFFFFF;}
</style>
<g class="st0">
	<path class="st1" d="M86.51,53.88c-5.61,2.3-10.99,1.82-16.13-1.38c-0.42-0.26-0.69-0.22-1.07,0.03c-1.79,1.17-3.75,1.95-5.86,2.33
		c-4.66,0.83-9.05,0.17-13.07-2.43c-0.29-0.19-0.5-0.18-0.79,0c-0.63,0.4-1.25,0.81-1.93,1.1c-5.86,2.51-11.56,2.28-17.05-1.05
		c-0.4-0.24-0.64-0.21-1.02,0.02c-5.12,3.18-10.48,3.66-16.07,1.39c-0.56-0.23-0.66-0.15-0.65,0.43c0.02,4.57,0.01,9.14,0.01,13.7
		c0,4.52-0.01,9.05,0,13.57c0.01,3.2,2.36,5.53,5.57,5.53c6.74,0.01,13.48-0.01,20.21,0.02c0.62,0,0.73-0.18,0.73-0.76
		c-0.02-6.57,0-13.14-0.03-19.71c0-0.63,0.18-0.78,0.79-0.78c6.56,0.02,13.12,0.02,19.67,0c0.63,0,0.78,0.17,0.78,0.79
		c-0.02,6.57-0.01,13.14-0.03,19.71c0,0.59,0.14,0.75,0.74,0.75c6.74-0.02,13.48-0.01,20.21-0.02c3.17,0,5.55-2.32,5.55-5.47
		c0.02-9.14,0-18.27,0.02-27.41C87.11,53.7,86.99,53.68,86.51,53.88z"/>
	<path class="st1" d="M90.38,28.39c-0.92-3.68-1.87-7.36-2.73-11.06c-0.63-2.73-2.92-4.5-5.77-4.49
		c-10.61,0.05-21.23,0.02-31.85,0.02c-10.66,0-21.32,0-31.98,0c-0.47,0-0.94-0.04-1.41,0.08c-2.39,0.63-3.76,2.17-4.34,4.57
		c-1.24,5.15-2.59,10.28-3.84,15.43c-0.32,1.3-0.86,2.57-0.85,3.94c0.02,3.12,0.98,5.93,2.95,8.36c2.43,2.99,5.56,4.69,9.45,4.73
		c3.94,0.04,7.14-1.59,9.66-4.58c0.35-0.42,0.5-0.46,0.89-0.01c2.32,2.78,5.28,4.41,8.92,4.57c4.13,0.18,7.48-1.48,10.11-4.62
		c0.32-0.39,0.47-0.41,0.8,0c0.98,1.22,2.14,2.25,3.51,3.02c2.95,1.65,6.04,2.08,9.32,1.16c2.56-0.73,4.62-2.18,6.29-4.22
		c0.28-0.35,0.44-0.36,0.7,0c0.42,0.56,0.92,1.05,1.44,1.51c2.66,2.38,5.8,3.56,9.32,3.12c5.53-0.69,9.08-3.95,10.81-9.18
		c0.6-1.82,0.86-3.7,0.31-5.64C91.46,32.89,90.94,30.63,90.38,28.39z M34.77,30.34c-0.3,0.06-0.62,0.07-0.94,0.07
		c-2.32,0.01-4.64,0-6.96,0c-2.32,0-4.64,0-6.96,0c-2.09-0.01-3.74-1.46-3.92-3.43c-0.18-2.02,1.16-3.76,3.25-4.13
		c0.41-0.07,0.37-0.21,0.3-0.53c-0.72-3.14,1.73-5.8,4.65-5.66c1.7,0.08,3.02,0.88,3.81,2.4c0.26,0.49,0.5,0.53,0.97,0.41
		c1.64-0.42,3.34,0.44,3.94,2.04c0.18,0.5,0.42,0.56,0.87,0.55c2.23-0.06,4.13,1.56,4.36,3.68C38.38,27.91,36.94,29.88,34.77,30.34z
		 M78.12,41.07c-7.08,0.02-14.15,0.01-21.23,0c-3.26,0-5.86-2.22-6.15-5.26c-0.3-3.22,1.94-5.96,4.99-6.41
		c0.2-0.03,0.39-0.07,0.61-0.11c-0.64-2.13-0.49-4.16,0.71-6.04c1.62-2.54,4.02-3.55,6.94-3.21c2.45,0.29,4.24,1.67,5.32,3.88
		c0.24,0.49,0.44,0.57,0.95,0.41c2.74-0.87,5.62,0.62,6.54,3.35c0.13,0.38,0.21,0.63,0.71,0.56c3.22-0.45,6.42,1.86,7.03,5.04
		C85.34,37.41,82.34,41.07,78.12,41.07z"/>
</g>
<path id="联合_3" class="st2" d="M29.53,95.93c-7.16,0.51-14.14-2.46-18.74-7.98c-0.87-0.99-2.06-1.66-3.35-1.89
	c-0.51-0.11-1.01-0.25-1.52-0.4c-1.13-0.22-1.93-1.22-1.91-2.37c-0.12-1.17,0.7-2.22,1.86-2.38c2.53-0.55,4.81-1.94,6.45-3.95
	c3.85-4,9.14-6.29,14.69-6.38c4.57-0.16,9.11-0.04,13.35,2.01c2.48,1.13,4.71,2.75,6.53,4.78c1.4,1.79,3.41,2.99,5.64,3.37
	c1.04,0.1,1.9,0.87,2.1,1.89c0.23,0.66,0.14,1.39-0.24,1.98c-0.38,0.59-1,0.98-1.7,1.06c-2.37,0.55-4.5,1.86-6.05,3.74
	c-4.06,4.21-9.66,6.59-15.51,6.59C30.62,96,30.08,95.98,29.53,95.93z M67.59,95.93H44.28c-0.18,0-0.37-0.07-0.81-0.07
	c1.83-1.09,3.54-2.38,5.09-3.85c1.37-1.79,3.35-3.02,5.57-3.45c1.34-0.29,2.47-1.19,3.05-2.44c0.26-0.62,0.97-0.92,1.59-0.66
	c1.84,0.42,3.65,1.24,5.62,0.87c2.81-0.47,5.01-2.69,5.45-5.51c0.74-4.13,1.49-8.22,2.24-12.4c0.91-3.67-1.33-7.38-5-8.29
	c-0.15-0.04-0.3-0.07-0.45-0.09c-1.26-0.32-3.08-0.16-3.44-1.19c-0.29-0.82,1.26-1.94,2-2.93c1.26-1.73,2.58-3.33,3.87-4.99
	c2.31-3.05,2.01-5.8-0.89-8.24c-0.19-0.19-0.37-0.4-0.53-0.62h4.86c0.65,0,0.73,0.46,0.82,0.96l5.78,32.88
	c0.3,1.74,0.59,3.48,0.94,5.21c0.38,1.61-0.05,3.31-1.15,4.55c-2.43,2.84-4.89,5.65-7.36,8.43c-0.96,1.16-2.39,1.83-3.9,1.83
	L67.59,95.93z M62.28,83.07c-0.65-0.15-1.31-0.32-1.96-0.45c-1.48-0.07-2.78-0.99-3.35-2.36c-0.76-1.49-2.24-2.48-3.91-2.62
	c-1.37-0.23-2.62-0.95-3.5-2.03c-0.86-0.96-1.82-1.84-2.84-2.62c-0.61-0.4-0.9-1.14-0.72-1.85c0.48-2.82,1.05-5.64,1.57-8.47
	c0.05-0.28,0.12-0.56,0.21-0.83c0.5-1.45,0.85-1.56,2.09-0.69c0.99,0.69,1.95,1.38,2.95,2.05c2.21,1.63,5.3,1.31,7.13-0.74
	c0.41-0.53,1.13-0.72,1.75-0.47c1.47,0.42,2.96,0.75,4.44,1.14c1.99,0.53,2.84,1.7,2.84,4.23c-0.48,2.59-1.01,5.65-1.57,8.7
	c-0.25,1.4-0.49,2.82-0.78,4.22c-0.14,0.98-0.71,1.85-1.54,2.38c-0.55,0.35-1.19,0.54-1.84,0.54
	C62.92,83.22,62.59,83.17,62.28,83.07L62.28,83.07z M42.16,70.08c-2.96-1.48-6.19-2.35-9.5-2.56c-1.02-0.08-0.61-0.81-0.56-1.25
	c0.57-3.38,1.17-6.78,1.78-10.16c0.75-4.28,1.55-8.55,2.26-12.84c0.14-0.88,0.48-1.24,1.38-1.19h4.26c-1.23,1.6-2.24,2.86-3.21,4.17
	c-1.03,1.17-1.48,2.74-1.23,4.28c0.25,1.54,1.17,2.89,2.51,3.68c1.83,1.27,3.65,2.52,5.45,3.8c0.31,0.22,0.9,0.38,0.48,0.97
	c-1.68,2.25-1.49,5.05-2.12,7.62c-0.24,0.98-0.39,1.97-0.54,2.97c-0.06,0.45-0.21,0.65-0.48,0.65
	C42.47,70.21,42.3,70.16,42.16,70.08z M54.47,60.55c-4.3-2.97-8.58-5.96-12.83-8.98c-1.04-0.52-1.47-1.78-0.95-2.83
	c0.11-0.23,0.27-0.44,0.46-0.61c1.33-1.76,2.71-3.47,4.04-5.24c0.38-0.56,1.03-0.87,1.7-0.83h7.04c1.05,0.1,2.11,0.1,3.16,0
	c3.79-0.75,6.63,1.09,9.36,3.27c0.55,0.32,0.93,0.88,1.02,1.51c0.09,0.63-0.12,1.27-0.57,1.73c-2.94,3.84-5.91,7.66-8.92,11.48
	c-0.35,0.6-0.95,1.01-1.64,1.1c-0.1,0.01-0.21,0.02-0.31,0.02C55.44,61.18,54.89,60.95,54.47,60.55L54.47,60.55z M76.9,38.85
	c-0.94-0.09-2.15-2.47-1.61-3.21c0.34-0.39,0.74,0,1.09,0c6.18,0.96,12.27-2.23,15-7.86c2.73-5.62,1.47-12.37-3.11-16.63
	C83.68,6.9,76.86,6.13,71.44,9.26c-5.42,3.12-8.16,9.41-6.76,15.51c0.09,0.45,0.86,1.19-0.23,1.48c-1.52,0.36-2.7-0.07-2.93-1.09
	c-0.13-0.51-0.22-1.02-0.27-1.54v-2.3c0-8.96,6.84-16.44,15.76-17.26c9.1-0.77,17.26,5.59,18.76,14.59
	c0.9,5.34-0.75,10.79-4.44,14.75c-3.3,3.53-7.91,5.53-12.74,5.53C78.02,38.94,77.46,38.91,76.9,38.85L76.9,38.85z M63.28,38.88
	c-0.53-0.04-1.03-0.24-1.43-0.59c-1.56-1.09-3.08-2.28-4.72-3.26c-1.62-0.93-2.86-2.41-3.49-4.17c-0.55-1.49-0.65-1.49,0.92-1.49
	h15.22c0.71-0.01,1.15,0.13,1.29,0.96c0.4,2.55,0.87,5.08,1.34,7.62c0.13,0.7-0.1,0.94-0.81,0.94L63.28,38.88z M40.54,38.85
	c-3.6,0-3.6,0-2.94-3.55c0.32-1.69,0.61-3.37,0.89-5.07c0.07-0.39,0.11-0.76,0.6-0.84c0.44-0.08,0.87,0.18,1,0.61
	c1.27,2.68,2.55,5.34,3.83,7.99c0.28,0.59,0.22,0.86-0.51,0.86H40.54z M48.44,38.74c0.72-0.9,1.24-1.7,1.89-2.36
	c0.7-0.79,1.88-0.93,2.75-0.33c1.24,0.76,2.41,1.61,3.93,2.7L48.44,38.74z M46.09,35.29c-0.82-1.68-1.6-3.37-2.41-5.05
	c-0.29-0.62-0.1-0.87,0.58-0.87h3.26c0.81-0.09,1.61,0.15,2.23,0.67c0.62,0.52,0.99,1.28,1.03,2.09c0.06,0.34,0.02,0.54-0.35,0.64
	c-1.43,0.43-2.65,1.38-3.43,2.66c-0.17,0.24-0.32,0.34-0.45,0.34C46.37,35.76,46.22,35.55,46.09,35.29L46.09,35.29z M80.21,31.57
	v-4.71c-0.04-0.54,0.23-1.05,0.68-1.33c0.46-0.28,1.03-0.29,1.5-0.02c1.39,0.75,2.71,1.63,4.1,2.33c0.76,0.41,0.62,0.77,0.12,1.29
	c-1.51,1.54-3.42,2.63-5.51,3.15c-0.15,0.04-0.31,0.07-0.47,0.08C80.31,32.34,80.2,32.14,80.21,31.57L80.21,31.57z M74.31,30.87
	c0.02-1.4-0.45-2.75-1.34-3.83c-0.08-0.1-0.12-0.23-0.09-0.36c0.77-0.71,1.71-1.2,2.73-1.43c0.89,0.33,1.6,0.78,1.42,1.95
	c-0.09,0.62-0.14,1.24-0.13,1.86c0.04,0.57,0.04,1.14,0,1.71c-0.08,0.53,0.38,1.53-0.41,1.53C75.69,32.31,74.49,32.21,74.31,30.87
	L74.31,30.87z M42.38,26.2c-0.57-0.01-1.97-2.58-1.84-2.93c0.13-0.35,0.46-0.26,0.73-0.26h2.42l0.81-0.02c2.18,0,2.78,0.52,3.27,2.5
	c0.13,0.53-0.03,0.71-0.52,0.71H42.38z M67.85,24.61c-0.28-0.95-0.42-1.93-0.41-2.92c0.09-4.35,0.43-4.6,3.69-2.62
	c0.62,0.37,1.25,0.71,1.86,1.09c0.52,0.25,0.86,0.77,0.86,1.35c0,0.58-0.33,1.1-0.86,1.35c-1.26,0.77-2.58,1.46-3.83,2.24
	c-0.2,0.15-0.44,0.24-0.69,0.27C68.18,25.37,67.99,25.13,67.85,24.61L67.85,24.61z M88.13,25.17c-1.4-0.82-2.82-1.6-4.2-2.45
	c-0.44-0.26-0.72-0.74-0.73-1.26c-0.01-0.51,0.25-1,0.69-1.27c1.38-0.86,2.81-1.62,4.21-2.45c0.63-0.38,0.89-0.19,1.09,0.49
	c0.31,1.06,0.48,2.16,0.5,3.26c-0.03,1.11-0.21,2.2-0.52,3.26c-0.12,0.41-0.28,0.6-0.52,0.6C88.46,25.34,88.29,25.27,88.13,25.17
	L88.13,25.17z M77.46,22.62c-0.3-0.29-0.46-0.68-0.45-1.1c-0.05-0.44,0.1-0.88,0.41-1.2c0.31-0.32,0.75-0.48,1.19-0.43
	c0.42-0.01,0.83,0.15,1.12,0.45c0.29,0.3,0.44,0.71,0.41,1.13c0.01,0.42-0.15,0.82-0.45,1.12c-0.3,0.3-0.7,0.45-1.12,0.44H78.5
	C78.11,23.04,77.74,22.89,77.46,22.62L77.46,22.62z M38.39,19.13c-1.42-3.03-1.36-2.45,1.46-2.45l1.6-0.01
	c2.53,0,2.53,0.02,3.35,2.35c0.23,0.64,0.25,0.85-0.57,0.85h-4.62c-0.06,0.01-0.13,0.02-0.19,0.02
	C38.95,19.89,38.53,19.58,38.39,19.13L38.39,19.13z M80.88,17.47c-0.45-0.26-0.73-0.75-0.72-1.27v-3.15c0-2.85,0.1-2.94,2.8-1.76
	c1.31,0.59,2.49,1.41,3.51,2.43c0.63,0.6,0.74,1.01-0.14,1.48c-1.35,0.71-2.65,1.52-3.99,2.26c-0.22,0.13-0.48,0.21-0.74,0.21
	C81.34,17.66,81.1,17.59,80.88,17.47L80.88,17.47z M74.74,17.4c-1.34-0.73-2.65-1.52-3.98-2.26c-0.62-0.35-0.85-0.66-0.24-1.27
	c1.49-1.54,3.37-2.64,5.45-3.18c0.7-0.18,1.09-0.05,1.09,0.75v4.6c0.04,0.57-0.25,1.11-0.74,1.4c-0.23,0.14-0.49,0.21-0.76,0.21
	C75.27,17.64,74.98,17.56,74.74,17.4L74.74,17.4z M35.57,12.99c-0.59-0.47-0.96-1.16-1.02-1.92c-0.12-0.53,0.08-0.71,0.52-0.69h5.14
	c0.58,0.01,1.94,2.49,1.81,2.85c-0.13,0.36-0.45,0.29-0.72,0.29h-3.63c-0.14,0.02-0.29,0.04-0.43,0.04
	C36.63,13.57,36.04,13.37,35.57,12.99L35.57,12.99z M32.58,6.75c-0.16-0.52,0.01-1.09,0.44-1.44c1.12-0.92,2.55-1.36,4-1.24
	c1.27,0.14,1.46,1.35,1.93,2.26c0.29,0.6,0.33,0.88-0.53,0.88h-4.59c-0.09,0-0.19,0-0.28,0c-0.07,0-0.14,0-0.22,0
	C33,7.27,32.68,7.07,32.58,6.75L32.58,6.75z"/>
<g class="st0">
	<path class="st1" d="M45.21,67.04c0.28-0.14,0.55-0.29,0.83-0.42c8.47-4.16,15.69-9.91,21.72-17.14
		C78.34,36.79,83.56,21.92,85.38,5.7c0.2-1.74-0.5-2.28-2.21-1.76c-5.67,1.71-10.93,4.32-15.96,7.41
		c-13.2,8.09-23.81,18.87-32.42,31.63C26.57,55.15,20.84,68.5,16.9,82.62c-0.69,2.46-0.38,2.88,2.17,3.11
		c8.31,0.72,16.05-1.1,23.29-5.17c5.6-3.15,10.2-7.46,14.09-12.55c0.7-0.91,0.57-1.91-0.32-2.22c-0.41-0.14-0.94-0.08-1.39,0.03
		C51.62,66.57,48.47,67.13,45.21,67.04z M15.54,88.01c-0.32,2.27-0.69,4.56-0.95,6.85c-0.11,1.04,0.89,1.68,1.9,1.24
		c1.89-0.83,3.76-1.7,5.62-2.61c0.31-0.15,0.64-0.5,0.72-0.83c0.35-1.31,0.62-2.65,0.91-3.97C21.04,88.47,18.42,88.25,15.54,88.01z"
		/>
	<path class="st1" d="M45.21,67.04c3.26,0.1,6.41-0.46,9.54-1.23c0.44-0.11,0.97-0.17,1.39-0.03c0.89,0.31,1.02,1.31,0.32,2.22
		c-3.88,5.1-8.48,9.4-14.09,12.55c-7.23,4.07-14.98,5.9-23.29,5.17c-2.56-0.22-2.86-0.64-2.17-3.11
		c3.94-14.13,9.67-27.47,17.88-39.65c8.61-12.76,19.22-23.54,32.42-31.63c5.03-3.08,10.29-5.69,15.96-7.41
		c1.71-0.52,2.41,0.02,2.21,1.76c-1.82,16.22-7.04,31.09-17.62,43.77C61.73,56.7,54.5,62.45,46.03,66.61
		C45.76,66.75,45.48,66.89,45.21,67.04z"/>
	<path class="st1" d="M15.54,88.01c2.88,0.24,5.5,0.46,8.2,0.69c-0.29,1.32-0.56,2.66-0.91,3.97c-0.09,0.32-0.41,0.67-0.72,0.83
		c-1.86,0.9-3.72,1.78-5.62,2.61c-1.01,0.44-2.01-0.2-1.9-1.24C14.85,92.57,15.22,90.28,15.54,88.01z"/>
</g>
</svg>
