<svg id="组_182" data-name="组 182" xmlns="http://www.w3.org/2000/svg" width="116.214" height="17.842" viewBox="0 0 116.214 17.842">
  <g id="组_176" data-name="组 176">
    <path id="路径_9363" data-name="路径 9363" d="M164.039,123.628a14.75,14.75,0,0,0-6.422-6.477,13.059,13.059,0,0,0-2.123-.849,9.3,9.3,0,0,0-2.228-.369,6.21,6.21,0,0,0-2.19.276,4.321,4.321,0,0,0-1.82,1.136,4.552,4.552,0,0,0-1.04,1.916,4.19,4.19,0,0,0-.127.548c-.018.092-.039.185-.054.276l-.026.27a3.582,3.582,0,0,0,.1,1.076,3.476,3.476,0,0,0,2.123,2.356,3.27,3.27,0,0,0,1.076.207,2.518,2.518,0,0,0,1.916-.888,2.544,2.544,0,0,0,.5-.961,2.5,2.5,0,0,0,.087-.535,2,2,0,0,0-.064-.527,1.747,1.747,0,0,0-1.521-1.289,1.157,1.157,0,0,0-.891.309.99.99,0,0,0-.316.806.475.475,0,1,1-.932-.068l.014-.053a2.039,2.039,0,0,1,.844-1.2,1.865,1.865,0,0,1,1.346-.279,2.414,2.414,0,0,1,1.172.566,2.6,2.6,0,0,1,.42.5,2.459,2.459,0,0,1,.265.6,2.4,2.4,0,0,1,.082.648,2.833,2.833,0,0,1-.1.635,3,3,0,0,1-2.823,2.211,2.863,2.863,0,0,1-.636-.055,4.067,4.067,0,0,1-.613-.152,4,4,0,0,1-1.116-.6,4.042,4.042,0,0,1-1.433-2.067,4.277,4.277,0,0,1-.159-1.273l.022-.323c.013-.1.033-.2.049-.307a4.941,4.941,0,0,1,.121-.612,5.287,5.287,0,0,1,1.139-2.25,4.965,4.965,0,0,1,2.121-1.41,6.944,6.944,0,0,1,2.487-.359,10.193,10.193,0,0,1,2.445.395,12.608,12.608,0,0,1,2.273.928,13.351,13.351,0,0,1,6.305,7.123.151.151,0,0,1-.278.119Z" transform="translate(-147.354 -115.06)" fill="#0d386a"/>
    <path id="路径_9364" data-name="路径 9364" d="M164.246,123.727a8.138,8.138,0,0,0-3.48,3.481,7,7,0,0,0-.459,1.14,4.949,4.949,0,0,0-.2,1.192,2.669,2.669,0,0,0,.745,2.1,2.368,2.368,0,0,0,1,.533,2.13,2.13,0,0,0,.289.067l.145.028.138.013a1.861,1.861,0,0,0,.546-.05,1.769,1.769,0,0,0,.918-.6,1.829,1.829,0,0,0,.278-.483,1.709,1.709,0,0,0,.106-.541,1.247,1.247,0,0,0-.433-.951,1.279,1.279,0,0,0-.475-.258.966.966,0,0,0-.518-.021.918.918,0,0,0-.671.733.657.657,0,0,0,.532.751h0a.153.153,0,0,1-.041.3.992.992,0,0,1-.885-1.108,1.321,1.321,0,0,1,.943-1.115,1.4,1.4,0,0,1,.387-.053,1.647,1.647,0,0,1,.376.053,1.755,1.755,0,0,1,1.313,1.66,2.252,2.252,0,0,1-.467,1.378,2.353,2.353,0,0,1-1.2.829,2.481,2.481,0,0,1-.738.09l-.187-.013-.174-.028a2.787,2.787,0,0,1-.346-.069,3.007,3.007,0,0,1-1.278-.658,2.878,2.878,0,0,1-.8-1.214,3.859,3.859,0,0,1-.2-1.4,6.185,6.185,0,0,1,.735-2.627,7.28,7.28,0,0,1,3.959-3.48.173.173,0,0,1,.137.316Z" transform="translate(-147.354 -115.06)" fill="#0d386a"/>
    <path id="路径_9365" data-name="路径 9365" d="M164.241,123.352q5.239.012,10.479,0l10.479-.038c3.493-.01,6.984-.049,10.475-.072l5.236-.06,2.618-.039.654-.011.163,0c-.039,0-.017,0-.014,0a.214.214,0,0,0,.031-.012.617.617,0,0,0,.158-.1,1.875,1.875,0,0,0,.5-.9l0-.011a.463.463,0,0,1,.889.262l-.006.021a2.726,2.726,0,0,1-.829,1.317,1.479,1.479,0,0,1-.4.23,1.233,1.233,0,0,1-.125.038.77.77,0,0,1-.176.025l-.163,0-.656-.01-2.622-.039-5.244-.06c-3.495-.023-6.99-.062-10.484-.072l-10.479-.038q-5.239-.015-10.479,0a.217.217,0,0,1,0-.433Z" transform="translate(-147.354 -115.06)" fill="#0d386a"/>
  </g>
  <g id="组_177" data-name="组 177" transform="translate(57.641)">
    <path id="路径_9366" data-name="路径 9366" d="M246.6,123.509a13.347,13.347,0,0,1,6.305-7.123,12.569,12.569,0,0,1,2.272-.928,10.2,10.2,0,0,1,2.445-.395,6.944,6.944,0,0,1,2.487.359,4.974,4.974,0,0,1,2.122,1.41,5.3,5.3,0,0,1,1.138,2.25,4.6,4.6,0,0,1,.121.612c.017.1.036.2.05.307l.021.323a4.246,4.246,0,0,1-.159,1.273,4.028,4.028,0,0,1-2.548,2.662,4.109,4.109,0,0,1-.614.152,2.858,2.858,0,0,1-.636.055,3,3,0,0,1-2.823-2.211,2.83,2.83,0,0,1-.1-.635,2.445,2.445,0,0,1,.081-.648,2.5,2.5,0,0,1,.265-.6,2.673,2.673,0,0,1,.42-.5,2.414,2.414,0,0,1,1.172-.566,1.868,1.868,0,0,1,1.347.279,2.039,2.039,0,0,1,.844,1.2l.013.051a.475.475,0,1,1-.931.07.988.988,0,0,0-.317-.806,1.156,1.156,0,0,0-.89-.309,1.748,1.748,0,0,0-1.522,1.289,2.039,2.039,0,0,0-.063.527,2.434,2.434,0,0,0,.086.535,2.545,2.545,0,0,0,.505.961,2.514,2.514,0,0,0,1.916.888,3.27,3.27,0,0,0,1.075-.207,3.479,3.479,0,0,0,2.124-2.356,3.647,3.647,0,0,0,.1-1.076l-.027-.27c-.015-.091-.036-.184-.054-.276a4.192,4.192,0,0,0-.126-.548,4.552,4.552,0,0,0-1.04-1.916,4.324,4.324,0,0,0-1.821-1.136,6.2,6.2,0,0,0-2.189-.276,9.3,9.3,0,0,0-2.229.369,13.059,13.059,0,0,0-2.123.849,14.755,14.755,0,0,0-6.422,6.477.151.151,0,0,1-.277-.119Z" transform="translate(-204.994 -115.06)" fill="#0d386a"/>
    <path id="路径_9367" data-name="路径 9367" d="M246.812,123.41a7.284,7.284,0,0,1,3.959,3.48,6.169,6.169,0,0,1,.734,2.627,3.838,3.838,0,0,1-.2,1.4,2.876,2.876,0,0,1-.8,1.214,3.011,3.011,0,0,1-1.279.658,2.75,2.75,0,0,1-.346.069l-.174.028-.186.013a2.492,2.492,0,0,1-.739-.09,2.353,2.353,0,0,1-1.2-.829,2.258,2.258,0,0,1-.467-1.378,1.755,1.755,0,0,1,1.313-1.66,1.648,1.648,0,0,1,.377-.053,1.393,1.393,0,0,1,.386.053,1.319,1.319,0,0,1,.943,1.115.992.992,0,0,1-.885,1.108.153.153,0,0,1-.166-.139.152.152,0,0,1,.125-.164h0a.659.659,0,0,0,.426-.275.643.643,0,0,0,.106-.476.915.915,0,0,0-.67-.733.969.969,0,0,0-.519.021,1.279,1.279,0,0,0-.475.258,1.247,1.247,0,0,0-.433.951,1.71,1.71,0,0,0,.107.541,1.77,1.77,0,0,0,1.195,1.079,1.868,1.868,0,0,0,.547.05l.137-.013.146-.028a2.115,2.115,0,0,0,.288-.067,2.362,2.362,0,0,0,1-.533,2.669,2.669,0,0,0,.746-2.1,5,5,0,0,0-.2-1.192,6.912,6.912,0,0,0-.459-1.14,8.13,8.13,0,0,0-3.479-3.481h0a.173.173,0,0,1,.138-.316Z" transform="translate(-204.994 -115.06)" fill="#0d386a"/>
    <path id="路径_9368" data-name="路径 9368" d="M246.681,123.785q-5.239-.012-10.48,0l-10.479.038c-3.494.01-6.989.049-10.484.072l-5.243.06-2.623.039-.655.01-.164,0a.779.779,0,0,1-.176-.025c-.044-.011-.086-.024-.125-.038a1.494,1.494,0,0,1-.4-.23,2.716,2.716,0,0,1-.828-1.317.463.463,0,1,1,.875-.3l.006.02,0,.012a1.884,1.884,0,0,0,.5.9.6.6,0,0,0,.157.1.276.276,0,0,0,.032.012s.025,0-.015,0l.164,0,.654.011,2.617.039,5.236.06c3.491.023,6.982.062,10.475.072l10.479.038q5.239.015,10.48,0a.217.217,0,0,1,0,.433Z" transform="translate(-204.994 -115.06)" fill="#0d386a"/>
  </g>
  <path id="路径_9369" data-name="路径 9369" d="M163.233,130.586a.6.6,0,1,1-.6-.6A.6.6,0,0,1,163.233,130.586Z" transform="translate(-147.354 -115.06)" fill="#0d386a"/>
  <circle id="椭圆_1" data-name="椭圆 1" cx="0.768" cy="0.768" r="0.768" transform="translate(2.735 5.14)" fill="#0d386a"/>
  <path id="路径_9370" data-name="路径 9370" d="M248.778,130.586a.6.6,0,1,1-.6-.6A.6.6,0,0,1,248.778,130.586Z" transform="translate(-147.354 -115.06)" fill="#0d386a"/>
  <circle id="椭圆_2" data-name="椭圆 2" cx="0.768" cy="0.768" r="0.768" transform="translate(111.953 5.137)" fill="#0d386a"/>
</svg>
